SplineFontDB: 3.2
FontName: Giphurs-Black
FullName: Giphurs Black
FamilyName: Giphurs
Weight: Black
Copyright: Copyright 2023 The Giphurs Project Authors (https://github.com/Corne2Plum3/Giphurs)
UComments: "2023-01-20: Finally found a name for the font lol+AAoA-2022-06-21: Created with FontForge (http://fontforge.org)"
Version: 000.830
ItalicAngle: 0
UnderlinePosition: -204
UnderlineWidth: 102
Ascent: 1668
Descent: 380
InvalidEm: 0
LayerCount: 4
Layer: 0 0 "Back" 1
Layer: 1 0 "Fore" 0
Layer: 2 0 "Back 3" 1
Layer: 3 0 "Back 8" 1
XUID: [1021 347 -1220005877 17853]
StyleMap: 0x0040
FSType: 0
OS2Version: 0
OS2_WeightWidthSlopeOnly: 0
OS2_UseTypoMetrics: 1
CreationTime: 1655845567
ModificationTime: 1693492309
PfmFamily: 33
TTFWeight: 900
TTFWidth: 5
LineGap: 0
VLineGap: 0
OS2TypoAscent: 2218
OS2TypoAOffset: 0
OS2TypoDescent: -578
OS2TypoDOffset: 0
OS2TypoLinegap: 0
OS2WinAscent: 2218
OS2WinAOffset: 0
OS2WinDescent: 578
OS2WinDOffset: 0
HheadAscent: 2218
HheadAOffset: 0
HheadDescent: -578
HheadDOffset: 0
OS2CapHeight: 1480
OS2XHeight: 1040
OS2Vendor: 'PfEd'
Lookup: 1 0 0 "'c2sc' Capitales vers petites capitales dans Latin lookup 0" { "sous-table 'c2sc' Capitales vers petites capitales dans Latin lookup 0"  } ['c2sc' ('grek' <'dflt' > 'latn' <'dflt' > ) ]
Lookup: 1 0 0 "'c2pc' Capitales vers tr+AOgA-s petites capitales dans Latin lookup 0" { "sous-table 'c2pc' Capitales vers tr+AOgA-s petites capitales dans Latin lookup 0"  } ['c2pc' ('latn' <'dflt' > ) ]
Lookup: 1 0 0 "'smcp' Bas-de-casse vers petites capitales dans Latin lookup 0" { "sous-table 'smcp' Bas-de-casse vers petites capitales dans Latin lookup 0"  } ['smcp' ('grek' <'dflt' > 'latn' <'dflt' > ) ]
Lookup: 1 0 0 "'pcap' Bas-de-casse vers tr+AOgA-s petites capitales dans Latin lookup 0" { "sous-table 'pcap' Bas-de-casse vers tr+AOgA-s petites capitales dans Latin lookup 0"  } ['pcap' ('latn' <'dflt' > ) ]
Lookup: 1 0 0 "Soft dotted i substitutions" { "Soft dotted i substitutions lookups0-1"  } []

StartChar: o
Encoding: 111 111 0
Width: 1268
VWidth: 1000
Flags: HMW
AnchorPoint: "bottom_right" 825 0 basechar 0
AnchorPoint: "top_right" 1126 1040 basechar 0
AnchorPoint: "bottom_center" 634 0 basechar 0
AnchorPoint: "top_center" 634 1040 basechar 0
LayerCount: 3
Fore
SplineSet
444 520 m 0
 444 390 497 290 634 290 c 4
 771 290 824 383 824 520 c 4
 824 657 771 750 634 750 c 4
 497 750 444 657 444 520 c 0
84 520 m 0
 84 840 314 1070 634 1070 c 4
 954 1070 1184 840 1184 520 c 4
 1184 200 954 -30 634 -30 c 4
 314 -30 84 200 84 520 c 0
EndSplineSet
Substitution2: "sous-table 'smcp' Bas-de-casse vers petites capitales dans Latin lookup 0" o.sc
Colour: ff00
EndChar

StartChar: n
Encoding: 110 110 1
Width: 1284
VWidth: 1000
Flags: HMW
AnchorPoint: "bottom_center" 642 0 basechar 0
AnchorPoint: "top_center" 642 1040 basechar 0
LayerCount: 3
Fore
SplineSet
808 0 m 1
 808 572 l 2
 808 682 772 750 642 750 c 0
 512 750 476 682 476 572 c 2
 476 0 l 1
 116 0 l 1
 116 1040 l 1
 464 1040 l 1
 464 920 l 1
 499 981 588 1070 738 1070 c 0
 1002 1070 1168 892 1168 572 c 1
 1168 0 l 1
 808 0 l 1
EndSplineSet
Substitution2: "sous-table 'smcp' Bas-de-casse vers petites capitales dans Latin lookup 0" n.sc
Colour: ff00
EndChar

StartChar: u
Encoding: 117 117 2
Width: 1284
VWidth: 1000
Flags: HMW
AnchorPoint: "top_center" 642 1040 basechar 0
AnchorPoint: "top_right" 1168 1040 basechar 0
AnchorPoint: "bottom_center" 642 0 basechar 0
AnchorPoint: "bottom_right" 1192 0 basechar 0
LayerCount: 3
Fore
SplineSet
476 1040 m 1
 476 468 l 2
 476 358 512 290 642 290 c 0
 772 290 808 358 808 468 c 2
 808 1040 l 1
 1168 1040 l 1
 1168 168 l 1
 1168 66 1192 0 1192 0 c 1
 843 0 l 1
 843 0 819 60 819 120 c 1
 784 59 696 -30 546 -30 c 0
 282 -30 116 148 116 468 c 1
 116 1040 l 1
 476 1040 l 1
EndSplineSet
Substitution2: "sous-table 'smcp' Bas-de-casse vers petites capitales dans Latin lookup 0" u.sc
Substitution2: "'ss05' Simplified u lookups0-1" u.ss05
Colour: ff00
EndChar

StartChar: d
Encoding: 100 100 3
Width: 1330
VWidth: 1000
Flags: HMW
AnchorPoint: "bottom_cedilla" 589 -20 basechar 0
AnchorPoint: "bottom_center" 589 0 basechar 0
AnchorPoint: "top_center" 1034 1380 basechar 0
AnchorPoint: "top_right" 1214 1480 basechar 0
LayerCount: 3
Fore
SplineSet
854 510 m 4
 854 640 791 750 654 750 c 4
 517 750 444 650 444 520 c 4
 444 390 517 290 654 290 c 4
 785 290 854 380 854 510 c 4
1214 168 m 5
 1214 66 1238 0 1238 0 c 5
 890 0 l 5
 890 0 866 60 866 120 c 5
 866 80 739 -30 589 -30 c 4
 269 -30 84 200 84 520 c 4
 84 840 269 1070 589 1070 c 4
 739 1070 844 959 854 920 c 5
 854 1480 l 5
 1214 1480 l 5
 1214 168 l 5
EndSplineSet
Substitution2: "sous-table 'smcp' Bas-de-casse vers petites capitales dans Latin lookup 0" d.sc
Colour: ff00
EndChar

StartChar: b
Encoding: 98 98 4
Width: 1330
VWidth: 1000
Flags: HMW
AnchorPoint: "bottom_center" 741 0 basechar 0
AnchorPoint: "top_center" 296 1380 basechar 0
LayerCount: 3
Fore
SplineSet
476 510 m 0
 476 380 545 290 676 290 c 0
 813 290 886 390 886 520 c 0
 886 650 813 750 676 750 c 0
 539 750 476 640 476 510 c 0
116 168 m 1
 116 1480 l 1
 476 1480 l 5
 476 920 l 5
 486 959 591 1070 741 1070 c 4
 1061 1070 1246 840 1246 520 c 0
 1246 200 1061 -30 741 -30 c 0
 591 -30 464 80 464 120 c 1
 464 0 l 1
 116 0 l 1
 116 0 116 66 116 168 c 1
EndSplineSet
Substitution2: "sous-table 'smcp' Bas-de-casse vers petites capitales dans Latin lookup 0" b.sc
Colour: ff00
EndChar

StartChar: p
Encoding: 112 112 5
Width: 1330
VWidth: 1000
Flags: HMW
AnchorPoint: "bottom_center" 296 -360 basechar 0
AnchorPoint: "top_center" 676 1040 basechar 0
LayerCount: 3
Fore
SplineSet
476 530 m 0
 476 400 539 290 676 290 c 0
 813 290 886 390 886 520 c 0
 886 650 813 750 676 750 c 0
 545 750 476 660 476 530 c 0
116 872 m 1
 116 974 116 1040 116 1040 c 1
 464 1040 l 1
 464 920 l 1
 464 960 591 1070 741 1070 c 0
 1061 1070 1246 840 1246 520 c 0
 1246 200 1061 -30 741 -30 c 0
 591 -30 486 81 476 120 c 1
 476 -440 l 1
 116 -440 l 1
 116 872 l 1
EndSplineSet
Substitution2: "sous-table 'smcp' Bas-de-casse vers petites capitales dans Latin lookup 0" p.sc
Colour: ff00
EndChar

StartChar: q
Encoding: 113 113 6
Width: 1330
VWidth: 1000
Flags: HMW
AnchorPoint: "bottom_center" 1034 -360 basechar 0
AnchorPoint: "top_center" 654 1040 basechar 0
LayerCount: 3
Fore
SplineSet
854 530 m 4
 854 660 785 750 654 750 c 4
 517 750 444 650 444 520 c 4
 444 390 517 290 654 290 c 4
 791 290 854 400 854 530 c 4
1214 872 m 5
 1214 -440 l 5
 854 -440 l 5
 854 120 l 5
 844 81 739 -30 589 -30 c 4
 269 -30 84 200 84 520 c 4
 84 840 269 1070 589 1070 c 4
 739 1070 866 960 866 920 c 5
 866 1040 l 5
 1214 1040 l 5
 1214 1040 1214 974 1214 872 c 5
EndSplineSet
Substitution2: "sous-table 'smcp' Bas-de-casse vers petites capitales dans Latin lookup 0" q.sc
Colour: ff00
EndChar

StartChar: h
Encoding: 104 104 7
Width: 1284
VWidth: 1000
Flags: HMW
AnchorPoint: "bottom_cedilla" 296 -20 basechar 0
AnchorPoint: "bottom_center" 642 0 basechar 0
AnchorPoint: "top_center" 296 1380 basechar 0
LayerCount: 3
Fore
SplineSet
808 0 m 1
 808 572 l 2
 808 682 772 750 642 750 c 0
 512 750 476 682 476 572 c 2
 476 0 l 1
 116 0 l 1
 116 1480 l 1
 464 1480 l 1
 464 920 l 1
 499 981 588 1070 738 1070 c 0
 1002 1070 1168 892 1168 572 c 1
 1168 0 l 1
 808 0 l 1
EndSplineSet
Substitution2: "sous-table 'smcp' Bas-de-casse vers petites capitales dans Latin lookup 0" h.sc
Colour: ff00
EndChar

StartChar: m
Encoding: 109 109 8
Width: 1736
VWidth: 1000
Flags: HMW
AnchorPoint: "bottom_center" 868 0 basechar 0
AnchorPoint: "top_center" 868 1040 basechar 0
LayerCount: 3
Fore
SplineSet
688 0 m 1
 688 572 l 2
 688 682 682 750 582 750 c 0
 482 750 476 682 476 572 c 2
 476 0 l 1
 116 0 l 1
 116 1040 l 1
 464 1040 l 1
 464 920 l 1
 464 920 528 1070 678 1070 c 0
 811.488291478 1070 904.580841652 1024.49087372 964 938.126555415 c 1
 1023.41915835 1024.49087372 1116.51170852 1070 1250 1070 c 0
 1514 1070 1620 892 1620 572 c 2
 1620 0 l 1
 1260 0 l 1
 1260 572 l 2
 1260 682 1254 750 1154 750 c 0
 1054 750 1048 682 1048 572 c 2
 1048 0 l 1
 688 0 l 1
EndSplineSet
Substitution2: "sous-table 'smcp' Bas-de-casse vers petites capitales dans Latin lookup 0" m.sc
Colour: ff00
EndChar

StartChar: e
Encoding: 101 101 9
Width: 1268
VWidth: 1000
Flags: HMW
AnchorPoint: "bottom_cedilla" 634 -20 basechar 0
AnchorPoint: "bottom_right" 837 0 basechar 0
AnchorPoint: "bottom_center" 634 0 basechar 0
AnchorPoint: "top_center" 634 1040 basechar 0
LayerCount: 4
Fore
SplineSet
210 660 m 1
 1116 660 l 1
 814 400 l 1
 210 400 l 1
 210 660 l 1
823 368 m 1
 1130 242 l 1
 1038 65 856 -30 634 -30 c 0
 313 -30 84 200 84 520 c 0
 84 840 314 1070 634 1070 c 0
 954 1070 1184 840 1184 520 c 0
 1184 479 1179 438 1172 400 c 1
 814 400 l 1
 828 435 854 476 854 520 c 0
 854 657 771 750 634 750 c 0
 497 750 404 657 404 520 c 0
 404 390 496 290 634 290 c 0
 748 290 805 329 823 368 c 1
EndSplineSet
Substitution2: "sous-table 'smcp' Bas-de-casse vers petites capitales dans Latin lookup 0" e.sc
Colour: ff00
EndChar

StartChar: c
Encoding: 99 99 10
Width: 1205
VWidth: 1000
Flags: HMW
AnchorPoint: "top_center" 634 1040 basechar 0
AnchorPoint: "bottom_center" 636 0 basechar 0
AnchorPoint: "bottom_cedilla" 636 -20 basechar 0
LayerCount: 4
Fore
SplineSet
444 520 m 4
 444 383 499 290 636 290 c 4
 740 290 795 344 816 430 c 5
 1123 252 l 5
 1035 79 857 -30 636 -30 c 4
 316 -30 84 200 84 520 c 4
 84 840 314 1070 634 1070 c 0
 855 1070 1033 961 1121 788 c 1
 814 610 l 1
 793 696 738 750 634 750 c 0
 497 750 444 657 444 520 c 4
EndSplineSet
Substitution2: "sous-table 'smcp' Bas-de-casse vers petites capitales dans Latin lookup 0" c.sc
Colour: ff00
EndChar

StartChar: f
Encoding: 102 102 11
Width: 1056
VWidth: 1000
Flags: HMW
AnchorPoint: "top_center" 662 1380 basechar 0
AnchorPoint: "bottom_center" 456 0 basechar 0
LayerCount: 3
Fore
SplineSet
941 1135 m 5
 909 1167 834 1190 774 1190 c 4
 684 1190 636 1150 636 1050 c 5
 636 1040 l 1
 941 1040 l 1
 941 720 l 1
 636 720 l 1
 636 0 l 25
 276 0 l 25
 276 720 l 1
 24 720 l 1
 24 1040 l 1
 276 1040 l 1
 276 1050 l 5
 276 1330 410 1510 770 1510 c 4
 891 1510 976 1482 1032 1458 c 5
 941 1135 l 5
EndSplineSet
Substitution2: "sous-table 'smcp' Bas-de-casse vers petites capitales dans Latin lookup 0" f.sc
Substitution2: "'ss06' f ligatures lookups0-1" f.ss06
Colour: ff00
EndChar

StartChar: r
Encoding: 114 114 12
Width: 952
VWidth: 1000
Flags: HMW
AnchorPoint: "bottom_center" 296 0 basechar 0
AnchorPoint: "top_center" 536 1040 basechar 0
LayerCount: 3
Fore
SplineSet
821 691 m 5
 783 730 725 750 642 750 c 4
 512 750 476 682 476 572 c 2
 476 0 l 1
 116 0 l 1
 116 1040 l 1
 464 1040 l 1
 464 920 l 1
 499 981 588 1070 738 1070 c 4
 809 1070 872 1058 928 1034 c 5
 821 691 l 5
EndSplineSet
Substitution2: "sous-table 'smcp' Bas-de-casse vers petites capitales dans Latin lookup 0" r.sc
Colour: ff00
EndChar

StartChar: t
Encoding: 116 116 13
Width: 1056
VWidth: 1000
Flags: HMW
AnchorPoint: "bottom_cedilla" 639 -20 basechar 0
AnchorPoint: "bottom_center" 556 0 basechar 0
AnchorPoint: "top_center" 456 1380 basechar 0
LayerCount: 3
Fore
SplineSet
96 1028 m 1
 216 1028 300 1106 300 1226 c 1
 300 1320 l 1
 636 1320 l 1
 636 1040 l 1
 941 1040 l 1
 941 720 l 1
 636 720 l 5
 636 440 l 6
 636 340 684 290 774 290 c 4
 834 290 909 313 941 345 c 5
 1032 22 l 5
 976 -2 891 -30 770 -30 c 4
 410 -30 276 160 276 440 c 6
 276 720 l 5
 24 720 l 1
 24 1028 l 1
 96 1028 l 1
EndSplineSet
Substitution2: "sous-table 'smcp' Bas-de-casse vers petites capitales dans Latin lookup 0" t.sc
Substitution2: "'ss06' f ligatures lookups0-1" t.ss06
Colour: ff00
EndChar

StartChar: v
Encoding: 118 118 14
Width: 1232
VWidth: 1000
Flags: HMW
AnchorPoint: "bottom_center" 616 0 basechar 0
AnchorPoint: "top_center" 616 1040 basechar 0
LayerCount: 3
Fore
SplineSet
624 404 m 1
 784 1040 l 1
 1168 1040 l 1
 813 0 l 1
 419 0 l 1
 64 1040 l 1
 448 1040 l 1
 624 404 l 1
EndSplineSet
Substitution2: "sous-table 'smcp' Bas-de-casse vers petites capitales dans Latin lookup 0" v.sc
Colour: ff00
EndChar

StartChar: w
Encoding: 119 119 15
Width: 1890
VWidth: 1000
Flags: HMW
AnchorPoint: "bottom_center" 940 0 basechar 0
AnchorPoint: "top_center" 940 1040 basechar 0
LayerCount: 3
Fore
SplineSet
358 0 m 1
 64 1040 l 1
 444 1040 l 1
 589 440 l 1
 760 1040 l 1
 1120 1040 l 1
 1301 440 l 1
 1446 1040 l 1
 1826 1040 l 1
 1532 0 l 1
 1100 0 l 1
 940 540 l 1
 780 0 l 1
 358 0 l 1
EndSplineSet
Substitution2: "sous-table 'smcp' Bas-de-casse vers petites capitales dans Latin lookup 0" w.sc
Colour: ff00
EndChar

StartChar: x
Encoding: 120 120 16
Width: 1270
Flags: HMW
AnchorPoint: "bottom_center" 635 0 basechar 0
AnchorPoint: "top_center" 635 1040 basechar 0
LayerCount: 3
Fore
SplineSet
378 520 m 5
 64 1040 l 5
 481 1040 l 5
 635 743 l 5
 786 1040 l 5
 1206 1040 l 5
 892 520 l 5
 1206 0 l 5
 786 0 l 5
 633 300 l 5
 484 0 l 5
 64 0 l 5
 378 520 l 5
EndSplineSet
Substitution2: "sous-table 'smcp' Bas-de-casse vers petites capitales dans Latin lookup 0" x.sc
Colour: ff00
EndChar

StartChar: y
Encoding: 121 121 17
Width: 1274
VWidth: 1000
Flags: HMW
AnchorPoint: "bottom_center" 403 -360 basechar 0
AnchorPoint: "top_center" 658 1040 basechar 0
LayerCount: 3
Back
SplineSet
691 680 m 1
 880 680 l 1
 515 -360 l 1
 331 -360 l 1
 691 680 l 1
EndSplineSet
Fore
SplineSet
801 -158 m 1
 719 -384 610 -470 331 -470 c 0
 210 -470 120 -439 64 -415 c 1
 160 -95 l 1
 192 -127 271 -150 331 -150 c 0
 391 -150 445 -107 460 -44 c 1
 472 0 l 5
 106 1040 l 5
 490 1040 l 5
 666 404 l 5
 826 1040 l 5
 1210 1040 l 5
 855 0 l 5
 801 -158 l 1
EndSplineSet
Substitution2: "sous-table 'smcp' Bas-de-casse vers petites capitales dans Latin lookup 0" y.sc
Colour: ff00
EndChar

StartChar: l
Encoding: 108 108 20
Width: 710
Flags: HMW
AnchorPoint: "bottom_center" 397 0 basechar 0
AnchorPoint: "top_center" 296 1380 basechar 0
LayerCount: 3
Fore
SplineSet
606 306 m 5
 706 14 l 5
 680 1 632 -30 544 -30 c 4
 360 -30 116 62 116 362 c 6
 116 440 l 1
 116 578 l 1
 116 1480 l 1
 476 1480 l 1
 476 578 l 1
 476 440 l 1
 476 362 l 6
 476 312 492 290 544 290 c 4
 563 290 593 297 606 306 c 5
EndSplineSet
Substitution2: "sous-table 'smcp' Bas-de-casse vers petites capitales dans Latin lookup 0" l.sc
Substitution2: "'ss06' f ligatures lookups0-1" l.ss06
Colour: ff00
EndChar

StartChar: k
Encoding: 107 107 21
Width: 1208
Flags: HMW
AnchorPoint: "bottom_center" 630 0 basechar 0
AnchorPoint: "top_center" 296 1380 basechar 0
LayerCount: 3
Fore
SplineSet
331 643 m 1
 728 660 l 1
 1204 0 l 1
 784 0 l 1
 331 643 l 1
476 344 m 1
 476 0 l 1
 116 0 l 1
 116 1480 l 1
 476 1480 l 1
 476 808 l 1
 708 1040 l 1
 780 1040 1100 1040 1172 1040 c 1
 476 344 l 1
EndSplineSet
Substitution2: "sous-table 'smcp' Bas-de-casse vers petites capitales dans Latin lookup 0" k.sc
Colour: ff00
EndChar

StartChar: s
Encoding: 115 115 22
Width: 1134
VWidth: 1000
Flags: HMW
AnchorPoint: "top_center" 563 1040 basechar 0
AnchorPoint: "bottom_center" 563 0 basechar 0
AnchorPoint: "bottom_right" 784 0 basechar 0
LayerCount: 3
Fore
SplineSet
563 1070 m 0
 843 1070 983 931 1029 775 c 1
 682 685 l 0
 682 705 663 750 563 750 c 0
 493 750 474 735 474 715 c 0
 474 695 504 675 563 663 c 0
 856 601 1050 566 1050 326 c 0
 1050 86 839 -30 563 -30 c 0
 324 -30 132 85 84 265 c 1
 436 356 l 0
 436 326 473 290 563 290 c 0
 653 290 690 296 690 326 c 0
 690 356 622 371 563 383 c 0
 283 442 114 515 114 715 c 0
 114 915 283 1070 563 1070 c 0
EndSplineSet
Substitution2: "sous-table 'smcp' Bas-de-casse vers petites capitales dans Latin lookup 0" s.sc
Colour: ff00
EndChar

StartChar: a
Encoding: 97 97 23
Width: 1306
VWidth: 1000
Flags: HMW
AnchorPoint: "top_right" 1140 1040 basechar 0
AnchorPoint: "bottom_center" 612 0 basechar 0
AnchorPoint: "top_center" 652 1040 basechar 0
AnchorPoint: "bottom_right" 1176 0 basechar 0
LayerCount: 3
Fore
SplineSet
564 -30 m 4
 258 -30 84 135 84 335 c 0
 84 535 306 680 612 680 c 0
 882 680 1032 545 1032 345 c 1
 1032 145 874 -30 564 -30 c 4
780 345 m 0
 780 385 712 400 612 400 c 0
 512 400 444 385 444 345 c 0
 444 305 512 290 612 290 c 0
 712 290 780 305 780 345 c 0
1140 377 m 2
 1140 317 1176 258 1248 258 c 9
 1168 -30 l 1
 902 -10 780 182 780 247 c 9
 810 266 l 25
 810 428 l 25
 780 450 l 25
 780 658 l 17
 780 718 744 761 612 761 c 0
 386 761 296 695 296 695 c 1
 132 966 l 1
 132 966 326 1080 612 1080 c 0
 907 1080 1140 978 1140 628 c 1
 1140 377 l 2
EndSplineSet
Substitution2: "sous-table 'smcp' Bas-de-casse vers petites capitales dans Latin lookup 0" a.sc
Substitution2: "'ss04' Simplified a and g lookups0-1" a.ss04
Colour: ff00
EndChar

StartChar: g
Encoding: 103 103 24
Width: 1230
VWidth: 997
Flags: HMW
AnchorPoint: "bottom_center" 588 -361 basechar 0
AnchorPoint: "top_center" 588 1040 basechar 0
LayerCount: 4
Fore
SplineSet
742 980 m 5
 777 1041 866 1120 1016 1120 c 4
 1087 1120 1150 1108 1206 1084 c 5
 1099 741 l 5
 1061 780 1003 800 920 800 c 4
 790 800 754 742 754 632 c 13
 742 980 l 5
588 520 m 4
 588 280 l 4
 493 280 438 275 438 260 c 4
 438 245 458 240 588 240 c 4
 588 -80 l 4
 340 -80 133 30 133 240 c 4
 133 440 420 520 588 520 c 4
1206 -100 m 4
 1206 -320 1021 -470 588 -470 c 4
 155 -470 24 -315 24 -114 c 4
 24 107 306 160 588 160 c 4
 588 -20 l 4
 438 -20 384 -58 384 -95 c 4
 384 -132 443 -150 588 -150 c 4
 733 -150 846 -150 846 -110 c 4
 846 -80 734 -80 588 -80 c 4
 588 240 l 4
 1013 240 1206 100 1206 -100 c 4
492 675 m 4
 492 627 528 600 588 600 c 4
 648 600 684 627 684 675 c 4
 684 723 648 750 588 750 c 4
 528 750 492 723 492 675 c 4
132 675 m 4
 132 894 325 1070 588 1070 c 4
 851 1070 1044 894 1044 675 c 4
 1044 456 851 280 588 280 c 4
 325 280 132 456 132 675 c 4
EndSplineSet
Layer: 2
SplineSet
520 -460 m 4
 880 -460 1035 -330 1035 -150 c 4
 1035 30 880 160 520 160 c 4
 200 160 50 10 50 -150 c 4
 50 -310 160 -460 520 -460 c 4
520 0 m 4
 768 0 855 -50 855 -150 c 4
 855 -250 768 -300 520 -300 c 4
 272 -300 230 -225 230 -150 c 4
 230 -75 272 0 520 0 c 4
320 680 m 4
 320 560 400 460 520 460 c 4
 640 460 720 560 720 680 c 4
 720 800 640 900 520 900 c 4
 400 900 320 800 320 680 c 4
140 680 m 4
 140 899 301 1060 520 1060 c 4
 739 1060 900 899 900 680 c 4
 900 461 739 300 520 300 c 4
 301 300 140 461 140 680 c 4
EndSplineSet
Layer: 3
SplineSet
604.309570312 967.537109375 m 5
 677.329101562 1023.9375 761.196289062 1060 861 1060 c 4
 929 1060 984 1049 1035 1028 c 5
 987 849 l 5
 944 883 892 900 821 900 c 4
 773.765625 900 733.5546875 892.494140625 699.93359375 877.462890625 c 5
 604.309570312 967.537109375 l 5
520 160 m 4
 520 0 l 4
 280 0 140 70 140 230 c 4
 140 390 280 460 520 460 c 4
 520 300 l 4
 362 300 320 270 320 230 c 4
 320 190 362 160 520 160 c 4
EndSplineSet
Substitution2: "sous-table 'smcp' Bas-de-casse vers petites capitales dans Latin lookup 0" g.sc
Substitution2: "'ss04' Simplified a and g lookups0-1" g.ss04
Colour: ff00
EndChar

StartChar: z
Encoding: 122 122 25
Width: 1124
Flags: HMW
AnchorPoint: "bottom_center" 562 0 basechar 0
AnchorPoint: "top_center" 562 1040 basechar 0
LayerCount: 3
Fore
SplineSet
116 1040 m 5
 1008 1040 l 5
 1008 752 l 5
 594 720 l 5
 116 720 l 5
 116 1040 l 5
1004 320 m 5
 1004 0 l 5
 116 0 l 5
 116 288 l 5
 530 320 l 5
 1004 320 l 5
590 320 m 5
 116 288 l 5
 534 720 l 5
 1008 752 l 5
 590 320 l 5
EndSplineSet
Substitution2: "sous-table 'smcp' Bas-de-casse vers petites capitales dans Latin lookup 0" z.sc
Colour: ff00
EndChar

StartChar: A
Encoding: 65 65 27
Width: 1588
VWidth: 1000
Flags: HMW
AnchorPoint: "bottom_ypogegrammeni" 798 -90 basechar 0
AnchorPoint: "top_left" 556 1480 basechar 0
AnchorPoint: "bottom_center" 798 0 basechar 0
AnchorPoint: "top_center" 798 1380 basechar 0
AnchorPoint: "bottom_right" 1524 0 basechar 0
LayerCount: 4
Fore
SplineSet
345 688 m 1
 1216 688 l 1
 1216 352 l 1
 345 352 l 1
 345 688 l 1
798 1080 m 1
 456 0 l 1
 64 0 l 1
 556 1480 l 1
 1032 1480 l 1
 1524 0 l 1
 1132 0 l 1
 798 1080 l 1
EndSplineSet
Substitution2: "sous-table 'c2sc' Capitales vers petites capitales dans Latin lookup 0" a.sc
Colour: ffff
EndChar

StartChar: V
Encoding: 86 86 28
Width: 1588
VWidth: 1000
Flags: HMW
AnchorPoint: "bottom_center" 794 0 basechar 0
AnchorPoint: "top_center" 794 1380 basechar 0
LayerCount: 4
Fore
SplineSet
802 400 m 1
 1132 1480 l 1
 1524 1480 l 1
 1032 0 l 1
 556 0 l 1
 64 1480 l 1
 456 1480 l 1
 802 400 l 1
EndSplineSet
Layer: 2
SplineSet
596 0 m 5
 235 1040 l 5
 421 1040 l 5
 689 224 l 5
 957 1040 l 5
 1143 1040 l 5
 782 0 l 5
 596 0 l 5
EndSplineSet
Substitution2: "sous-table 'c2sc' Capitales vers petites capitales dans Latin lookup 0" v.sc
Colour: ffff
EndChar

StartChar: H
Encoding: 72 72 29
Width: 1574
Flags: HMW
AnchorPoint: "top_center" 789 1362 basechar 0
AnchorPoint: "bottom_center" 789 -18 basechar 0
AnchorPoint: "top_left" 116 1480 basechar 0
AnchorPoint: "bottom_cedilla" 306 -38 basechar 0
AnchorPoint: "bottom_ypogegrammeni" 789 -108 basechar 0
LayerCount: 4
Fore
SplineSet
116 1480 m 29
 496 1480 l 29
 496 908 l 29
 1078 908 l 29
 1078 1480 l 29
 1458 1480 l 29
 1458 0 l 29
 1078 0 l 29
 1078 572 l 29
 496 572 l 29
 496 0 l 29
 116 0 l 29
 116 1480 l 29
EndSplineSet
Substitution2: "sous-table 'c2sc' Capitales vers petites capitales dans Latin lookup 0" h.sc
Colour: ffff
EndChar

StartChar: O
Encoding: 79 79 30
Width: 1688
Flags: HMW
AnchorPoint: "top_center" 844 1380 basechar 0
AnchorPoint: "top_right" 1458 1480 basechar 0
AnchorPoint: "bottom_center" 844 -4.926e-05 basechar 0
AnchorPoint: "bottom_right" 1076 -4.926e-05 basechar 0
AnchorPoint: "top_left_O1" 612 1480 basechar 0
AnchorPoint: "top_left_O2" 233 1224 basechar 0
LayerCount: 4
Fore
SplineSet
464 740 m 4
 464 490 594 306 844 306 c 4
 1094 306 1224 490 1224 740 c 4
 1224 990 1094 1174 844 1174 c 4
 594 1174 464 990 464 740 c 4
84 740 m 4
 84 1190 384 1510 844 1510 c 4
 1304 1510 1604 1190 1604 740 c 4
 1604 290 1304 -30 844 -30 c 4
 384 -30 84 290 84 740 c 4
EndSplineSet
Substitution2: "sous-table 'c2sc' Capitales vers petites capitales dans Latin lookup 0" o.sc
Colour: ffff
EndChar

StartChar: E
Encoding: 69 69 31
Width: 1346
Flags: HMW
AnchorPoint: "bottom_cedilla" 673 -20 basechar 0
AnchorPoint: "top_left" 116 1480 basechar 0
AnchorPoint: "bottom_right" 1230 0 basechar 0
AnchorPoint: "bottom_center" 673 0 basechar 0
AnchorPoint: "top_center" 673 1380 basechar 0
LayerCount: 4
Fore
SplineSet
1116 908 m 21
 1116 572 l 9
 496 572 l 17
 496 336 l 1
 1230 336 l 1
 1230 0 l 5
 116 0 l 29
 116 1480 l 5
 1230 1480 l 21
 1230 1144 l 5
 496 1144 l 5
 496 908 l 13
 1116 908 l 21
EndSplineSet
Substitution2: "sous-table 'c2sc' Capitales vers petites capitales dans Latin lookup 0" e.sc
Colour: ffff
EndChar

StartChar: F
Encoding: 70 70 32
Width: 1294
Flags: HMW
AnchorPoint: "top_center" 673 1380 basechar 0
AnchorPoint: "bottom_center" 306 0 basechar 0
LayerCount: 4
Fore
SplineSet
496 219 m 1
 496 0 l 1
 116 0 l 25
 116 1480 l 5
 1230 1480 l 17
 1230 1144 l 1
 496 1144 l 1
 496 908 l 9
 1116 908 l 17
 1116 572 l 9
 496 572 l 17
 496 219 l 1
EndSplineSet
Substitution2: "sous-table 'c2sc' Capitales vers petites capitales dans Latin lookup 0" f.sc
Colour: ffff
EndChar

StartChar: P
Encoding: 80 80 33
Width: 1338
Flags: HMW
AnchorPoint: "top_center" 665 1380 basechar 0
AnchorPoint: "bottom_center" 306 0 basechar 0
AnchorPoint: "top_left" 116 1480 basechar 0
LayerCount: 4
Fore
SplineSet
496 1144 m 29
 496 824 l 29
 683 824 l 21
 803 824 874 874 874 984 c 4
 874 1094 803 1144 683 1144 c 13
 496 1144 l 29
116 0 m 5
 116 1480 l 5
 683 1480 l 5
 1069 1480 1254 1239 1254 984 c 4
 1254 729 1069 488 683 488 c 5
 496 488 l 5
 496 0 l 29
 116 0 l 5
EndSplineSet
Substitution2: "sous-table 'c2sc' Capitales vers petites capitales dans Latin lookup 0" p.sc
Colour: ffff
EndChar

StartChar: N
Encoding: 78 78 34
Width: 1574
Flags: HMW
AnchorPoint: "bottom_center" 788 0 basechar 0
AnchorPoint: "top_center" 788 1380 basechar 0
LayerCount: 4
Fore
SplineSet
480 1480 m 1
 1078 652 l 25
 1078 1480 l 1
 1458 1480 l 25
 1458 0 l 25
 1094 0 l 1
 496 828 l 1
 496 0 l 1
 116 0 l 25
 116 1480 l 1
 480 1480 l 1
EndSplineSet
Substitution2: "sous-table 'c2sc' Capitales vers petites capitales dans Latin lookup 0" n.sc
Colour: ffff
EndChar

StartChar: L
Encoding: 76 76 35
Width: 1346
Flags: HMW
AnchorPoint: "bottom_center" 673 0 basechar 0
AnchorPoint: "top_center" 306 1380 basechar 0
LayerCount: 4
Fore
SplineSet
496 1480 m 1
 496 336 l 1
 1230 336 l 1
 1230 0 l 1
 116 0 l 25
 116 1480 l 1
 496 1480 l 1
EndSplineSet
Substitution2: "sous-table 'c2sc' Capitales vers petites capitales dans Latin lookup 0" l.sc
Colour: ffff
EndChar

StartChar: I
Encoding: 73 73 36
Width: 1016
Flags: HMW
AnchorPoint: "top_center" 508 1380 basechar 0
AnchorPoint: "bottom_center" 508 0 basechar 0
AnchorPoint: "bottom_right" 698 0 basechar 0
AnchorPoint: "top_left" 116 1480 basechar 0
LayerCount: 4
Fore
SplineSet
116 1480 m 29
 900 1480 l 29
 900 1144 l 29
 698 1144 l 29
 698 336 l 29
 900 336 l 29
 900 0 l 29
 116 0 l 29
 116 336 l 29
 318 336 l 29
 318 1144 l 29
 116 1144 l 29
 116 1480 l 29
EndSplineSet
Substitution2: "sous-table 'c2sc' Capitales vers petites capitales dans Latin lookup 0" i.sc
Substitution2: "'ss03' Simplified G and I lookups0-1" I.ss03
Colour: ffff
EndChar

StartChar: D
Encoding: 68 68 37
Width: 1566
Flags: HMW
AnchorPoint: "bottom_cedilla" 643 -20 basechar 0
AnchorPoint: "bottom_center" 738 0 basechar 0
AnchorPoint: "top_center" 738 1380 basechar 0
LayerCount: 4
Fore
SplineSet
496 1144 m 25
 496 336 l 25
 716 336 l 17
 920 336 1102 467 1102 740 c 0
 1102 1013 910 1144 716 1144 c 9
 496 1144 l 25
716 0 m 1
 344 0 l 25
 116 0 l 1
 116 1480 l 1
 716 1480 l 1
 1172 1480 1482 1190 1482 740 c 0
 1482 290 1172 0 716 0 c 1
EndSplineSet
Substitution2: "sous-table 'c2sc' Capitales vers petites capitales dans Latin lookup 0" d.sc
Colour: ffff
EndChar

StartChar: B
Encoding: 66 66 38
Width: 1452
Flags: HMW
AnchorPoint: "bottom_center" 668 0 basechar 0
AnchorPoint: "top_center" 668 1380 basechar 0
LayerCount: 4
Fore
SplineSet
797 1480 m 1
 1121 1480 1291 1280 1291 1060 c 0
 1291 840 1061 656 797 656 c 1
 797 976 l 17
 887 976 911 1012 911 1062 c 0
 911 1112 887 1144 797 1144 c 9
 496 1144 l 1
 496 1480 l 25
 797 1480 l 1
496 336 m 25
 797 336 l 17
 917 336 988 416 988 496 c 0
 988 576 917 656 797 656 c 9
 496 656 l 25
 496 336 l 25
116 1480 m 1
 496 1480 l 25
 496 976 l 1
 797 976 l 1
 1163 976 1368 751 1368 496 c 0
 1368 241 1163 0 797 0 c 1
 116 0 l 1
 116 1480 l 1
EndSplineSet
Layer: 2
SplineSet
613 740 m 5
 613 908 l 21
 738 908 835 987 835 1112 c 4
 835 1237 738 1312 613 1312 c 13
 331 1312 l 5
 331 1480 l 29
 613 1480 l 5
 833 1480 1025 1330 1025 1110 c 4
 1025 890 833 740 613 740 c 5
EndSplineSet
Substitution2: "sous-table 'c2sc' Capitales vers petites capitales dans Latin lookup 0" b.sc
Colour: ffff
EndChar

StartChar: T
Encoding: 84 84 39
Width: 1574
Flags: HMW
AnchorPoint: "bottom_cedilla" 787 -20 basechar 0
AnchorPoint: "bottom_center" 787 0 basechar 0
AnchorPoint: "top_center" 787 1380 basechar 0
LayerCount: 4
Fore
SplineSet
977 0 m 25
 597 0 l 25
 597 1144 l 29
 116 1144 l 29
 116 1480 l 29
 1458 1480 l 29
 1458 1144 l 29
 977 1144 l 29
 977 0 l 25
EndSplineSet
Substitution2: "sous-table 'c2sc' Capitales vers petites capitales dans Latin lookup 0" t.sc
Colour: ffff
EndChar

StartChar: R
Encoding: 82 82 40
Width: 1338
Flags: HMW
AnchorPoint: "bottom_center" 665 0 basechar 0
AnchorPoint: "top_center" 665 1380 basechar 0
LayerCount: 4
Fore
SplineSet
441 643 m 1
 858 660 l 1
 1334 0 l 1
 894 0 l 1
 441 643 l 1
496 1144 m 25
 496 824 l 25
 683 824 l 17
 803 824 874 874 874 984 c 0
 874 1094 803 1144 683 1144 c 9
 496 1144 l 25
116 0 m 1
 116 1480 l 1
 683 1480 l 1
 1069 1480 1254 1239 1254 984 c 0
 1254 729 1069 488 683 488 c 1
 496 488 l 1
 496 0 l 25
 116 0 l 1
EndSplineSet
Layer: 2
SplineSet
938 0 m 5
 1108 0 l 5
 769 634 l 29
 599 634 l 29
 938 0 l 5
EndSplineSet
Substitution2: "sous-table 'c2sc' Capitales vers petites capitales dans Latin lookup 0" r.sc
Colour: ffff
EndChar

StartChar: C
Encoding: 67 67 41
Width: 1603
Flags: HMW
AnchorPoint: "bottom_cedilla" 844 -20 basechar 0
AnchorPoint: "bottom_center" 844 0 basechar 0
AnchorPoint: "top_center" 844 1380 basechar 0
LayerCount: 4
Fore
SplineSet
1194 930 m 5
 1143 1078 1025 1174 844 1174 c 4
 594 1174 464 990 464 740 c 0
 464 490 594 306 844 306 c 0
 1025 306 1143 402 1194 550 c 1
 1519 360 l 1
 1399 120 1159 -30 844 -30 c 0
 384 -30 84 290 84 740 c 0
 84 1190 384 1510 844 1510 c 4
 1159 1510 1399 1360 1519 1120 c 5
 1194 930 l 5
EndSplineSet
Substitution2: "sous-table 'c2sc' Capitales vers petites capitales dans Latin lookup 0" c.sc
Colour: ffff
EndChar

StartChar: G
Encoding: 71 71 42
Width: 1643
Flags: HMW
AnchorPoint: "top_center" 844 1380 basechar 0
AnchorPoint: "bottom_center" 844 0 basechar 0
LayerCount: 4
Fore
SplineSet
1190 930 m 5
 1139 1078 1025 1174 844 1174 c 0
 594 1174 464 990 464 740 c 0
 464 490 594 306 844 306 c 0
 1025 306 1139 402 1190 550 c 5
 1355 360 l 5
 1235 120 1159 -30 844 -30 c 0
 384 -30 84 290 84 740 c 0
 84 1190 384 1510 844 1510 c 0
 1159 1510 1399 1360 1519 1120 c 1
 1190 930 l 5
782 824 m 29
 1527 824 l 29
 1527 0 l 29
 1167 0 l 21
 1167 227 l 5
 1147 253 l 5
 1147 488 l 13
 782 488 l 29
 782 824 l 29
EndSplineSet
Substitution2: "sous-table 'c2sc' Capitales vers petites capitales dans Latin lookup 0" g.sc
Substitution2: "'ss03' Simplified G and I lookups0-1" G.ss03
Colour: ffff
EndChar

StartChar: Q
Encoding: 81 81 43
Width: 1688
Flags: HMW
AnchorPoint: "top_center" 844 1380 basechar 0
AnchorPoint: "bottom_center" 844 0 basechar 0
LayerCount: 4
Fore
SplineSet
464 740 m 0
 464 490 594 306 844 306 c 0
 1094 306 1224 490 1224 740 c 0
 1224 990 1094 1174 844 1174 c 0
 594 1174 464 990 464 740 c 0
84 740 m 0
 84 1190 384 1510 844 1510 c 0
 1304 1510 1604 1190 1604 740 c 0
 1604 290 1304 -30 844 -30 c 0
 384 -30 84 290 84 740 c 0
1604 124 m 1
 1356 -124 l 1
 776 456 l 1
 1024 704 l 1
 1604 124 l 1
EndSplineSet
Layer: 2
SplineSet
1169.31445312 319.685546875 m 5
 972.69921875 516.30078125 l 5
 864.356445312 407.643554688 l 5
 1068 204 l 5
 1177.48144531 94.5185546875 l 5
 1381.125 -109.125 l 5
 1489.78222656 -0.7822265625 l 5
 1293.16699219 195.833007812 l 5
 1169.31445312 319.685546875 l 5
EndSplineSet
Substitution2: "sous-table 'c2sc' Capitales vers petites capitales dans Latin lookup 0" q.sc
Colour: ffff
EndChar

StartChar: U
Encoding: 85 85 44
Width: 1574
Flags: HMW
AnchorPoint: "top_center" 787 1380 basechar 0
AnchorPoint: "top_right" 1458 1480 basechar 0
AnchorPoint: "bottom_center" 787 0 basechar 0
AnchorPoint: "bottom_right" 1019 0 basechar 0
LayerCount: 4
Fore
SplineSet
496 1480 m 25
 496 600 l 17
 496 390 637 306 787 306 c 0
 937 306 1078 390 1078 600 c 9
 1078 1480 l 25
 1458 1480 l 25
 1458 600 l 17
 1458 240 1219 -30 787 -30 c 0
 355 -30 116 240 116 600 c 9
 116 1480 l 25
 496 1480 l 25
EndSplineSet
Substitution2: "sous-table 'c2sc' Capitales vers petites capitales dans Latin lookup 0" u.sc
Colour: ffff
EndChar

StartChar: M
Encoding: 77 77 45
Width: 1802
VWidth: 1000
Flags: HMW
AnchorPoint: "bottom_center" 895 0 basechar 0
AnchorPoint: "top_center" 895 1380 basechar 0
LayerCount: 4
Fore
SplineSet
895 720 m 1
 1322 1480 l 1
 1560 1188 l 1
 984 160 l 1
 806 160 l 1
 233 1188 l 1
 480 1480 l 1
 895 720 l 1
1686 1480 m 1
 1686 0 l 1
 1306 0 l 1
 1306 1322 l 1
 1322 1480 l 1
 1686 1480 l 1
116 1480 m 1
 480 1480 l 1
 496 1275 l 1
 496 0 l 1
 116 0 l 1
 116 1480 l 1
EndSplineSet
Substitution2: "sous-table 'c2sc' Capitales vers petites capitales dans Latin lookup 0" m.sc
Colour: ffff
EndChar

StartChar: Z
Encoding: 90 90 46
Width: 1466
VWidth: 1000
Flags: HMW
AnchorPoint: "bottom_center" 733 0 basechar 0
AnchorPoint: "top_center" 736 1380 basechar 0
LayerCount: 4
Fore
SplineSet
299 0 m 1
 116 302 l 1
 1167 1480 l 1
 1350 1176 l 1
 299 0 l 1
539 336 m 1
 1350 336 l 1
 1350 0 l 1
 906 0 560 0 116 0 c 1
 116 302 l 1
 539 336 l 1
140 1480 m 1
 584 1480 906 1480 1350 1480 c 1
 1350 1176 l 1
 937 1144 l 1
 140 1144 l 1
 140 1480 l 1
EndSplineSet
Layer: 2
SplineSet
859 900 m 1
 313 140 l 1
 859 140 l 1
 859 0 l 1
 140 0 l 1
 140 140 l 1
 686 900 l 1
 140 900 l 1
 140 1040 l 1
 859 1040 l 1
 859 900 l 1
EndSplineSet
Substitution2: "sous-table 'c2sc' Capitales vers petites capitales dans Latin lookup 0" z.sc
Colour: ffff
EndChar

StartChar: X
Encoding: 88 88 47
Width: 1630
VWidth: 1000
Flags: HMW
AnchorPoint: "bottom_center" 815 0 basechar 0
AnchorPoint: "top_center" 815 1380 basechar 0
LayerCount: 4
Fore
SplineSet
813 487 m 5
 492 0 l 1
 64 0 l 1
 591 740 l 5
 64 1480 l 1
 492 1480 l 1
 815 988 l 5
 1138 1480 l 5
 1566 1480 l 5
 1039 740 l 5
 1566 0 l 5
 1138 0 l 5
 813 487 l 5
EndSplineSet
Substitution2: "sous-table 'c2sc' Capitales vers petites capitales dans Latin lookup 0" x.sc
Colour: ffff
EndChar

StartChar: Y
Encoding: 89 89 48
Width: 1630
VWidth: 1000
Flags: HMW
AnchorPoint: "top_center" 815 1380 basechar 0
AnchorPoint: "bottom_center" 815 0 basechar 0
AnchorPoint: "top_left" 100 1480 basechar 0
LayerCount: 4
Back
SplineSet
700 617.358398438 m 1
 1110 0 l 1
 1326 0 l 1
 836 740 l 1
 1326 1480 l 1
 1110 1480 l 1
 702 858 l 1
 286 1480 l 1
 70 1480 l 1
 577 740 l 1
 69 0 l 1
 286 0 l 1
 700 617.358398438 l 1
EndSplineSet
Fore
SplineSet
625 0 m 29
 625 834 l 29
 1005 834 l 29
 1005 0 l 29
 625 0 l 29
818 426 m 5
 709 578 l 5
 64 1480 l 5
 492 1480 l 5
 815 988 l 5
 1138 1480 l 5
 1566 1480 l 5
 818 426 l 5
EndSplineSet
Substitution2: "sous-table 'c2sc' Capitales vers petites capitales dans Latin lookup 0" y.sc
Colour: ffff
EndChar

StartChar: W
Encoding: 87 87 49
Width: 2340
VWidth: 1000
Flags: HMW
AnchorPoint: "bottom_center" 1170 0 basechar 0
AnchorPoint: "top_center" 1170 1380 basechar 0
LayerCount: 4
Fore
SplineSet
1644 560 m 1
 1884 1480 l 1
 2276 1480 l 1
 1851 0 l 1
 1478 0 l 1
 1170 910 l 1
 862 0 l 1
 489 0 l 1
 64 1480 l 1
 456 1480 l 1
 696 560 l 1
 1003 1480 l 1
 1337 1480 l 1
 1644 560 l 1
EndSplineSet
Substitution2: "sous-table 'c2sc' Capitales vers petites capitales dans Latin lookup 0" w.sc
Colour: ffff
EndChar

StartChar: J
Encoding: 74 74 50
Width: 1365
VWidth: 1000
Flags: HMW
AnchorPoint: "bottom_center" 663 0 basechar 0
AnchorPoint: "top_center" 1059 1380 basechar 0
LayerCount: 4
Fore
SplineSet
471 569 m 5
 471 569 464 543 464 485 c 4
 464 385 548 306 663 306 c 0
 778 306 869 385 869 485 c 0
 869 1480 l 1
 1249 1480 l 1
 1249 485 l 2
 1249 165 999 -30 663 -30 c 0
 327 -30 84 165 84 485 c 4
 471 569 l 5
EndSplineSet
Substitution2: "sous-table 'c2sc' Capitales vers petites capitales dans Latin lookup 0" j.sc
Colour: ffff
EndChar

StartChar: K
Encoding: 75 75 51
Width: 1508
Flags: HMW
AnchorPoint: "bottom_center" 787 0 basechar 0
AnchorPoint: "top_center" 787 1380 basechar 0
LayerCount: 4
Back
SplineSet
1239 0 m 1
 1047 0 l 1
 34 1480 l 1
 226 1480 l 1
 1239 0 l 1
EndSplineSet
Fore
SplineSet
499 801 m 1
 838 925 l 1
 1504 0 l 1
 1064 0 l 1
 499 801 l 1
496 450 m 1
 496 0 l 1
 116 0 l 1
 116 1480 l 1
 496 1480 l 1
 496 940 l 1
 1024 1480 l 1
 1096 1480 1432 1480 1504 1480 c 1
 496 450 l 1
EndSplineSet
Substitution2: "sous-table 'c2sc' Capitales vers petites capitales dans Latin lookup 0" k.sc
Colour: ffff
EndChar

StartChar: S
Encoding: 83 83 52
Width: 1395
VWidth: 1000
Flags: HMW
AnchorPoint: "bottom_center" 696 0 basechar 0
AnchorPoint: "top_center" 696 1380 basechar 0
LayerCount: 4
Fore
SplineSet
696 1174 m 0
 556 1174 492 1132 492 1052 c 0
 492 992 590 973 696 945 c 0
 1063 847 1311 725 1311 445 c 0
 1311 165 1106 -30 696 -30 c 0
 391 -30 127 91 84 361 c 1
 457 461 l 0
 457 361 546 306 696 306 c 0
 846 306 931 355 931 445 c 0
 931 535 802 549 696 577 c 0
 348 670 112 792 112 1052 c 0
 112 1312 326 1510 696 1510 c 0
 1001 1510 1240 1394 1283 1124 c 1
 910 1024 l 0
 910 1124 836 1174 696 1174 c 0
EndSplineSet
Substitution2: "sous-table 'c2sc' Capitales vers petites capitales dans Latin lookup 0" s.sc
Colour: ffff
EndChar

StartChar: eight
Encoding: 56 56 53
Width: 1370
VWidth: 1000
Flags: HMW
LayerCount: 4
Back
SplineSet
338 1094 m 0
 338 1231 440 1332 615 1332 c 0
 790 1332 892 1231 892 1094 c 0
 892 957 790 856 615 856 c 4
 440 856 338 957 338 1094 c 0
148 1098 m 0
 148 875 340 696 615 696 c 4
 890 696 1082 875 1082 1098 c 0
 1082 1321 890 1500 615 1500 c 0
 340 1500 148 1321 148 1098 c 0
295 422 m 4
 295 578 415 696 615 696 c 4
 815 696 937 578 937 422 c 4
 937 266 815 148 615 148 c 4
 415 148 295 266 295 422 c 4
105 418 m 4
 105 175 315 -20 615 -20 c 4
 915 -20 1127 175 1127 418 c 4
 1127 661 915 856 615 856 c 4
 315 856 105 661 105 418 c 4
EndSplineSet
Fore
SplineSet
72 453 m 0
 72 694 289 781 289 781 c 1
 289 781 123 834 123 1063 c 0
 123 1346 354 1510 684 1510 c 0
 1014 1510 1244 1346 1244 1063 c 0
 1244 834 1078 781 1078 781 c 1
 1078 781 1298 695 1298 453 c 0
 1298 120 1044 -30 684 -30 c 0
 324 -30 72 120 72 453 c 0
503 1055 m 0
 503 975 559 936 684 936 c 0
 809 936 864 975 864 1055 c 0
 864 1135 809 1174 684 1174 c 0
 559 1174 503 1135 503 1055 c 0
684 616 m 0
 534 616 452 561 452 461 c 0
 452 361 534 306 684 306 c 0
 834 306 918 361 918 461 c 0
 918 561 834 616 684 616 c 0
EndSplineSet
Substitution2: "'ss02' Alternative numbers set 2 lookups0-1" eight.cv18
Substitution2: "'ss01' Alternative numbers set 1 lookups0-1" eight.cv08
Substitution2: "sous-table 'sups' Exposant lookups0" eight.superior
Substitution2: "'cv18' Alternative digit 8 2-1" eight.cv18
Substitution2: "'cv08' Alternative digit 8 1-1" eight.cv08
Substitution2: "'dnom' D+AOkA-nominateurs lookups0-1" eight.dnom
Substitution2: "sous-table 'subs' Indice lookups0" eight.subscript
Substitution2: "'numr' Numerators lookups0-1" eight.numr
Substitution2: "'tnum' Tabular Numbers lookups0-1" eight.tnum
Substitution2: "'onum' Oldstyle Figures lookups0-1" eight.onum
Substitution2: "'pnum' Proportional Numbers lookups0-1" eight.pnum
Colour: ffff
EndChar

StartChar: six
Encoding: 54 54 54
Width: 1370
VWidth: 1000
Flags: HMW
LayerCount: 4
Fore
SplineSet
832 1510 m 4
 1074 1510 1256 1370 1256 1370 c 1
 1098 1077 l 1
 1098 1077 1005 1174 745 1174 c 0
 615 1174 429 1046 429 716 c 0
 429 486 544 282 544 282 c 1
 220 194 l 1
 220 194 72 376 72 696 c 0
 72 1206 350 1510 832 1510 c 4
482 491 m 0
 482 371 580 306 700 306 c 0
 820 306 918 371 918 491 c 0
 918 611 820 676 700 676 c 0
 580 676 482 611 482 491 c 0
128 491 m 1
 173 491 l 1
 173 614 351 1012 700 1012 c 0
 1049 1012 1298 802 1298 491 c 0
 1298 180 1049 -30 700 -30 c 0
 351 -30 128 200 128 491 c 1
EndSplineSet
Substitution2: "'ss02' Alternative numbers set 2 lookups0-1" six.cv16
Substitution2: "'ss01' Alternative numbers set 1 lookups0-1" six.cv06
Substitution2: "'pnum' Proportional Numbers lookups0-1" six.pnum
Substitution2: "sous-table 'sups' Exposant lookups0" six.superior
Substitution2: "'cv16' Alternative digit 6 2-1" six.cv16
Substitution2: "'cv06' Alternative digit 6 1-1" six.cv06
Substitution2: "'dnom' D+AOkA-nominateurs lookups0-1" six.dnom
Substitution2: "sous-table 'subs' Indice lookups0" six.subscript
Substitution2: "'numr' Numerators lookups0-1" six.numr
Substitution2: "'tnum' Tabular Numbers lookups0-1" six.tnum
Substitution2: "'onum' Oldstyle Figures lookups0-1" six.onum
Colour: ffff
EndChar

StartChar: nine
Encoding: 57 57 55
Width: 1370
VWidth: 1000
Flags: HMW
LayerCount: 4
Fore
SplineSet
538 -30 m 4
 296 -30 114 110 114 110 c 1
 272 403 l 1
 272 403 365 306 625 306 c 0
 755 306 941 434 941 764 c 0
 941 994 826 1198 826 1198 c 1
 1150 1286 l 1
 1150 1286 1298 1104 1298 784 c 0
 1298 274 1020 -30 538 -30 c 4
888 989 m 0
 888 1109 790 1174 670 1174 c 0
 550 1174 452 1109 452 989 c 0
 452 869 550 804 670 804 c 0
 790 804 888 869 888 989 c 0
1242 989 m 1
 1197 989 l 1
 1197 866 1019 468 670 468 c 0
 321 468 72 678 72 989 c 0
 72 1300 321 1510 670 1510 c 0
 1019 1510 1242 1280 1242 989 c 1
EndSplineSet
Substitution2: "'ss02' Alternative numbers set 2 lookups0-1" nine.cv19
Substitution2: "'ss01' Alternative numbers set 1 lookups0-1" nine.cv09
Substitution2: "sous-table 'sups' Exposant lookups0" nine.superior
Substitution2: "'cv19' Alternative digit 9 2-1" nine.cv19
Substitution2: "'cv09' Alternative digit 9 1-1" nine.cv09
Substitution2: "'dnom' D+AOkA-nominateurs lookups0-1" nine.dnom
Substitution2: "sous-table 'subs' Indice lookups0" nine.subscript
Substitution2: "'numr' Numerators lookups0-1" nine.numr
Substitution2: "'tnum' Tabular Numbers lookups0-1" nine.tnum
Substitution2: "'onum' Oldstyle Figures lookups0-1" nine.onum
Substitution2: "'pnum' Proportional Numbers lookups0-1" nine.pnum
Colour: ffff
EndChar

StartChar: three
Encoding: 51 51 56
Width: 1370
VWidth: 1000
Flags: HMW
LayerCount: 4
Fore
SplineSet
684 936 m 30
 769 936 864 970 864 1050 c 4
 864 1130 809 1174 684 1174 c 4
 559 1174 496 1130 496 1050 c 4
 125 1150 l 5
 170 1377 392 1510 684 1510 c 4
 1014 1510 1244 1341 1244 1058 c 4
 1244 829 1078 781 1078 781 c 5
 1078 781 1298 695 1298 453 c 4
 1298 120 1044 -30 684 -30 c 4
 389 -30 115 91 72 361 c 5
 445 461 l 4
 445 361 534 306 684 306 c 4
 834 306 918 361 918 461 c 4
 918 561 834 616 684 616 c 6
 570 616 l 21
 570 936 l 13
 684 936 l 30
EndSplineSet
Substitution2: "'ss02' Alternative numbers set 2 lookups0-1" three.cv13
Substitution2: "'ss01' Alternative numbers set 1 lookups0-1" three.cv03
Substitution2: "'pnum' Proportional Numbers lookups0-1" three.pnum
Substitution2: "sous-table 'sups' Exposant lookups0" three.superior
Substitution2: "'cv13' Alternative digit 3 2-1" three.cv13
Substitution2: "'cv03' Alternative digit 3 1-1" three.cv03
Substitution2: "'onum' Oldstyle Figures lookups0-1" three.onum
Substitution2: "'tnum' Tabular Numbers lookups0-1" three.tnum
Substitution2: "'numr' Numerators lookups0-1" three.numr
Substitution2: "sous-table 'subs' Indice lookups0" three.subscript
Substitution2: "'dnom' D+AOkA-nominateurs lookups0-1" three.dnom
Colour: ffff
EndChar

StartChar: zero
Encoding: 48 48 57
Width: 1370
Flags: HMW
LayerCount: 4
Fore
SplineSet
452 740 m 4
 452 445 552 306 685 306 c 0
 818 306 918 445 918 740 c 0
 918 1035 818 1174 685 1174 c 4
 552 1174 452 1035 452 740 c 4
72 740 m 4
 72 1240 325 1510 685 1510 c 4
 1045 1510 1298 1240 1298 740 c 0
 1298 240 1045 -30 685 -30 c 0
 325 -30 72 240 72 740 c 4
EndSplineSet
Substitution2: "'ss02' Alternative numbers set 2 lookups0-1" zero.cv20
Substitution2: "'ss01' Alternative numbers set 1 lookups0-1" zero.cv10
Substitution2: "'pnum' Proportional Numbers lookups0-1" zero.pnum
Substitution2: "sous-table 'subs' Indice lookups0" zero.subscript
Substitution2: "'cv20' Alternative digit 0 2-1" zero.cv20
Substitution2: "'cv10' Alternative digit 0 1-1" zero.cv10
Substitution2: "'zero' Slashed Zero lookups0-1" zero.zero
Substitution2: "'onum' Oldstyle Figures lookups0-1" zero.onum
Substitution2: "'tnum' Tabular Numbers lookups0-1" zero.tnum
Substitution2: "'numr' Numerators lookups0-1" zero.numr
Substitution2: "'dnom' D+AOkA-nominateurs lookups0-1" zero.dnom
Substitution2: "sous-table 'sups' Exposant lookups0" zero.superior
Colour: ffff
EndChar

StartChar: two
Encoding: 50 50 58
Width: 1370
VWidth: 1000
Flags: HMW
LayerCount: 4
Fore
SplineSet
494 906 m 1
 107 990 l 0
 107 1310 353 1510 689 1510 c 0
 1025 1510 1271 1310 1271 1030 c 0
 891 1030 l 0
 891 1120 784 1174 689 1174 c 0
 574 1174 487 1090 487 990 c 0
 487 932 494 906 494 906 c 1
90 0 m 1
 90 160 130 465 689 788 c 0
 869 892 891 950 891 1030 c 1
 1271 1030 l 1
 1271 739 1066 628 789 468 c 0
 529 318 470 90 470 0 c 1
 403 0 157 0 90 0 c 1
370 336 m 1
 1280 336 l 1
 1280 0 l 1
 470 0 l 5
 370 336 l 1
EndSplineSet
Substitution2: "'ss02' Alternative numbers set 2 lookups0-1" two.cv12
Substitution2: "'ss01' Alternative numbers set 1 lookups0-1" two.cv02
Substitution2: "'pnum' Proportional Numbers lookups0-1" two.pnum
Substitution2: "sous-table 'sups' Exposant lookups0" two.superior
Substitution2: "'cv12' Alternative digit 2 2-1" two.cv12
Substitution2: "'cv02' Alternative digit 2 1-1" two.cv02
Substitution2: "'dnom' D+AOkA-nominateurs lookups0-1" two.dnom
Substitution2: "sous-table 'subs' Indice lookups0" two.subscript
Substitution2: "'onum' Oldstyle Figures lookups0-1" two.onum
Substitution2: "'tnum' Tabular Numbers lookups0-1" two.tnum
Substitution2: "'numr' Numerators lookups0-1" two.numr
Colour: ffff
EndChar

StartChar: seven
Encoding: 55 55 59
Width: 1370
Flags: HMW
LayerCount: 4
Fore
SplineSet
818 1144 m 1
 1274 1172 l 1
 1274 1172 756 837 668 0 c 1
 597 0 359 0 288 0 c 1
 372 840 818 1144 818 1144 c 1
96 1144 m 1
 96 1480 l 1
 1274 1480 l 1
 1274 1172 l 1
 818 1144 l 1
 96 1144 l 1
EndSplineSet
Substitution2: "'ss02' Alternative numbers set 2 lookups0-1" seven.cv17
Substitution2: "'ss01' Alternative numbers set 1 lookups0-1" seven.cv07
Substitution2: "'pnum' Proportional Numbers lookups0-1" seven.pnum
Substitution2: "sous-table 'sups' Exposant lookups0" seven.superior
Substitution2: "'cv17' Alternative digit 7 2-1" seven.cv17
Substitution2: "'cv07' Alternative digit 7 1-1" seven.cv07
Substitution2: "'dnom' D+AOkA-nominateurs lookups0-1" seven.dnom
Substitution2: "sous-table 'subs' Indice lookups0" seven.subscript
Substitution2: "'numr' Numerators lookups0-1" seven.numr
Substitution2: "'tnum' Tabular Numbers lookups0-1" seven.tnum
Substitution2: "'onum' Oldstyle Figures lookups0-1" seven.onum
Colour: ffff
EndChar

StartChar: four
Encoding: 52 52 60
Width: 1370
Flags: HMW
LayerCount: 4
Fore
SplineSet
734 366 m 5
 742 482 l 1
 742 808 l 1
 1114 808 l 1
 1114 572 l 1
 1114 0 l 1
 734 0 l 1
 734 366 l 5
954 1480 m 1
 497 572 l 1
 96 572 l 1
 548 1480 l 1
 954 1480 l 1
1274 572 m 1
 1274 236 l 1
 96 236 l 1
 96 572 l 1
 1274 572 l 1
EndSplineSet
Substitution2: "'ss02' Alternative numbers set 2 lookups0-1" four.cv14
Substitution2: "'ss01' Alternative numbers set 1 lookups0-1" four.cv04
Substitution2: "'pnum' Proportional Numbers lookups0-1" four.pnum
Substitution2: "sous-table 'sups' Exposant lookups0" four.superior
Substitution2: "'cv14' Alternative digit 4 2-1" four.cv14
Substitution2: "'cv04' Alternative digit 4 1-1" four.cv04
Substitution2: "'dnom' D+AOkA-nominateurs lookups0-1" four.dnom
Substitution2: "sous-table 'subs' Indice lookups0" four.subscript
Substitution2: "'numr' Numerators lookups0-1" four.numr
Substitution2: "'tnum' Tabular Numbers lookups0-1" four.tnum
Substitution2: "'onum' Oldstyle Figures lookups0-1" four.onum
Colour: ffff
EndChar

StartChar: five
Encoding: 53 53 61
Width: 1370
VWidth: 1000
Flags: HMW
LayerCount: 4
Fore
SplineSet
463 615 m 1
 269 678 l 1
 351 829 470 1012 693 1012 c 0
 1042 1012 1290 802 1290 491 c 0
 1290 180 1042 -30 692 -30 c 0
 397 -30 123 91 80 361 c 1
 453 461 l 0
 453 361 542 306 692 306 c 0
 813 306 910 371 910 491 c 0
 910 611 793 676 673 676 c 0
 619 676 506 668 463 615 c 1
600 1480 m 1
 482 678 l 1
 269 678 l 1
 138 720 l 1
 246 1480 l 1
 303 1480 543 1480 600 1480 c 1
389 1144 m 1
 600 1480 l 1
 1218 1480 l 1
 1218 1144 l 1
 389 1144 l 1
EndSplineSet
Substitution2: "'ss02' Alternative numbers set 2 lookups0-1" five.cv15
Substitution2: "'ss01' Alternative numbers set 1 lookups0-1" five.cv05
Substitution2: "'pnum' Proportional Numbers lookups0-1" five.pnum
Substitution2: "sous-table 'sups' Exposant lookups0" five.superior
Substitution2: "'cv15' Alternative digit 5 2-1" five.cv15
Substitution2: "'cv05' Alternative digit 5 1-1" five.cv05
Substitution2: "'dnom' D+AOkA-nominateurs lookups0-1" five.dnom
Substitution2: "sous-table 'subs' Indice lookups0" five.subscript
Substitution2: "'numr' Numerators lookups0-1" five.numr
Substitution2: "'tnum' Tabular Numbers lookups0-1" five.tnum
Substitution2: "'onum' Oldstyle Figures lookups0-1" five.onum
Colour: ffff
EndChar

StartChar: one
Encoding: 49 49 62
Width: 1370
Flags: HMW
LayerCount: 4
Fore
SplineSet
630 848 m 1
 250 848 l 1
 250 1184 l 1
 346 1184 l 2
 520 1184 654 1300 654 1448 c 2
 654 1480 l 1
 1010 1480 l 1
 1010 1040 l 1
 1010 0 l 1
 630 0 l 1
 630 848 l 1
EndSplineSet
Substitution2: "'ss09' Bar below digit 1-1" one.ss09
Substitution2: "'ss02' Alternative numbers set 2 lookups0-1" one.cv11
Substitution2: "'ss01' Alternative numbers set 1 lookups0-1" one.cv01
Substitution2: "sous-table 'sups' Exposant lookups0" one.superior
Substitution2: "'cv11' Alternative digit 1 2-1" one.cv11
Substitution2: "'cv01' Alternative digit 1 1-1" one.cv01
Substitution2: "'dnom' D+AOkA-nominateurs lookups0-1" one.dnom
Substitution2: "'pnum' Proportional Numbers lookups0-1" one.pnum
Substitution2: "'onum' Oldstyle Figures lookups0-1" one.onum
Substitution2: "'tnum' Tabular Numbers lookups0-1" one.tnum
Substitution2: "'numr' Numerators lookups0-1" one.numr
Substitution2: "sous-table 'subs' Indice lookups0" one.subscript
Colour: ffff
EndChar

StartChar: period
Encoding: 46 46 63
Width: 632
VWidth: 1000
Flags: HMW
LayerCount: 4
Fore
SplineSet
116 170 m 4
 116 281 205 370 316 370 c 4
 427 370 516 281 516 170 c 4
 516 59 427 -30 316 -30 c 4
 205 -30 116 59 116 170 c 4
EndSplineSet
Colour: ff00
EndChar

StartChar: comma
Encoding: 44 44 64
Width: 633
Flags: HMW
LayerCount: 4
Back
SplineSet
139 -150 m 4xf0
 139 -80 195 -20 265 -20 c 4
 335 -20 393 -80 393 -150 c 4
 393 -220 335 -278 265 -278 c 4
 195 -278 139 -220 139 -150 c 4xf0
EndSplineSet
Fore
SplineSet
84 170 m 4
 84 281 173 370 284 370 c 4
 395 370 484 281 484 170 c 4
 484 59 395 -30 284 -30 c 4
 173 -30 84 59 84 170 c 4
99 -141 m 5
 228 -121 325 -56 325 32 c 4
 325 76 286 170 286 170 c 5
 284 370 l 5
 397 370 549 298 549 32 c 4
 549 -179 318 -343 159 -371 c 5
 99 -141 l 5
EndSplineSet
Colour: ff00
EndChar

StartChar: colon
Encoding: 58 58 65
Width: 632
VWidth: 1000
Flags: HMW
LayerCount: 4
Fore
SplineSet
116 930 m 0
 116 1041 205 1130 316 1130 c 0
 427 1130 516 1041 516 930 c 0
 516 819 427 730 316 730 c 0
 205 730 116 819 116 930 c 0
116 170 m 4
 116 281 205 370 316 370 c 4
 427 370 516 281 516 170 c 4
 516 59 427 -30 316 -30 c 4
 205 -30 116 59 116 170 c 4
EndSplineSet
Colour: ff00
EndChar

StartChar: semicolon
Encoding: 59 59 66
Width: 697
VWidth: 1000
Flags: HMW
LayerCount: 4
Fore
SplineSet
116 170 m 4
 116 281 205 370 316 370 c 4
 427 370 516 281 516 170 c 4
 516 59 427 -30 316 -30 c 4
 205 -30 116 59 116 170 c 4
131 -141 m 5
 260 -121 357 -56 357 32 c 4
 357 76 318 170 318 170 c 5
 316 370 l 5
 429 370 581 298 581 32 c 4
 581 -179 350 -343 191 -371 c 5
 131 -141 l 5
116 930 m 0
 116 1041 205 1130 316 1130 c 0
 427 1130 516 1041 516 930 c 0
 516 819 427 730 316 730 c 0
 205 730 116 819 116 930 c 0
EndSplineSet
Colour: ff00
EndChar

StartChar: slash
Encoding: 47 47 67
Width: 1257
VWidth: 1000
Flags: HMW
LayerCount: 4
Fore
SplineSet
1199 1640 m 1
 438 -200 l 1
 58 -200 l 5
 819 1640 l 5
 1199 1640 l 1
EndSplineSet
Colour: ff00
EndChar

StartChar: parenleft
Encoding: 40 40 68
Width: 934
Flags: HMW
LayerCount: 4
Fore
SplineSet
84 658 m 4
 84 1258 538 1583 718 1658 c 1
 886 1369 l 1
 750 1318 444 1078 444 658 c 0
 444 240 750 0 886 -51 c 1
 718 -340 l 1
 538 -265 84 60 84 658 c 4
EndSplineSet
Colour: ff00
EndChar

StartChar: exclam
Encoding: 33 33 69
Width: 644
Flags: HMW
LayerCount: 4
Fore
SplineSet
122 160 m 0
 122 271 211 360 322 360 c 0
 433 360 522 271 522 160 c 0
 522 49 433 -40 322 -40 c 0
 211 -40 122 49 122 160 c 0
116 1480 m 5
 528 1480 l 5
 482 452 l 5
 162 452 l 5
 116 1480 l 5
EndSplineSet
Colour: ff00
EndChar

StartChar: question
Encoding: 63 63 70
Width: 1332
VWidth: 1000
Flags: HMW
LayerCount: 4
Fore
SplineSet
666 1174 m 4
 551 1174 464 1127 464 1027 c 4
 464 969 471 943 471 943 c 5
 84 1027 l 4
 84 1347 330 1510 666 1510 c 4
 1002 1510 1248 1325 1248 1025 c 4
 1248 725 1002 540 666 540 c 0
 666 876 l 0
 761 876 868 905 868 1025 c 4
 868 1145 761 1174 666 1174 c 4
472 160 m 0
 472 271 561 360 672 360 c 0
 783 360 872 271 872 160 c 0
 872 49 783 -40 672 -40 c 0
 561 -40 472 49 472 160 c 0
492 452 m 1
 492 876 l 1
 852 876 l 1
 852 452 l 1
 492 452 l 1
EndSplineSet
Colour: ff00
EndChar

StartChar: quotesingle
Encoding: 39 39 71
Width: 600
Flags: HMW
LayerCount: 4
Fore
SplineSet
140 968 m 25
 116 1480 l 25
 484 1480 l 25
 460 968 l 25
 140 968 l 25
EndSplineSet
Colour: ff00
EndChar

StartChar: quotedbl
Encoding: 34 34 72
Width: 1128
Flags: HMW
LayerCount: 4
Fore
SplineSet
668 968 m 29
 644 1480 l 29
 1012 1480 l 29
 988 968 l 29
 668 968 l 29
140 968 m 25
 116 1480 l 25
 484 1480 l 25
 460 968 l 25
 140 968 l 25
EndSplineSet
Colour: ff00
EndChar

StartChar: bracketleft
Encoding: 91 91 73
Width: 958
Flags: HMW
LayerCount: 4
Fore
SplineSet
894 1320 m 25
 476 1320 l 25
 476 0 l 25
 894 0 l 25
 894 -320 l 25
 116 -320 l 25
 116 1640 l 25
 894 1640 l 25
 894 1320 l 25
EndSplineSet
Colour: ff00
EndChar

StartChar: bracketright
Encoding: 93 93 74
Width: 958
Flags: HMW
LayerCount: 4
Fore
SplineSet
64 1320 m 25
 64 1640 l 25
 842 1640 l 25
 842 -320 l 25
 64 -320 l 25
 64 0 l 25
 482 0 l 25
 482 1320 l 25
 64 1320 l 25
EndSplineSet
Colour: ff00
EndChar

StartChar: parenright
Encoding: 41 41 75
Width: 934
Flags: HMW
LayerCount: 4
Fore
SplineSet
850 658 m 0
 850 60 396 -265 216 -340 c 1
 48 -51 l 1
 184 0 490 240 490 658 c 0
 490 1078 184 1318 48 1369 c 1
 216 1658 l 1
 396 1583 850 1258 850 658 c 0
EndSplineSet
Colour: ff00
EndChar

StartChar: braceleft
Encoding: 123 123 76
Width: 846
VWidth: 1000
Flags: HMW
LayerCount: 4
Fore
SplineSet
616 152 m 2
 616 52 688 -20 788 -20 c 0
 788 -340 l 0
 488 -340 256 -148 256 152 c 2
 256 302 l 18
 256 402 184 500 84 500 c 0
 84 820 l 0
 384 820 616 602 616 302 c 2
 616 152 l 2
616 1168 m 6
 616 1018 l 2
 616 718 384 500 84 500 c 0
 84 820 l 0
 184 820 256 918 256 1018 c 10
 256 1168 l 2
 256 1468 488 1660 788 1660 c 0
 788 1340 l 0
 688 1340 616 1268 616 1168 c 6
EndSplineSet
Colour: ff00
EndChar

StartChar: braceright
Encoding: 125 125 77
Width: 846
VWidth: 1000
Flags: HMW
LayerCount: 4
Fore
SplineSet
230 152 m 2
 230 302 l 2
 230 602 462 820 762 820 c 0
 762 500 l 0
 662 500 590 402 590 302 c 10
 590 152 l 2
 590 -148 358 -340 58 -340 c 0
 58 -20 l 0
 158 -20 230 52 230 152 c 2
230 1168 m 6
 230 1268 158 1340 58 1340 c 0
 58 1660 l 0
 358 1660 590 1468 590 1168 c 2
 590 1018 l 18
 590 918 662 820 762 820 c 0
 762 500 l 0
 462 500 230 718 230 1018 c 2
 230 1168 l 6
EndSplineSet
Colour: ff00
EndChar

StartChar: backslash
Encoding: 92 92 78
Width: 1257
VWidth: 1000
Flags: HMW
LayerCount: 4
Fore
SplineSet
58 1640 m 1
 438 1640 l 1
 1199 -200 l 1
 819 -200 l 1
 58 1640 l 1
EndSplineSet
Colour: ff00
EndChar

StartChar: bar
Encoding: 124 124 79
Width: 592
Flags: HMW
LayerCount: 4
Fore
SplineSet
476 1660 m 29
 476 -440 l 25
 116 -440 l 1
 116 1660 l 5
 476 1660 l 29
EndSplineSet
Colour: ff00
EndChar

StartChar: numbersign
Encoding: 35 35 80
Width: 1694
VWidth: 1000
Flags: HMW
LayerCount: 4
Fore
SplineSet
116 320 m 1
 116 640 l 1
 1532 640 l 1
 1532 320 l 1
 116 320 l 1
162 840 m 1
 162 1160 l 1
 1578 1160 l 1
 1578 840 l 1
 162 840 l 1
1059 1480 m 1
 1425 1480 l 1
 1192 0 l 1
 1124 0 894 0 826 0 c 1
 1059 1480 l 1
502 1480 m 1
 868 1480 l 1
 635 0 l 1
 567 0 337 0 269 0 c 1
 502 1480 l 1
EndSplineSet
Colour: ff00
EndChar

StartChar: gravecomb
Encoding: 768 768 83
Width: 0
VWidth: 1000
Flags: HMW
AnchorPoint: "circumflex_left" 697 1092 mark 0
AnchorPoint: "top_center" 642 1040 mark 0
LayerCount: 4
Fore
SplineSet
474 1224 m 5
 248 1480 l 5
 652 1480 l 5
 830 1224 l 5
 474 1224 l 5
EndSplineSet
Colour: ffff00
EndChar

StartChar: acutecomb
Encoding: 769 769 84
Width: 0
VWidth: 1000
Flags: HMW
AnchorPoint: "circumflex_right" 587 1092 mark 0
AnchorPoint: "top_center" 642 1040 mark 0
LayerCount: 4
Fore
SplineSet
810 1224 m 5
 454 1224 l 5
 632 1480 l 5
 1036 1480 l 5
 810 1224 l 5
EndSplineSet
Colour: ffff00
EndChar

StartChar: uni0302
Encoding: 770 770 85
Width: 0
VWidth: 1000
Flags: HMW
AnchorPoint: "top_center" 642 1040 mark 0
LayerCount: 4
Fore
SplineSet
699 1224 m 5
 539 1480 l 5
 845 1480 l 5
 1050 1224 l 5
 699 1224 l 5
585 1224 m 5
 234 1224 l 5
 439 1480 l 5
 745 1480 l 5
 585 1224 l 5
EndSplineSet
Colour: ffff00
EndChar

StartChar: tildecomb
Encoding: 771 771 86
Width: 0
VWidth: 1000
Flags: HMW
AnchorPoint: "top_center" 642 1040 mark 0
LayerCount: 4
Fore
SplineSet
488 1204 m 1
 279 1260 l 1
 296 1377 389 1499 545 1499 c 0
 635 1499 689 1436 731 1436 c 0
 776 1436 788 1478 788 1499 c 1
 997 1443 l 1
 980 1326 887 1204 731 1204 c 0
 641 1204 587 1267 545 1267 c 0
 494 1267 488 1225 488 1204 c 1
EndSplineSet
Colour: ffff00
EndChar

StartChar: uni0308
Encoding: 776 776 87
Width: 0
VWidth: 1000
Flags: HMW
AnchorPoint: "top_center" 642 1040 mark 0
AnchorPoint: "dieresis_center" 641 1350 basechar 0
LayerCount: 4
Fore
SplineSet
755 1352 m 4
 755 1463 844 1552 955 1552 c 4
 1066 1552 1155 1463 1155 1352 c 4
 1155 1241 1066 1152 955 1152 c 4
 844 1152 755 1241 755 1352 c 4
125 1352 m 4
 125 1463 214 1552 325 1552 c 4
 436 1552 525 1463 525 1352 c 4
 525 1241 436 1152 325 1152 c 4
 214 1152 125 1241 125 1352 c 4
EndSplineSet
Colour: ff00
EndChar

StartChar: uni030A
Encoding: 778 778 88
Width: 0
VWidth: 997
Flags: HMW
AnchorPoint: "top_center" 642 1040 mark 0
LayerCount: 4
Fore
SplineSet
436 1347 m 4
 436 1457 522 1542 642 1542 c 4
 762 1542 848 1457 848 1347 c 4
 848 1237 762 1152 642 1152 c 4
 522 1152 436 1237 436 1347 c 4
596 1347 m 4
 596 1321 616 1302 642 1302 c 4
 668 1302 687 1321 687 1347 c 4
 687 1373 668 1392 642 1392 c 4
 616 1392 596 1373 596 1347 c 4
EndSplineSet
Colour: ffc71c
EndChar

StartChar: ccedilla
Encoding: 231 231 89
Width: 1205
Flags: HMW
LayerCount: 4
Back
SplineSet
483 -220 m 4
 483 -244 504 -263 536 -263 c 4
 568 -263 589 -244 589 -220 c 4
 589 -196 568 -177 536 -177 c 4
 504 -177 483 -196 483 -220 c 4
356 -220 m 4
 356 -130 436 -60 536 -60 c 4
 636 -60 716 -130 716 -220 c 4
 716 -310 636 -380 536 -380 c 4
 436 -380 356 -310 356 -220 c 4
EndSplineSet
Fore
Refer: 90 807 N 1 0 0 1 -68 0 2
Refer: 10 99 N 1 0 0 1 0 0 3
Substitution2: "sous-table 'smcp' Bas-de-casse vers petites capitales dans Latin lookup 0" ccedilla.sc
Colour: ff
EndChar

StartChar: uni0327
Encoding: 807 807 90
Width: 0
VWidth: 1000
Flags: HMW
AnchorPoint: "bottom_cedilla" 704 -20 mark 0
LayerCount: 4
Fore
SplineSet
516 -314 m 1
 645 -239 l 1
 667 -268 707 -272 722 -272 c 0
 757 -272 778 -261 778 -246 c 0
 778 -231 757 -220 722 -220 c 0
 707 -220 688 -223 675 -232 c 1
 545 -170 l 5
 580 -120 624 -60 722 -60 c 4
 842 -60 938 -146 938 -246 c 0
 938 -346 872 -432 722 -432 c 0
 622 -432 562 -375 516 -314 c 1
647 0 m 1
 807 0 l 5
 682 -205 l 5
 675 -232 l 1
 546 -171 l 1
 647 0 l 1
EndSplineSet
Colour: ffc71c
EndChar

StartChar: dotlessi
Encoding: 305 305 141
Width: 592
Flags: HMW
AnchorPoint: "top_center" 296 1040 basechar 0
AnchorPoint: "bottom_center" 296 0 basechar 0
AnchorPoint: "bottom_right" 476 0 basechar 0
LayerCount: 4
Fore
SplineSet
116 0 m 1
 116 1040 l 1
 476 1040 l 1
 476 0 l 1
 116 0 l 1
EndSplineSet
LCarets2: 1 0
Ligature2: "'liga' Soft Dotted i j" i uni030A
Colour: ff00
EndChar

StartChar: dollar
Encoding: 36 36 142
Width: 1395
VWidth: 1000
Flags: HMW
LayerCount: 4
Fore
SplineSet
696 1174 m 0
 556 1174 492 1132 492 1052 c 0
 492 992 590 973 696 945 c 0
 1063 847 1311 725 1311 445 c 0
 1311 165 1106 -30 696 -30 c 0
 391 -30 127 91 84 361 c 1
 457 461 l 0
 457 361 546 306 696 306 c 0
 846 306 931 355 931 445 c 0
 931 535 802 549 696 577 c 0
 348 670 112 792 112 1052 c 0
 112 1312 326 1510 696 1510 c 0
 1001 1510 1240 1394 1283 1124 c 1
 910 1024 l 0
 910 1124 836 1174 696 1174 c 0
848 1660 m 29
 848 -180 l 29
 544 -180 l 5
 544 1660 l 5
 848 1660 l 29
EndSplineSet
Substitution2: "'ss08' Alternative ampersand, dollar and cent lookups0-1" dollar.ss08
Colour: ffff
EndChar

StartChar: plus
Encoding: 43 43 143
Width: 1370
Flags: HMW
LayerCount: 4
Fore
SplineSet
505 1230 m 1
 865 1230 l 1
 865 90 l 17
 505 90 l 1
 505 1230 l 1
116 500 m 1
 116 820 l 1
 1254 820 l 21
 1254 500 l 5
 116 500 l 1
EndSplineSet
Substitution2: "'ss07' Bigger basic math operators lookups0-1" plus.ss07
Colour: ff00
EndChar

StartChar: hyphen
Encoding: 45 45 144
Width: 1130
Flags: HMW
LayerCount: 4
Fore
SplineSet
116 500 m 5
 116 820 l 1
 1014 820 l 17
 1014 500 l 5
 116 500 l 5
EndSplineSet
Substitution2: "'ss07' Bigger basic math operators lookups0-1" hyphen.ss07
Colour: ff00
EndChar

StartChar: equal
Encoding: 61 61 145
Width: 1370
Flags: HMW
LayerCount: 4
Fore
SplineSet
1254 1070 m 21
 1254 750 l 5
 116 750 l 5
 116 1070 l 5
 1254 1070 l 21
116 250 m 5
 116 570 l 5
 1254 570 l 21
 1254 250 l 5
 116 250 l 5
EndSplineSet
Colour: ff00
EndChar

StartChar: percent
Encoding: 37 37 146
Width: 2212
VWidth: 1000
Flags: HMW
LayerCount: 4
Fore
SplineSet
433 1116 m 0
 433 1066 468 1032 518 1032 c 0
 568 1032 602 1066 602 1116 c 0
 602 1166 568 1200 518 1200 c 0
 468 1200 433 1166 433 1116 c 0
84 1116 m 0
 84 1341 293 1520 518 1520 c 0
 743 1520 952 1341 952 1116 c 0
 952 891 743 712 518 712 c 0
 293 712 84 891 84 1116 c 0
1609 364 m 0
 1609 314 1644 280 1694 280 c 0
 1744 280 1778 314 1778 364 c 0
 1778 414 1744 448 1694 448 c 0
 1644 448 1609 414 1609 364 c 0
1260 364 m 0
 1260 589 1469 768 1694 768 c 0
 1919 768 2128 589 2128 364 c 0
 2128 139 1919 -40 1694 -40 c 0
 1469 -40 1260 139 1260 364 c 0
1636 1302 m 5
 884 0 l 1
 576 178 l 1
 1328 1480 l 1
 1636 1302 l 5
EndSplineSet
Colour: ff00
EndChar

StartChar: degree
Encoding: 176 176 147
Width: 1036
VWidth: 1000
Flags: HMW
LayerCount: 4
Fore
SplineSet
433 1116 m 0
 433 1066 468 1032 518 1032 c 4
 568 1032 602 1066 602 1116 c 4
 602 1166 568 1200 518 1200 c 4
 468 1200 433 1166 433 1116 c 0
84 1116 m 0
 84 1346 288 1520 518 1520 c 4
 748 1520 952 1346 952 1116 c 4
 952 886 748 712 518 712 c 4
 288 712 84 886 84 1116 c 0
EndSplineSet
Colour: ff00
EndChar

StartChar: ampersand
Encoding: 38 38 148
Width: 1566
VWidth: 1000
Flags: HMW
LayerCount: 4
Back
SplineSet
1020 600 m 4
 1020 360 880 140 600 140 c 4
 400 140 280 262 280 418 c 4
 100 418 l 4
 100 175 300 -20 600 -20 c 4
 1020 -20 1183 265 1203 550 c 5
 1020 600 l 4
EndSplineSet
Fore
SplineSet
324 815 m 5
 324 815 204 929 204 1083 c 0
 204 1262 324 1510 684 1510 c 0
 1044 1510 1164 1287 1164 1147 c 0
 804 1107 l 0
 804 1167 764 1190 684 1190 c 0
 604 1190 564 1153 564 1083 c 0
 564 1053 574 1027 610 989 c 1
 1482 0 l 1
 1397 0 1139 0 1054 0 c 1
 324 815 l 5
443 423 m 0
 443 347 506 290 726 290 c 0
 996 290 1093 517 1093 667 c 0
 1435 573 l 1
 1415 288 1184 -30 684 -30 c 0
 324 -30 84 120 84 423 c 0
 84 656 338 789 684 989 c 0
 736 1019 804 1067 804 1107 c 1
 1164 1147 l 1
 1164 917 1030 817 684 617 c 0
 597 567 443 506 443 423 c 0
EndSplineSet
Layer: 2
SplineSet
315.7890625 895.231445312 m 5
 260.015625 970.026367188 228 1045.75 228 1148 c 0
 228 1367 400 1500 600 1500 c 0
 800 1500 972 1367 972 1148 c 0
 792 1148 l 0
 792 1268 708 1340 600 1340 c 0
 492 1340 408 1288 408 1148 c 0
 408 1068 423.116210938 1031.30761719 460.055664062 984.02734375 c 5
 315.7890625 895.231445312 l 5
792 1148 m 1
 972 1148 l 1025
EndSplineSet
Layer: 3
SplineSet
459 986 m 1
 316 895 l 1
 1041 0 l 5
 1112.33300781 0 1183.66699219 0 1255 0 c 5
 459 986 l 1
100 418 m 1
 100 661 340.192382812 776 600 926 c 0
 729.904296875 1001 792 1028 792 1148 c 1
 972 1148 l 1
 972 948 799.185546875 855 600 740 c 0
 426.794921875 640 280 561 280 418 c 1
 100 418 l 1
EndSplineSet
Substitution2: "'ss08' Alternative ampersand, dollar and cent lookups0-1" ampersand.ss08
Colour: ff00
EndChar

StartChar: asterisk
Encoding: 42 42 149
Width: 1254
Flags: HMW
LayerCount: 4
Back
SplineSet
438 1070 m 21
 518 1070 l 5
 598 1070 l 13
 610 1480 l 29
 426 1480 l 29
 438 1070 l 21
EndSplineSet
Fore
SplineSet
84 951 m 29
 197 1301 l 29
 677 1120 l 21
 627 968 l 5
 578 816 l 13
 84 951 l 29
475 446 m 29
 177 662 l 29
 498 1062 l 21
 627 968 l 5
 756 874 l 13
 475 446 l 29
1077 662 m 29
 779 446 l 29
 498 874 l 21
 627 968 l 5
 756 1062 l 13
 1077 662 l 29
1057 1301 m 29
 1170 951 l 29
 676 816 l 21
 627 968 l 5
 577 1120 l 13
 1057 1301 l 29
443 1480 m 29
 811 1480 l 29
 787 968 l 21
 627 968 l 5
 467 968 l 13
 443 1480 l 29
EndSplineSet
Colour: ff00
EndChar

StartChar: less
Encoding: 60 60 150
Width: 1370
Flags: HMW
LayerCount: 4
Fore
SplineSet
116 498 m 1
 116 822 l 1
 1254 1274 l 5
 1254 930 l 5
 518 660 l 1
 1254 390 l 5
 1254 46 l 5
 116 498 l 1
EndSplineSet
Colour: ff00
EndChar

StartChar: greater
Encoding: 62 62 151
Width: 1370
Flags: HMW
LayerCount: 4
Fore
SplineSet
1254 498 m 1
 116 46 l 5
 116 390 l 5
 852 660 l 1
 116 930 l 5
 116 1274 l 5
 1254 822 l 1
 1254 498 l 1
EndSplineSet
Colour: ff00
EndChar

StartChar: at
Encoding: 64 64 152
Width: 2168
VWidth: 1000
Flags: HMW
LayerCount: 4
Back
SplineSet
1237.51367188 580 m 4
 1212.63769531 403 1110.14648438 307 960.146484375 307 c 4
 810.146484375 307 734.637695312 403 759.513671875 580 c 4
 784.389648438 757 886.741210938 852 1036.74121094 852 c 4
 1186.74121094 852 1262.38964844 757 1237.51367188 580 c 4
1399.51367188 580 m 4
 1364.37890625 330 1187.79980469 148 937.799804688 148 c 4
 687.799804688 148 544.37890625 330 579.513671875 580 c 4
 614.6484375 830 809.227539062 1012 1059.22753906 1012 c 4
 1159.22753906 1012 1229.86816406 956.568359375 1278.48632812 900 c 5
 1285.23242188 948 1291.97851562 996 1291.97851562 996 c 5
 1457.97851562 996 l 5
 1457.97851562 996 1450.67089844 944 1439.14648438 862 c 5
 1399.51367188 580 l 4
EndSplineSet
Fore
SplineSet
1074 1510 m 3
 1634 1510 2074 1180 2074 660 c 0
 1714 660 l 17
 1714 980 1484 1190 1084 1190 c 0
 684 1190 454 900 454 580 c 0
 454 260 684 -30 1084 -30 c 0
 1257 -30 1400 16 1507 106 c 1
 1720 -148 l 1
 1548 -280 1328 -350 1084 -350 c 0
 524 -350 94 60 94 580 c 0
 94 1100 514 1510 1074 1510 c 3
1077 713 m 0
 1017 713 972 670 959 580 c 0
 957 569 957 559 957 549 c 0
 957 480 986 457 1039 457 c 0
 1099 457 1141 490 1157 580 c 0
 1159 591 1159 601 1159 611 c 0
 1159 680 1130 713 1077 713 c 0
1102 1023 m 0
 1183 1023 1218 971 1223 963 c 1
 1229 1004 l 25
 1578 1004 l 17
 1507 580 l 0
 1464 335 1244 137 994 137 c 0
 764 137 595 299 595 521 c 0
 595 540 596 580 599 600 c 0
 634 850 852 1023 1102 1023 c 0
1575 128 m 0
 1348 128 1150 254 1150 497 c 0
 1150 523 1151 538 1157 580 c 1
 1507 580 l 1
 1507 580 1504 558 1504 546 c 0
 1504 507 1517 447 1600 447 c 0
 1684 447 1714 561 1714 660 c 1
 2074 660 l 1
 2074 360 1863 128 1575 128 c 0
EndSplineSet
Colour: ff00
EndChar

StartChar: asciicircum
Encoding: 94 94 153
Width: 1244
VWidth: 1000
Flags: HMW
LayerCount: 4
Fore
SplineSet
788 656 m 1
 623 1080 l 5
 456 656 l 1
 84 656 l 1
 446 1480 l 1
 798 1480 l 1
 1160 656 l 1
 788 656 l 1
EndSplineSet
Colour: ff00
EndChar

StartChar: underscore
Encoding: 95 95 154
Width: 1370
Flags: HMW
LayerCount: 4
Fore
SplineSet
0 0 m 1
 1370 0 l 1
 1370 -320 l 1
 0 -320 l 1
 0 0 l 1
EndSplineSet
Colour: ff00
EndChar

StartChar: grave
Encoding: 96 96 155
Width: 710
VWidth: 1000
Flags: HMW
AnchorPoint: "dieresis_center" 468 1140 mark 0
AnchorPoint: "top_left" 759 1480 mark 0
AnchorPoint: "top_left_O2" 746 1224 mark 0
AnchorPoint: "top_center" 468 1040 mark 0
LayerCount: 4
Fore
SplineSet
290 1224 m 5
 64 1480 l 5
 468 1480 l 5
 646 1224 l 5
 290 1224 l 5
EndSplineSet
Colour: ffff00
EndChar

StartChar: asciitilde
Encoding: 126 126 156
Width: 1370
VWidth: 1000
Flags: HMW
LayerCount: 4
Fore
SplineSet
430 427 m 5
 116 520 l 5
 144 715 264 885 524 885 c 4
 674 885 771 747 846 747 c 4
 921 747 940 850 940 885 c 5
 1254 792 l 5
 1226 597 1106 427 846 427 c 4
 696 427 599 565 524 565 c 4
 449 565 430 462 430 427 c 5
EndSplineSet
Substitution2: "'ss07' Bigger basic math operators lookups0-1" asciitilde.ss07
Colour: ff00
EndChar

StartChar: exclamdown
Encoding: 161 161 157
Width: 644
Flags: HMW
LayerCount: 4
Fore
SplineSet
522 880 m 0
 522 769 433 680 322 680 c 0
 211 680 122 769 122 880 c 0
 122 991 211 1080 322 1080 c 0
 433 1080 522 991 522 880 c 0
528 -440 m 1
 116 -440 l 1
 162 588 l 1
 482 588 l 1
 528 -440 l 1
EndSplineSet
Colour: ff00
EndChar

StartChar: cent
Encoding: 162 162 158
Width: 1224
VWidth: 1000
Flags: HMW
LayerCount: 4
Fore
SplineSet
981 1220 m 25
 601 -180 l 25
 305 -180 l 1
 685 1220 l 1
 981 1220 l 25
454 520 m 0
 454 383 507 290 644 290 c 0
 748 290 803 344 824 430 c 1
 1131 252 l 1
 1043 79 865 -30 644 -30 c 0
 324 -30 94 200 94 520 c 0
 94 840 323 1070 643 1070 c 0
 864 1070 1043 961 1131 788 c 1
 824 610 l 1
 803 696 748 750 644 750 c 0
 507 750 454 657 454 520 c 0
EndSplineSet
Substitution2: "'ss08' Alternative ampersand, dollar and cent lookups0-1" cent.ss08
Colour: ff00
EndChar

StartChar: sterling
Encoding: 163 163 159
Width: 1520
VWidth: 1000
Flags: HMW
LayerCount: 4
Fore
SplineSet
380 560 m 1
 888 560 l 1
 888 880 l 1
 380 880 l 1
 84 880 l 1
 84 834 84 606 84 560 c 1
 380 560 l 1
563 1010 m 0
 563 1130 690 1184 785 1184 c 0
 900 1184 1007 1110 1007 1000 c 0
 1007 942 1000 916 1000 916 c 1
 1367 1000 l 0
 1367 1320 1121 1520 785 1520 c 0
 449 1520 204 1320 204 1040 c 0
 204 808 356 774 356 594 c 0
 356 474 228 356 116 281 c 1
 393 61 l 1
 445 121 696 430 696 650 c 4
 696 810 563 840 563 1010 c 0
1348 351 m 1
 1312 331 1182 280 1086 280 c 0
 899 280 824 388 584 388 c 0
 416 388 224 316 116 281 c 1
 203 -40 l 1
 336 14 442 68 584 68 c 0
 771 68 846 -40 1086 -40 c 0
 1230 -40 1381 3 1436 30 c 1
 1348 351 l 1
EndSplineSet
Layer: 2
SplineSet
172 1040 m 4
 172 768 280 700 280 520 c 4
 280 400 226 215 172 104 c 5
 353 65 l 5
 388 155 460 340 460 540 c 4
 460 740 352 800 352 1040 c 4
 172 1040 l 4
EndSplineSet
Colour: ff00
EndChar

StartChar: currency
Encoding: 164 164 160
Width: 1346
Flags: HMW
LayerCount: 4
Fore
SplineSet
992 753 m 1
 762 975 l 1
 1035 1248 l 1
 1261 1022 l 1
 992 753 l 1
316 529 m 1
 539 300 l 1
 311 72 l 1
 85 298 l 1
 316 529 l 1
756 351 m 1
 954 605 l 1
 1262 297 l 1
 1036 71 l 1
 756 351 l 1
606 953 m 5
 367 740 l 1
 84 1023 l 1
 310 1249 l 1
 606 953 l 5
188 656 m 0
 188 907 405 1116 668 1116 c 0
 931 1116 1148 907 1148 656 c 0
 1148 405 931 196 668 196 c 0
 405 196 188 405 188 656 c 0
548 656 m 0
 548 576 588 516 668 516 c 0
 748 516 788 576 788 656 c 0
 788 736 748 796 668 796 c 0
 588 796 548 736 548 656 c 0
EndSplineSet
Colour: ff00
EndChar

StartChar: yen
Encoding: 165 165 161
Width: 1630
VWidth: 1000
Flags: HMW
LayerCount: 4
Fore
SplineSet
258 532 m 1
 258 836 l 1
 1372 836 l 17
 1372 532 l 1
 258 532 l 1
258 168 m 1
 258 472 l 1
 1372 472 l 17
 1372 168 l 1
 258 168 l 1
625 0 m 29
 625 834 l 25
 1005 834 l 25
 1005 0 l 25
 625 0 l 29
818 426 m 1
 688 608 l 1
 64 1480 l 1
 492 1480 l 1
 815 988 l 1
 1138 1480 l 1
 1566 1480 l 1
 818 426 l 1
EndSplineSet
Colour: ffff
EndChar

StartChar: brokenbar
Encoding: 166 166 162
Width: 552
Flags: HMW
LayerCount: 4
Fore
SplineSet
116 480 m 1
 436 480 l 1
 436 -320 l 9
 116 -320 l 1
 116 480 l 1
436 840 m 1
 116 840 l 1
 116 1640 l 1
 436 1640 l 17
 436 840 l 1
EndSplineSet
Colour: ff00
EndChar

StartChar: section
Encoding: 167 167 163
Width: 1384
VWidth: 1000
Flags: HMW
LayerCount: 4
Fore
SplineSet
692 713 m 0
 542 713 477 646 477 568 c 0
 477 490 585 462 692 439 c 0
 1064 360 1268 217 1268 -33 c 0
 1268 -283 1102 -470 692 -470 c 0
 387 -470 156 -362 116 -107 c 1
 469 -7 l 0
 469 -87 542 -150 692 -150 c 0
 842 -150 908 -111 908 -33 c 0
 908 45 799 78 692 101 c 4
 320 180 117 318 117 568 c 0
 117 818 282 971 692 971 c 0
 692 713 l 0
692 359 m 4
 842 359 908 426 908 504 c 0
 908 582 799 610 692 633 c 0
 340 708 168 855 168 1075 c 0
 168 1295 342 1510 692 1510 c 0
 962 1510 1187 1385 1220 1149 c 1
 867 1049 l 0
 867 1129 832 1190 692 1190 c 0
 552 1190 528 1147 528 1075 c 0
 528 1023 585 994 692 971 c 0
 1064 892 1268 754 1268 504 c 0
 1268 254 1102 101 692 101 c 4
 692 359 l 4
EndSplineSet
Colour: ff00
EndChar

StartChar: dieresis
Encoding: 168 168 164
Width: 1262
VWidth: 1000
Flags: HMW
LayerCount: 4
Fore
SplineSet
746 1352 m 0
 746 1463 835 1552 946 1552 c 0
 1057 1552 1146 1463 1146 1352 c 0
 1146 1241 1057 1152 946 1152 c 0
 835 1152 746 1241 746 1352 c 0
116 1352 m 0
 116 1463 205 1552 316 1552 c 0
 427 1552 516 1463 516 1352 c 0
 516 1241 427 1152 316 1152 c 0
 205 1152 116 1241 116 1352 c 0
EndSplineSet
Colour: ff00
EndChar

StartChar: copyright
Encoding: 169 169 165
Width: 1720
VWidth: 1528
Flags: HMW
LayerCount: 4
Fore
SplineSet
220 740 m 0
 220 380 500 100 860 100 c 0
 1220 100 1500 380 1500 740 c 0
 1500 1100 1220 1380 860 1380 c 0
 500 1380 220 1100 220 740 c 0
100 740 m 0
 100 1160 440 1500 860 1500 c 0
 1280 1500 1620 1160 1620 740 c 0
 1620 320 1280 -20 860 -20 c 0
 440 -20 100 320 100 740 c 0
677 738 m 4
 677 858 740 947 860 947 c 0
 944 947 1002 909 1027 843 c 1
 1258 975 l 1
 1185 1109 1044 1187 860 1187 c 0
 586 1187 406 1013 406 739 c 0
 406 465 586 291 860 291 c 0
 1044 291 1185 369 1258 503 c 1
 1027 635 l 1
 1002 569 944 531 860 531 c 0
 740 531 677 618 677 738 c 4
EndSplineSet
Colour: ff8000
EndChar

StartChar: registered
Encoding: 174 174 166
Width: 1720
VWidth: 1528
Flags: HMW
LayerCount: 4
Fore
SplineSet
220 740 m 0
 220 380 500 100 860 100 c 0
 1220 100 1500 380 1500 740 c 0
 1500 1100 1220 1380 860 1380 c 0
 500 1380 220 1100 220 740 c 0
100 740 m 0
 100 1160 440 1500 860 1500 c 0
 1280 1500 1620 1160 1620 740 c 0
 1620 320 1280 -20 860 -20 c 0
 440 -20 100 320 100 740 c 0
513 311 m 1
 513 1169 l 1
 873 1169 l 2
 1111 1169 1234 1018 1234 859 c 0
 1234 700 1103 550 873 550 c 2
 783 550 l 1
 783 311 l 1
 513 311 l 1
783 929 m 1
 783 790 l 1
 873 790 l 2
 933 790 963 812 963 860 c 0
 963 908 933 929 873 929 c 2
 783 929 l 1
761 632 m 5
 1017 700 l 1
 1280 311 l 1
 972 311 l 1
 761 632 l 5
EndSplineSet
Colour: ff8000
EndChar

StartChar: questiondown
Encoding: 191 191 167
Width: 1332
VWidth: 1000
Flags: HMW
LayerCount: 4
Fore
SplineSet
666 -134 m 4
 571 -134 464 -105 464 15 c 0
 464 135 571 164 666 164 c 0
 666 500 l 0
 330 500 84 315 84 15 c 0
 84 -285 330 -470 666 -470 c 0
 1002 -470 1248 -307 1248 13 c 0
 861 97 l 1
 861 97 868 71 868 13 c 0
 868 -87 781 -134 666 -134 c 4
860 880 m 0
 860 769 771 680 660 680 c 0
 549 680 460 769 460 880 c 0
 460 991 549 1080 660 1080 c 0
 771 1080 860 991 860 880 c 0
840 588 m 1
 480 588 l 1
 480 164 l 1
 840 164 l 1
 840 588 l 1
EndSplineSet
Colour: ff00
EndChar

StartChar: acute
Encoding: 180 180 169
Width: 710
VWidth: 1000
Flags: HMW
AnchorPoint: "top_left" 730 1480 mark 0
AnchorPoint: "top_left_O2" 518 1224 mark 0
AnchorPoint: "dieresis_center" 242 1140 mark 0
AnchorPoint: "top_center" 242 1040 mark 0
LayerCount: 4
Fore
SplineSet
420 1224 m 5
 646 1480 l 5
 242 1480 l 5
 64 1224 l 5
 420 1224 l 5
EndSplineSet
Colour: ffff00
EndChar

StartChar: two.superior
Encoding: 178 178 170
Width: 956
VWidth: 1528
Flags: HMW
LayerCount: 4
Fore
SplineSet
102 810 m 1
 102 937 115 1119 478 1288 c 0
 532 1313 586 1333 586 1376 c 0
 586 1425 533 1446 478 1446 c 0
 411 1446 383 1407 383 1360 c 4
 383 1319 392 1300 392 1300 c 5
 112 1360 l 1
 112 1561 269 1686 478 1686 c 0
 687 1686 854 1579 854 1401 c 0
 854 1223 757 1176 596 1101 c 0
 551 1080 519 1065 506 1050 c 1
 854 1050 l 1
 854 810 l 1
 339 810 l 1
 170 810 l 1
 102 810 l 1
EndSplineSet
Substitution2: "'tnum' Tabular Numbers lookups0-1" two.superior.tnum
Substitution2: "'pnum' Proportional Numbers lookups0-1" two.superior.pnum
Colour: ff8000
EndChar

StartChar: three.superior
Encoding: 179 179 171
Width: 956
VWidth: 1528
Flags: HMW
LayerCount: 4
Fore
SplineSet
477 1352 m 6
 547 1352 574 1371 574 1399 c 4
 574 1427 547 1446 477 1446 c 4
 407 1446 380 1417 380 1379 c 4
 114 1452 l 5
 131 1604 264 1686 477 1686 c 4
 704 1686 842 1593 842 1420 c 4
 842 1300 763 1263 763 1263 c 5
 763 1263 880 1222 880 1075 c 4
 880 885 725 792 477 792 c 4
 241 792 102 895 77 1047 c 5
 346 1120 l 4
 346 1066 389 1032 477 1032 c 4
 565 1032 610 1056 610 1100 c 4
 610 1144 565 1168 477 1168 c 6
 407 1168 l 13
 407 1352 l 29
 477 1352 l 6
EndSplineSet
Substitution2: "'tnum' Tabular Numbers lookups0-1" three.superior.tnum
Substitution2: "'pnum' Proportional Numbers lookups0-1" three.superior.pnum
Colour: ff8000
EndChar

StartChar: one.superior
Encoding: 185 185 172
Width: 956
VWidth: 1528
Flags: HMW
LayerCount: 4
Fore
SplineSet
388 1266 m 1
 168 1266 l 1
 168 1506 l 1
 224 1506 l 2
 326 1506 405 1576 405 1652 c 2
 405 1668 l 1
 658 1668 l 1
 658 1413 l 1
 658 810 l 1
 388 810 l 1
 388 1266 l 1
EndSplineSet
Substitution2: "'pnum' Proportional Numbers lookups0-1" one.superior.pnum
Substitution2: "'tnum' Tabular Numbers lookups0-1" one.superior.tnum
Colour: ff8000
EndChar

StartChar: zero.superior
Encoding: 8304 8304 173
Width: 956
VWidth: 1528
Flags: HMW
LayerCount: 4
Fore
SplineSet
352 1239 m 4
 352 1083 406 1032 478 1032 c 0
 550 1032 604 1083 604 1239 c 0
 604 1395 550 1446 478 1446 c 0
 406 1446 352 1395 352 1239 c 4
82 1238 m 0
 82 1528 240 1686 478 1686 c 0
 716 1686 874 1528 874 1238 c 0
 874 948 716 792 478 792 c 0
 240 792 82 948 82 1238 c 0
EndSplineSet
Substitution2: "'tnum' Tabular Numbers lookups0-1" zero.superior.tnum
Substitution2: "'pnum' Proportional Numbers lookups0-1" zero.superior.pnum
Colour: ff8000
EndChar

StartChar: four.superior
Encoding: 8308 8308 174
Width: 956
VWidth: 1528
Flags: HMW
LayerCount: 4
Fore
SplineSet
649 1668 m 5
 355 1668 l 5
 93 1164 l 5
 93 924 l 5
 489 924 l 5
 489 810 l 5
 759 810 l 5
 759 924 l 5
 863 924 l 5
 863 1164 l 5
 759 1164 l 5
 759 1278 l 5
 497 1278 l 5
 497 1164 l 5
 381 1164 l 5
 649 1668 l 5
EndSplineSet
Substitution2: "'pnum' Proportional Numbers lookups0-1" four.superior.pnum
Substitution2: "'tnum' Tabular Numbers lookups0-1" four.superior.tnum
Colour: ff8000
EndChar

StartChar: five.superior
Encoding: 8309 8309 175
Width: 956
VWidth: 1528
Flags: HMW
LayerCount: 4
Fore
SplineSet
310 1668 m 5
 439 1668 l 1
 805 1668 l 1
 805 1428 l 1
 399 1428 l 1
 389 1356 l 1
 414 1378 433 1386 493 1386 c 0
 718 1386 861 1289 861 1089 c 0
 861 889 702 792 477 792 c 0
 241 792 120 895 95 1047 c 1
 364 1120 l 0
 364 1066 389 1032 477 1032 c 0
 547 1032 590 1058 590 1104 c 0
 590 1150 547 1176 477 1176 c 0
 407 1176 403 1168 367 1141 c 1
 123 1206 l 1
 181 1668 l 1
 310 1668 l 5
EndSplineSet
Substitution2: "'pnum' Proportional Numbers lookups0-1" five.superior.pnum
Substitution2: "'tnum' Tabular Numbers lookups0-1" five.superior.tnum
Colour: ff8000
EndChar

StartChar: six.superior
Encoding: 8310 8310 176
Width: 956
VWidth: 1528
Flags: HMW
LayerCount: 4
Fore
SplineSet
357 1334 m 5
 389 1375 414 1392 511 1392 c 0
 736 1392 866 1286 866 1092 c 0
 866 898 718 792 488 792 c 0
 346 792 237 832 174 930 c 0
 121 1013 90 1109 90 1212 c 0
 90 1494 214 1686 574 1686 c 0
 735 1686 831 1606 831 1606 c 1
 714 1400 l 1
 714 1400 636 1446 524 1446 c 0
 412 1446 370 1395 357 1334 c 5
382 1107 m 0
 382 1057 428 1032 488 1032 c 0
 548 1032 595 1057 595 1107 c 0
 595 1157 548 1182 488 1182 c 0
 428 1182 382 1157 382 1107 c 0
EndSplineSet
Substitution2: "'pnum' Proportional Numbers lookups0-1" six.superior.pnum
Substitution2: "'tnum' Tabular Numbers lookups0-1" six.superior.tnum
Colour: ff8000
EndChar

StartChar: seven.superior
Encoding: 8311 8311 177
Width: 956
VWidth: 1528
Flags: HMW
LayerCount: 4
Fore
SplineSet
108 1429 m 1
 108 1668 l 1
 848 1668 l 1
 848 1449 l 1
 848 1449 561 1266 510 810 c 1
 459 810 290 810 239 810 c 1
 296 1265 527 1429 527 1429 c 1
 108 1429 l 1
EndSplineSet
Substitution2: "'tnum' Tabular Numbers lookups0-1" seven.superior.tnum
Substitution2: "'pnum' Proportional Numbers lookups0-1" seven.superior.pnum
Colour: ff8000
EndChar

StartChar: eight.superior
Encoding: 8312 8312 178
Width: 956
VWidth: 1528
Flags: HMW
LayerCount: 4
Fore
SplineSet
76 1075 m 0
 76 1222 190 1263 190 1263 c 1
 190 1263 112 1300 112 1420 c 0
 112 1593 250 1686 477 1686 c 0
 704 1686 842 1593 842 1420 c 0
 842 1300 763 1263 763 1263 c 1
 763 1263 880 1222 880 1075 c 0
 880 885 725 792 477 792 c 0
 229 792 76 885 76 1075 c 0
380 1399 m 0
 380 1371 407 1352 477 1352 c 0
 547 1352 574 1371 574 1399 c 0
 574 1427 547 1446 477 1446 c 0
 407 1446 380 1427 380 1399 c 0
477 1168 m 4
 389 1168 346 1144 346 1100 c 0
 346 1056 389 1032 477 1032 c 0
 565 1032 610 1056 610 1100 c 0
 610 1144 565 1168 477 1168 c 4
EndSplineSet
Substitution2: "'tnum' Tabular Numbers lookups0-1" eight.superior.tnum
Substitution2: "'pnum' Proportional Numbers lookups0-1" eight.superior.pnum
Colour: ff8000
EndChar

StartChar: nine.superior
Encoding: 8313 8313 179
Width: 956
VWidth: 1528
Flags: HMW
LayerCount: 4
Fore
SplineSet
599 1144 m 5
 567 1103 542 1086 445 1086 c 0
 220 1086 90 1192 90 1386 c 0
 90 1580 238 1686 468 1686 c 0
 610 1686 719 1646 782 1548 c 0
 835 1465 866 1369 866 1266 c 0
 866 984 742 792 382 792 c 0
 221 792 125 872 125 872 c 1
 242 1078 l 1
 242 1078 320 1032 432 1032 c 0
 544 1032 586 1083 599 1144 c 5
574 1371 m 0
 574 1421 528 1446 468 1446 c 0
 408 1446 361 1421 361 1371 c 0
 361 1321 408 1296 468 1296 c 0
 528 1296 574 1321 574 1371 c 0
EndSplineSet
Substitution2: "'pnum' Proportional Numbers lookups0-1" nine.superior.pnum
Substitution2: "'tnum' Tabular Numbers lookups0-1" nine.superior.tnum
Colour: ff8000
EndChar

StartChar: ordfeminine
Encoding: 170 170 180
Width: 952
VWidth: 1528
Flags: HMW
LayerCount: 4
Fore
SplineSet
100 681 m 5
 100 921 l 5
 852 921 l 5
 852 681 l 5
 100 681 l 5
615 1060 m 1
 587 1016 510 980 425 980 c 0
 248 980 147 1081 147 1212 c 0
 147 1343 276 1421 453 1421 c 0
 472 1421 504 1416 530 1404 c 1
 529 1412 507 1436 453 1436 c 0
 322 1436 256 1404 256 1404 c 1
 175 1591 l 1
 175 1591 297 1646 453 1646 c 0
 624 1646 759 1606 759 1401 c 2
 759 1342 l 1
 759 1313 l 1
 759 1266 l 2
 759 1231 780 1196 822 1196 c 1
 775 979 l 1
 704 986 652 1021 615 1060 c 1
520 1230 m 0
 520 1238 503 1240 453 1240 c 0
 403 1240 385 1238 385 1230 c 0
 385 1222 403 1220 453 1220 c 0
 503 1220 520 1222 520 1230 c 0
EndSplineSet
Substitution2: "'ss04' Simplified a and g lookups0-1" ordfeminine.ss04
Colour: ff8000
EndChar

StartChar: ordmasculine
Encoding: 186 186 181
Width: 952
VWidth: 1528
Flags: HMW
LayerCount: 4
Fore
SplineSet
476 1619 m 4
 276 1619 135 1499 135 1299 c 4
 135 1099 276 980 476 980 c 4
 676 980 817 1099 817 1299 c 4
 817 1499 676 1619 476 1619 c 4
476 1220 m 4
 426 1220 405 1249 405 1299 c 4
 405 1349 426 1379 476 1379 c 4
 526 1379 547 1349 547 1299 c 4
 547 1249 526 1220 476 1220 c 4
100 681 m 5
 100 921 l 5
 852 921 l 5
 852 681 l 5
 100 681 l 5
EndSplineSet
Colour: ff8000
EndChar

StartChar: guillemotleft
Encoding: 171 171 182
Width: 1518
VWidth: 1000
Flags: HMW
LayerCount: 4
Fore
SplineSet
1046 196 m 1
 696 660 l 1
 1046 1126 l 1
 1454 1126 l 5
 1100 660 l 5
 1454 196 l 5
 1046 196 l 1
414 196 m 1
 64 660 l 1
 414 1126 l 1
 822 1126 l 1
 468 660 l 1
 822 196 l 1
 414 196 l 1
EndSplineSet
Colour: ff00
EndChar

StartChar: logicalnot
Encoding: 172 172 183
Width: 1370
Flags: HMW
LayerCount: 4
Fore
SplineSet
894 647 m 5
 894 260 l 1
 1254 260 l 1
 1254 820 l 1
 894 647 l 5
116 500 m 1
 1094 500 l 1
 1254 820 l 9
 116 820 l 1
 116 500 l 1
EndSplineSet
Colour: ff00
EndChar

StartChar: guillemotright
Encoding: 187 187 184
Width: 1518
VWidth: 1000
Flags: HMW
LayerCount: 4
Fore
SplineSet
472 196 m 1
 822 660 l 1
 472 1126 l 1
 64 1126 l 1
 418 660 l 1
 64 196 l 1
 472 196 l 1
1104 196 m 1
 1454 660 l 1
 1104 1126 l 1
 696 1126 l 1
 1050 660 l 1
 696 196 l 1
 1104 196 l 1
EndSplineSet
Colour: ff00
EndChar

StartChar: plusminus
Encoding: 177 177 185
Width: 1370
Flags: HMW
LayerCount: 4
Fore
SplineSet
116 0 m 1
 1254 0 l 5
 1254 -320 l 5
 116 -320 l 1
 116 0 l 1
505 1230 m 1
 505 90 l 1
 865 90 l 9
 865 1230 l 1
 505 1230 l 1
116 500 m 1
 1254 500 l 1
 1254 820 l 9
 116 820 l 1
 116 500 l 1
EndSplineSet
Colour: ff00
EndChar

StartChar: paragraph
Encoding: 182 182 186
Width: 1317
VWidth: 1000
Flags: HMW
LayerCount: 4
Fore
SplineSet
567 1500 m 1
 567 1340 l 1
 1177 1340 l 1
 1177 1500 l 1
 567 1500 l 1
865 1500 m 1
 865 -440 l 1
 1017 -440 l 1
 1017 1500 l 1
 865 1500 l 1
505 1440 m 1
 505 -440 l 1
 657 -440 l 1
 657 1500 l 1
 567 1500 l 1
 505 1440 l 1
567 1500 m 0
 297 1500 100 1328 100 1058 c 0
 100 788 297 616 567 616 c 0
 567 1500 l 0
EndSplineSet
Colour: ff00
EndChar

StartChar: periodcentered
Encoding: 183 183 187
Width: 632
VWidth: 1000
Flags: HMW
LayerCount: 4
Fore
SplineSet
116 660 m 4
 116 771 205 860 316 860 c 4
 427 860 516 771 516 660 c 4
 516 549 427 460 316 460 c 4
 205 460 116 549 116 660 c 4
EndSplineSet
Colour: ff00
EndChar

StartChar: cedilla
Encoding: 184 184 188
Width: 550
VWidth: 1000
Flags: HMW
LayerCount: 4
Fore
SplineSet
64 -314 m 1
 193 -239 l 1
 215 -268 255 -272 270 -272 c 0
 305 -272 326 -261 326 -246 c 0
 326 -231 305 -220 270 -220 c 0
 255 -220 236 -223 223 -232 c 1
 93 -170 l 1
 128 -120 172 -60 270 -60 c 0
 390 -60 486 -146 486 -246 c 0
 486 -346 420 -432 270 -432 c 0
 170 -432 110 -375 64 -314 c 1
195 0 m 1
 355 0 l 1
 230 -205 l 1
 223 -232 l 1
 94 -171 l 1
 195 0 l 1
EndSplineSet
Colour: ffc71c
EndChar

StartChar: threequarters
Encoding: 190 190 189
Width: 2228
VWidth: 1548
Flags: HMW
LayerCount: 4
Fore
SplineSet
460 1164 m 6
 530 1164 557 1183 557 1211 c 0
 557 1239 530 1258 460 1258 c 0
 390 1258 363 1229 363 1191 c 0
 97 1264 l 1
 114 1416 247 1498 460 1498 c 0
 687 1498 825 1405 825 1232 c 0
 825 1112 746 1075 746 1075 c 1
 746 1075 863 1034 863 887 c 0
 863 697 708 604 460 604 c 0
 224 604 85 707 60 859 c 1
 329 932 l 0
 329 878 372 844 460 844 c 0
 548 844 593 868 593 912 c 0
 593 956 548 980 460 980 c 6
 390 980 l 9
 390 1164 l 25
 460 1164 l 6
1939 858 m 1
 1645 858 l 1
 1383 354 l 1
 1383 114 l 1
 1779 114 l 1
 1779 0 l 1
 2049 0 l 1
 2049 114 l 1
 2153 114 l 1
 2153 354 l 1
 2049 354 l 1
 2049 468 l 1
 1787 468 l 1
 1787 354 l 1
 1671 354 l 1
 1939 858 l 1
868 67 m 1
 652 191 l 1
 1360 1413 l 1
 1576 1289 l 1
 868 67 l 1
EndSplineSet
Colour: ff8000
EndChar

StartChar: onequarter
Encoding: 188 188 190
Width: 2228
VWidth: 1548
Flags: HMW
LayerCount: 4
Fore
SplineSet
1939 858 m 1
 1645 858 l 1
 1383 354 l 1
 1383 114 l 1
 1779 114 l 1
 1779 0 l 1
 2049 0 l 1
 2049 114 l 1
 2153 114 l 1
 2153 354 l 1
 2049 354 l 1
 2049 468 l 1
 1787 468 l 1
 1787 354 l 1
 1671 354 l 1
 1939 858 l 1
383 1078 m 1
 163 1078 l 1
 163 1318 l 1
 219 1318 l 2
 321 1318 400 1388 400 1464 c 2
 400 1480 l 1
 653 1480 l 1
 653 1225 l 1
 653 622 l 1
 383 622 l 1
 383 1078 l 1
868 67 m 5
 652 191 l 1
 1360 1413 l 1
 1576 1289 l 1
 868 67 l 5
EndSplineSet
Substitution2: "'ss09' Bar below digit 1-1" onequarter.ss09
Colour: ff8000
EndChar

StartChar: onehalf
Encoding: 189 189 191
Width: 2228
VWidth: 1548
Flags: HMW
LayerCount: 4
Fore
SplineSet
1392 0 m 1
 1392 127 1405 309 1768 478 c 0
 1822 503 1876 523 1876 566 c 0
 1876 615 1823 636 1768 636 c 0
 1701 636 1672 597 1672 550 c 4
 1672 509 1681 490 1681 490 c 5
 1402 550 l 1
 1402 751 1559 876 1768 876 c 0
 1977 876 2144 769 2144 591 c 0
 2144 413 2047 366 1886 291 c 0
 1841 270 1809 255 1796 240 c 1
 2144 240 l 1
 2144 0 l 1
 1629 0 l 1
 1460 0 l 1
 1392 0 l 1
383 1078 m 1
 163 1078 l 1
 163 1318 l 1
 219 1318 l 2
 321 1318 400 1388 400 1464 c 2
 400 1480 l 1
 653 1480 l 1
 653 1225 l 1
 653 622 l 1
 383 622 l 1
 383 1078 l 1
868 67 m 1
 652 191 l 1
 1360 1413 l 1
 1576 1289 l 1
 868 67 l 1
EndSplineSet
Substitution2: "'ss09' Bar below digit 1-1" onehalf.ss09
Colour: ff8000
EndChar

StartChar: uni2156
Encoding: 8534 8534 192
Width: 2228
VWidth: 1548
Flags: HMW
LayerCount: 4
Fore
SplineSet
1414 396 m 1
 1472 858 l 1
 1601 858 l 1
 1730 858 l 1
 2096 858 l 1
 2096 618 l 1
 1690 618 l 1
 1680 546 l 1
 1705 568 1724 576 1784 576 c 0
 2009 576 2152 479 2152 279 c 0
 2152 79 1993 -18 1768 -18 c 0
 1532 -18 1411 85 1386 237 c 1
 1655 310 l 0
 1655 256 1680 222 1768 222 c 0
 1838 222 1881 248 1881 294 c 0
 1881 340 1838 366 1768 366 c 0
 1698 366 1694 358 1658 331 c 1
 1414 396 l 1
84 622 m 1
 84 749 97 931 460 1100 c 0
 514 1125 568 1145 568 1188 c 0
 568 1237 515 1258 460 1258 c 0
 393 1258 364 1219 364 1172 c 4
 364 1131 373 1112 373 1112 c 5
 94 1172 l 1
 94 1373 251 1498 460 1498 c 0
 669 1498 836 1391 836 1213 c 0
 836 1035 739 988 578 913 c 0
 533 892 501 877 488 862 c 1
 836 862 l 1
 836 622 l 1
 321 622 l 1
 152 622 l 1
 84 622 l 1
868 67 m 1
 652 191 l 1
 1360 1413 l 1
 1576 1289 l 1
 868 67 l 1
EndSplineSet
Colour: ff8000
EndChar

StartChar: twothirds
Encoding: 8532 8532 193
Width: 2228
VWidth: 1548
Flags: HMW
LayerCount: 4
Fore
SplineSet
1768 542 m 2
 1838 542 1865 561 1865 589 c 0
 1865 617 1838 636 1768 636 c 0
 1698 636 1671 607 1671 569 c 0
 1405 642 l 1
 1422 794 1555 876 1768 876 c 0
 1995 876 2133 783 2133 610 c 0
 2133 490 2054 453 2054 453 c 1
 2054 453 2171 412 2171 265 c 0
 2171 75 2016 -18 1768 -18 c 0
 1532 -18 1393 85 1368 237 c 1
 1637 310 l 0
 1637 256 1680 222 1768 222 c 0
 1856 222 1901 246 1901 290 c 0
 1901 334 1856 358 1768 358 c 2
 1698 358 l 9
 1698 542 l 25
 1768 542 l 2
84 622 m 1
 84 749 97 931 460 1100 c 0
 514 1125 568 1145 568 1188 c 0
 568 1237 515 1258 460 1258 c 0
 393 1258 364 1219 364 1172 c 4
 364 1131 373 1112 373 1112 c 5
 94 1172 l 1
 94 1373 251 1498 460 1498 c 0
 669 1498 836 1391 836 1213 c 0
 836 1035 739 988 578 913 c 0
 533 892 501 877 488 862 c 1
 836 862 l 1
 836 622 l 1
 321 622 l 1
 152 622 l 1
 84 622 l 1
868 67 m 1
 652 191 l 1
 1360 1413 l 1
 1576 1289 l 1
 868 67 l 1
EndSplineSet
Colour: ff8000
EndChar

StartChar: uni215F
Encoding: 8543 8543 194
Width: 2228
VWidth: 1548
Flags: HMW
LayerCount: 4
Fore
SplineSet
383 1078 m 1
 163 1078 l 1
 163 1318 l 1
 219 1318 l 2
 321 1318 400 1388 400 1464 c 2
 400 1480 l 1
 653 1480 l 1
 653 1225 l 1
 653 622 l 1
 383 622 l 1
 383 1078 l 1
868 67 m 5
 652 191 l 1
 1360 1413 l 1
 1576 1289 l 1
 868 67 l 5
EndSplineSet
Substitution2: "'ss09' Bar below digit 1-1" uni215F.ss09
Colour: ff8000
EndChar

StartChar: uni2150
Encoding: 8528 8528 195
Width: 2228
VWidth: 1548
Flags: HMW
LayerCount: 4
Fore
SplineSet
1378 619 m 1
 1378 858 l 1
 2118 858 l 1
 2118 639 l 1
 2118 639 1831 456 1780 0 c 1
 1729 0 1560 0 1509 0 c 1
 1566 455 1797 619 1797 619 c 1
 1378 619 l 1
383 1078 m 1
 163 1078 l 1
 163 1318 l 1
 219 1318 l 2
 321 1318 400 1388 400 1464 c 2
 400 1480 l 1
 653 1480 l 1
 653 1225 l 1
 653 622 l 1
 383 622 l 1
 383 1078 l 1
868 67 m 5
 652 191 l 1
 1360 1413 l 1
 1576 1289 l 1
 868 67 l 5
EndSplineSet
Substitution2: "'ss09' Bar below digit 1-1" uni2150.ss09
Colour: ff8000
EndChar

StartChar: uni2151
Encoding: 8529 8529 196
Width: 2228
VWidth: 1548
Flags: HMW
LayerCount: 4
Fore
SplineSet
1899 334 m 1
 1867 293 1842 276 1745 276 c 0
 1520 276 1390 382 1390 576 c 0
 1390 770 1538 876 1768 876 c 0
 1910 876 2019 836 2082 738 c 0
 2135 655 2166 559 2166 456 c 0
 2166 174 2042 -18 1682 -18 c 0
 1521 -18 1425 62 1425 62 c 1
 1542 268 l 1
 1542 268 1620 222 1732 222 c 0
 1844 222 1886 273 1899 334 c 1
1874 561 m 0
 1874 611 1828 636 1768 636 c 0
 1708 636 1661 611 1661 561 c 0
 1661 511 1708 486 1768 486 c 0
 1828 486 1874 511 1874 561 c 0
383 1078 m 1
 163 1078 l 1
 163 1318 l 1
 219 1318 l 2
 321 1318 400 1388 400 1464 c 2
 400 1480 l 1
 653 1480 l 1
 653 1225 l 1
 653 622 l 1
 383 622 l 1
 383 1078 l 1
868 67 m 5
 652 191 l 1
 1360 1413 l 1
 1576 1289 l 1
 868 67 l 5
EndSplineSet
Substitution2: "'ss09' Bar below digit 1-1" uni2151.ss09
Colour: ff8000
EndChar

StartChar: uni2152
Encoding: 8530 8530 197
Width: 2793
VWidth: 1548
Flags: HMW
LayerCount: 4
Fore
SplineSet
2187 429 m 0
 2187 273 2241 222 2313 222 c 0
 2385 222 2439 273 2439 429 c 0
 2439 585 2385 636 2313 636 c 0
 2241 636 2187 585 2187 429 c 0
1917 428 m 4
 1917 718 2075 876 2313 876 c 0
 2551 876 2709 718 2709 428 c 0
 2709 138 2551 -18 2313 -18 c 0
 2075 -18 1917 138 1917 428 c 4
1532 456 m 1
 1312 456 l 1
 1312 696 l 1
 1368 696 l 2
 1470 696 1549 766 1549 842 c 2
 1549 858 l 1
 1802 858 l 1
 1802 603 l 1
 1802 0 l 1
 1532 0 l 1
 1532 456 l 1
383 1078 m 1
 163 1078 l 1
 163 1318 l 1
 219 1318 l 2
 321 1318 400 1388 400 1464 c 2
 400 1480 l 1
 653 1480 l 1
 653 1225 l 1
 653 622 l 1
 383 622 l 1
 383 1078 l 1
868 67 m 1
 652 191 l 1
 1360 1413 l 1
 1576 1289 l 1
 868 67 l 1
EndSplineSet
Substitution2: "'ss09' Bar below digit 1-1" uni2152.ss09
Substitution2: "'zero' Slashed Zero lookups0-1" uni2152.zero
Colour: ff8000
EndChar

StartChar: onethird
Encoding: 8531 8531 198
Width: 2228
VWidth: 1548
Flags: HMW
LayerCount: 4
Fore
SplineSet
1768 542 m 2
 1838 542 1865 561 1865 589 c 0
 1865 617 1838 636 1768 636 c 0
 1698 636 1671 607 1671 569 c 0
 1405 642 l 1
 1422 794 1555 876 1768 876 c 0
 1995 876 2133 783 2133 610 c 0
 2133 490 2054 453 2054 453 c 1
 2054 453 2171 412 2171 265 c 0
 2171 75 2016 -18 1768 -18 c 0
 1532 -18 1393 85 1368 237 c 1
 1637 310 l 0
 1637 256 1680 222 1768 222 c 0
 1856 222 1901 246 1901 290 c 0
 1901 334 1856 358 1768 358 c 2
 1698 358 l 9
 1698 542 l 25
 1768 542 l 2
383 1078 m 1
 163 1078 l 1
 163 1318 l 1
 219 1318 l 2
 321 1318 400 1388 400 1464 c 2
 400 1480 l 1
 653 1480 l 1
 653 1225 l 1
 653 622 l 1
 383 622 l 1
 383 1078 l 1
868 67 m 5
 652 191 l 1
 1360 1413 l 1
 1576 1289 l 1
 868 67 l 5
EndSplineSet
Substitution2: "'ss09' Bar below digit 1-1" onethird.ss09
Colour: ff8000
EndChar

StartChar: uni2159
Encoding: 8537 8537 199
Width: 2228
VWidth: 1548
Flags: HMW
LayerCount: 4
Fore
SplineSet
1637 524 m 5
 1669 565 1694 582 1791 582 c 4
 2016 582 2146 476 2146 282 c 4
 2146 88 1998 -18 1768 -18 c 4
 1626 -18 1517 22 1454 120 c 4
 1401 203 1370 299 1370 402 c 4
 1370 684 1494 876 1854 876 c 4
 2015 876 2111 796 2111 796 c 5
 1994 590 l 5
 1994 590 1916 636 1804 636 c 4
 1692 636 1650 585 1637 524 c 5
1662 297 m 4
 1662 247 1708 222 1768 222 c 4
 1828 222 1875 247 1875 297 c 4
 1875 347 1828 372 1768 372 c 4
 1708 372 1662 347 1662 297 c 4
383 1078 m 1
 163 1078 l 1
 163 1318 l 1
 219 1318 l 2
 321 1318 400 1388 400 1464 c 2
 400 1480 l 1
 653 1480 l 1
 653 1225 l 1
 653 622 l 1
 383 622 l 1
 383 1078 l 1
868 67 m 1
 652 191 l 1
 1360 1413 l 1
 1576 1289 l 1
 868 67 l 1
EndSplineSet
Substitution2: "'ss09' Bar below digit 1-1" uni2159.ss09
Colour: ff8000
EndChar

StartChar: oneeighth
Encoding: 8539 8539 200
Width: 2228
VWidth: 1548
Flags: HMW
LayerCount: 4
Fore
SplineSet
1367 265 m 4
 1367 412 1481 453 1481 453 c 5
 1481 453 1403 490 1403 610 c 4
 1403 783 1541 876 1768 876 c 4
 1995 876 2133 783 2133 610 c 4
 2133 490 2054 453 2054 453 c 5
 2054 453 2171 412 2171 265 c 4
 2171 75 2016 -18 1768 -18 c 4
 1520 -18 1367 75 1367 265 c 4
1671 589 m 4
 1671 561 1698 542 1768 542 c 4
 1838 542 1865 561 1865 589 c 4
 1865 617 1838 636 1768 636 c 4
 1698 636 1671 617 1671 589 c 4
1768 358 m 4
 1680 358 1637 334 1637 290 c 4
 1637 246 1680 222 1768 222 c 4
 1856 222 1901 246 1901 290 c 4
 1901 334 1856 358 1768 358 c 4
383 1078 m 1
 163 1078 l 1
 163 1318 l 1
 219 1318 l 2
 321 1318 400 1388 400 1464 c 2
 400 1480 l 1
 653 1480 l 1
 653 1225 l 1
 653 622 l 1
 383 622 l 1
 383 1078 l 1
868 67 m 1
 652 191 l 1
 1360 1413 l 1
 1576 1289 l 1
 868 67 l 1
EndSplineSet
Substitution2: "'ss09' Bar below digit 1-1" oneeighth.ss09
Colour: ff8000
EndChar

StartChar: uni2155
Encoding: 8533 8533 201
Width: 2228
VWidth: 1548
Flags: HMW
LayerCount: 4
Fore
SplineSet
1414 396 m 1
 1472 858 l 1
 1601 858 l 1
 1730 858 l 1
 2096 858 l 1
 2096 618 l 1
 1690 618 l 1
 1680 546 l 1
 1705 568 1724 576 1784 576 c 0
 2009 576 2152 479 2152 279 c 0
 2152 79 1993 -18 1768 -18 c 0
 1532 -18 1411 85 1386 237 c 1
 1655 310 l 0
 1655 256 1680 222 1768 222 c 0
 1838 222 1881 248 1881 294 c 0
 1881 340 1838 366 1768 366 c 0
 1698 366 1694 358 1658 331 c 1
 1414 396 l 1
383 1078 m 1
 163 1078 l 1
 163 1318 l 1
 219 1318 l 2
 321 1318 400 1388 400 1464 c 2
 400 1480 l 1
 653 1480 l 1
 653 1225 l 1
 653 622 l 1
 383 622 l 1
 383 1078 l 1
868 67 m 5
 652 191 l 1
 1360 1413 l 1
 1576 1289 l 1
 868 67 l 5
EndSplineSet
Substitution2: "'ss09' Bar below digit 1-1" uni2155.ss09
Colour: ff8000
EndChar

StartChar: uni2157
Encoding: 8535 8535 202
Width: 2228
VWidth: 1548
Flags: HMW
LayerCount: 4
Fore
SplineSet
1414 396 m 1
 1472 858 l 1
 1601 858 l 1
 1730 858 l 1
 2096 858 l 1
 2096 618 l 1
 1690 618 l 1
 1680 546 l 1
 1705 568 1724 576 1784 576 c 0
 2009 576 2152 479 2152 279 c 0
 2152 79 1993 -18 1768 -18 c 0
 1532 -18 1411 85 1386 237 c 1
 1655 310 l 0
 1655 256 1680 222 1768 222 c 0
 1838 222 1881 248 1881 294 c 0
 1881 340 1838 366 1768 366 c 0
 1698 366 1694 358 1658 331 c 1
 1414 396 l 1
460 1164 m 6
 530 1164 557 1183 557 1211 c 0
 557 1239 530 1258 460 1258 c 0
 390 1258 363 1229 363 1191 c 0
 97 1264 l 1
 114 1416 247 1498 460 1498 c 0
 687 1498 825 1405 825 1232 c 0
 825 1112 746 1075 746 1075 c 1
 746 1075 863 1034 863 887 c 0
 863 697 708 604 460 604 c 0
 224 604 85 707 60 859 c 1
 329 932 l 0
 329 878 372 844 460 844 c 0
 548 844 593 868 593 912 c 0
 593 956 548 980 460 980 c 2
 390 980 l 9
 390 1164 l 25
 460 1164 l 6
868 67 m 1
 652 191 l 1
 1360 1413 l 1
 1576 1289 l 1
 868 67 l 1
EndSplineSet
Colour: ff8000
EndChar

StartChar: uni2158
Encoding: 8536 8536 203
Width: 2228
VWidth: 1548
Flags: HMW
LayerCount: 4
Fore
SplineSet
1414 396 m 1
 1472 858 l 1
 1601 858 l 1
 1730 858 l 1
 2096 858 l 1
 2096 618 l 1
 1690 618 l 1
 1680 546 l 1
 1705 568 1724 576 1784 576 c 0
 2009 576 2152 479 2152 279 c 0
 2152 79 1993 -18 1768 -18 c 0
 1532 -18 1411 85 1386 237 c 1
 1655 310 l 0
 1655 256 1680 222 1768 222 c 0
 1838 222 1881 248 1881 294 c 0
 1881 340 1838 366 1768 366 c 0
 1698 366 1694 358 1658 331 c 1
 1414 396 l 1
631 1480 m 1
 337 1480 l 1
 75 976 l 1
 75 736 l 1
 471 736 l 1
 471 622 l 1
 741 622 l 1
 741 736 l 1
 845 736 l 1
 845 976 l 1
 741 976 l 1
 741 1090 l 1
 479 1090 l 1
 479 976 l 1
 363 976 l 1
 631 1480 l 1
868 67 m 5
 652 191 l 1
 1360 1413 l 1
 1576 1289 l 1
 868 67 l 5
EndSplineSet
Colour: ff8000
EndChar

StartChar: uni215A
Encoding: 8538 8538 204
Width: 2228
VWidth: 1548
Flags: HMW
LayerCount: 4
Fore
SplineSet
1637 524 m 5
 1669 565 1694 582 1791 582 c 4
 2016 582 2146 476 2146 282 c 4
 2146 88 1998 -18 1768 -18 c 4
 1626 -18 1517 22 1454 120 c 4
 1401 203 1370 299 1370 402 c 4
 1370 684 1494 876 1854 876 c 4
 2015 876 2111 796 2111 796 c 5
 1994 590 l 5
 1994 590 1916 636 1804 636 c 4
 1692 636 1650 585 1637 524 c 5
1662 297 m 4
 1662 247 1708 222 1768 222 c 4
 1828 222 1875 247 1875 297 c 4
 1875 347 1828 372 1768 372 c 4
 1708 372 1662 347 1662 297 c 4
106 1018 m 1
 164 1480 l 1
 293 1480 l 1
 422 1480 l 1
 788 1480 l 1
 788 1240 l 1
 382 1240 l 1
 372 1168 l 1
 397 1190 416 1198 476 1198 c 0
 701 1198 844 1101 844 901 c 0
 844 701 685 604 460 604 c 0
 224 604 103 707 78 859 c 1
 347 932 l 0
 347 878 372 844 460 844 c 0
 530 844 573 870 573 916 c 0
 573 962 530 988 460 988 c 0
 390 988 386 980 350 953 c 1
 106 1018 l 1
868 67 m 1
 652 191 l 1
 1360 1413 l 1
 1576 1289 l 1
 868 67 l 1
EndSplineSet
Colour: ff8000
EndChar

StartChar: threeeighths
Encoding: 8540 8540 205
Width: 2228
VWidth: 1548
Flags: HMW
LayerCount: 4
Fore
SplineSet
1367 265 m 4
 1367 412 1481 453 1481 453 c 5
 1481 453 1403 490 1403 610 c 4
 1403 783 1541 876 1768 876 c 4
 1995 876 2133 783 2133 610 c 4
 2133 490 2054 453 2054 453 c 5
 2054 453 2171 412 2171 265 c 4
 2171 75 2016 -18 1768 -18 c 4
 1520 -18 1367 75 1367 265 c 4
1671 589 m 4
 1671 561 1698 542 1768 542 c 4
 1838 542 1865 561 1865 589 c 4
 1865 617 1838 636 1768 636 c 4
 1698 636 1671 617 1671 589 c 4
1768 358 m 4
 1680 358 1637 334 1637 290 c 4
 1637 246 1680 222 1768 222 c 4
 1856 222 1901 246 1901 290 c 4
 1901 334 1856 358 1768 358 c 4
460 1164 m 2
 530 1164 557 1183 557 1211 c 0
 557 1239 530 1258 460 1258 c 0
 390 1258 363 1229 363 1191 c 0
 97 1264 l 1
 114 1416 247 1498 460 1498 c 0
 687 1498 825 1405 825 1232 c 0
 825 1112 746 1075 746 1075 c 1
 746 1075 863 1034 863 887 c 0
 863 697 708 604 460 604 c 0
 224 604 85 707 60 859 c 1
 329 932 l 0
 329 878 372 844 460 844 c 0
 548 844 593 868 593 912 c 0
 593 956 548 980 460 980 c 2
 390 980 l 9
 390 1164 l 25
 460 1164 l 2
868 67 m 1
 652 191 l 1
 1360 1413 l 1
 1576 1289 l 1
 868 67 l 1
EndSplineSet
Colour: ff8000
EndChar

StartChar: fiveeighths
Encoding: 8541 8541 206
Width: 2228
VWidth: 1548
Flags: HMW
LayerCount: 4
Fore
SplineSet
1367 265 m 4
 1367 412 1481 453 1481 453 c 5
 1481 453 1403 490 1403 610 c 4
 1403 783 1541 876 1768 876 c 4
 1995 876 2133 783 2133 610 c 4
 2133 490 2054 453 2054 453 c 5
 2054 453 2171 412 2171 265 c 4
 2171 75 2016 -18 1768 -18 c 4
 1520 -18 1367 75 1367 265 c 4
1671 589 m 4
 1671 561 1698 542 1768 542 c 4
 1838 542 1865 561 1865 589 c 4
 1865 617 1838 636 1768 636 c 4
 1698 636 1671 617 1671 589 c 4
1768 358 m 4
 1680 358 1637 334 1637 290 c 4
 1637 246 1680 222 1768 222 c 4
 1856 222 1901 246 1901 290 c 4
 1901 334 1856 358 1768 358 c 4
106 1018 m 1
 164 1480 l 1
 293 1480 l 1
 422 1480 l 1
 788 1480 l 1
 788 1240 l 1
 382 1240 l 1
 372 1168 l 1
 397 1190 416 1198 476 1198 c 0
 701 1198 844 1101 844 901 c 0
 844 701 685 604 460 604 c 0
 224 604 103 707 78 859 c 1
 347 932 l 0
 347 878 372 844 460 844 c 0
 530 844 573 870 573 916 c 0
 573 962 530 988 460 988 c 0
 390 988 386 980 350 953 c 1
 106 1018 l 1
868 67 m 1
 652 191 l 1
 1360 1413 l 1
 1576 1289 l 1
 868 67 l 1
EndSplineSet
Colour: ff8000
EndChar

StartChar: seveneighths
Encoding: 8542 8542 207
Width: 2228
VWidth: 1548
Flags: HMW
LayerCount: 4
Fore
SplineSet
1367 265 m 4
 1367 412 1481 453 1481 453 c 5
 1481 453 1403 490 1403 610 c 4
 1403 783 1541 876 1768 876 c 4
 1995 876 2133 783 2133 610 c 4
 2133 490 2054 453 2054 453 c 5
 2054 453 2171 412 2171 265 c 4
 2171 75 2016 -18 1768 -18 c 4
 1520 -18 1367 75 1367 265 c 4
1671 589 m 4
 1671 561 1698 542 1768 542 c 4
 1838 542 1865 561 1865 589 c 4
 1865 617 1838 636 1768 636 c 4
 1698 636 1671 617 1671 589 c 4
1768 358 m 4
 1680 358 1637 334 1637 290 c 4
 1637 246 1680 222 1768 222 c 4
 1856 222 1901 246 1901 290 c 4
 1901 334 1856 358 1768 358 c 4
90 1241 m 1
 90 1480 l 1
 830 1480 l 1
 830 1261 l 1
 830 1261 543 1078 492 622 c 1
 441 622 272 622 221 622 c 1
 278 1077 509 1241 509 1241 c 1
 90 1241 l 1
868 67 m 1
 652 191 l 1
 1360 1413 l 1
 1576 1289 l 1
 868 67 l 1
EndSplineSet
Colour: ff8000
EndChar

StartChar: uni2189
Encoding: 8585 8585 208
Width: 2228
VWidth: 1548
Flags: HMW
LayerCount: 4
Fore
SplineSet
334 1051 m 0
 334 895 388 844 460 844 c 0
 532 844 586 895 586 1051 c 0
 586 1207 532 1258 460 1258 c 0
 388 1258 334 1207 334 1051 c 0
64 1050 m 0
 64 1340 222 1498 460 1498 c 0
 698 1498 856 1340 856 1050 c 0
 856 760 698 604 460 604 c 0
 222 604 64 760 64 1050 c 0
1768 542 m 6
 1838 542 1865 561 1865 589 c 0
 1865 617 1838 636 1768 636 c 0
 1698 636 1671 607 1671 569 c 0
 1405 642 l 1
 1422 794 1555 876 1768 876 c 0
 1995 876 2133 783 2133 610 c 0
 2133 490 2054 453 2054 453 c 1
 2054 453 2171 412 2171 265 c 0
 2171 75 2016 -18 1768 -18 c 0
 1532 -18 1393 85 1368 237 c 1
 1637 310 l 0
 1637 256 1680 222 1768 222 c 0
 1856 222 1901 246 1901 290 c 0
 1901 334 1856 358 1768 358 c 2
 1698 358 l 9
 1698 542 l 25
 1768 542 l 6
868 67 m 1
 652 191 l 1
 1360 1413 l 1
 1576 1289 l 1
 868 67 l 1
EndSplineSet
Substitution2: "'zero' Slashed Zero lookups0-1" uni2189.zero
Colour: ff8000
EndChar

StartChar: AE
Encoding: 198 198 209
Width: 2420
Flags: HMW
AnchorPoint: "top_center" 1587 1380 basechar 0
AnchorPoint: "bottom_center" 1190 0 basechar 0
LayerCount: 4
Fore
SplineSet
899 1144 m 1
 899 1480 l 1
 1322 1480 l 1
 1322 1144 l 1
 899 1144 l 1
603 688 m 1
 1190 688 l 1
 1190 352 l 1
 603 352 l 1
 603 688 l 1
58 0 m 1
 899 1480 l 1
 1322 1480 l 1
 498 0 l 1
 58 0 l 1
2190 908 m 17
 2190 572 l 9
 1570 572 l 17
 1570 336 l 1
 2304 336 l 1
 2304 0 l 1
 1190 0 l 25
 1190 1480 l 1
 2304 1480 l 17
 2304 1144 l 1
 1570 1144 l 1
 1570 908 l 9
 2190 908 l 17
EndSplineSet
Colour: ffff
EndChar

StartChar: multiply
Encoding: 215 215 210
Width: 1370
Flags: HMW
LayerCount: 4
Fore
SplineSet
169 950 m 5
 975 144 l 5
 1201 370 l 13
 395 1176 l 5
 169 950 l 5
396 145 m 5
 1200 949 l 5
 974 1175 l 13
 170 371 l 5
 396 145 l 5
EndSplineSet
Substitution2: "'ss07' Bigger basic math operators lookups0-1" multiply.ss07
Colour: ff00
EndChar

StartChar: Eth
Encoding: 208 208 211
Width: 1660
Flags: HMW
LayerCount: 4
Fore
SplineSet
860 620 m 5
 860 860 l 5
 0 860 l 5
 0 814 0 666 0 620 c 5
 860 620 l 5
590 1144 m 25
 810 1144 l 17
 1004 1144 1196 1013 1196 740 c 0
 1196 467 1014 336 810 336 c 9
 590 336 l 25
 590 1144 l 25
810 0 m 1
 1266 0 1576 290 1576 740 c 0
 1576 1190 1266 1480 810 1480 c 1
 210 1480 l 1
 210 0 l 1
 438 0 l 25
 810 0 l 1
EndSplineSet
Colour: ffff
EndChar

StartChar: Oslash
Encoding: 216 216 212
Width: 1688
Flags: HMW
AnchorPoint: "bottom_center" 844 0 basechar 0
AnchorPoint: "top_center" 844 1380 basechar 0
LayerCount: 4
Fore
SplineSet
1341 1650 m 1
 1594 1454 l 25
 347 -170 l 25
 94 26 l 1
 1341 1650 l 1
464 740 m 0
 464 490 594 306 844 306 c 0
 1094 306 1224 490 1224 740 c 0
 1224 990 1094 1174 844 1174 c 0
 594 1174 464 990 464 740 c 0
84 740 m 0
 84 1190 384 1510 844 1510 c 0
 1304 1510 1604 1190 1604 740 c 0
 1604 290 1304 -30 844 -30 c 0
 384 -30 84 290 84 740 c 0
EndSplineSet
Substitution2: "sous-table 'c2sc' Capitales vers petites capitales dans Latin lookup 0" oslash.sc
Colour: ffff
EndChar

StartChar: Thorn
Encoding: 222 222 213
Width: 1338
Flags: HMW
LayerCount: 4
Fore
SplineSet
496 899 m 1
 496 579 l 1
 683 579 l 17
 803 579 874 629 874 739 c 0
 874 849 803 899 683 899 c 9
 496 899 l 1
116 0 m 5
 116 1193 l 1
 116 1480 l 1
 496 1480 l 1
 496 1235 l 1
 683 1235 l 1
 1069 1235 1254 994 1254 739 c 0
 1254 484 1069 243 683 243 c 1
 496 243 l 1
 496 0 l 25
 116 0 l 5
EndSplineSet
Substitution2: "sous-table 'c2sc' Capitales vers petites capitales dans Latin lookup 0" thorn.sc
Colour: ffff
EndChar

StartChar: thorn
Encoding: 254 254 214
Width: 1330
VWidth: 1000
Flags: HMW
LayerCount: 4
Fore
SplineSet
466 518 m 0
 466 388 539 290 676 290 c 0
 813 290 886 390 886 520 c 0
 886 650 813 750 676 750 c 0
 539 750 466 648 466 518 c 0
116 520 m 25
 116 1480 l 1
 476 1480 l 1
 476 1480 476 960 476 920 c 1
 486 959 591 1070 741 1070 c 0
 1061 1070 1246 840 1246 520 c 0
 1246 200 1061 -30 741 -30 c 0
 591 -30 486 81 476 120 c 1
 476 -440 l 1
 116 -440 l 1
 116 520 l 25
EndSplineSet
Substitution2: "sous-table 'smcp' Bas-de-casse vers petites capitales dans Latin lookup 0" thorn.sc
Colour: ff00
EndChar

StartChar: ae
Encoding: 230 230 215
Width: 1964
VWidth: 1000
Flags: HMW
AnchorPoint: "bottom_center" 965 0 basechar 0
AnchorPoint: "top_center" 1005 1040 basechar 0
LayerCount: 4
Fore
SplineSet
906 660 m 1
 1812 660 l 1
 1510 400 l 1
 906 400 l 1
 906 660 l 1
1519 368 m 1
 1826 242 l 1
 1734 65 1552 -30 1330 -30 c 0
 1009 -30 780 200 780 520 c 0
 780 840 1010 1070 1330 1070 c 0
 1650 1070 1880 840 1880 520 c 0
 1880 479 1875 438 1868 400 c 1
 1510 400 l 1
 1524 435 1550 476 1550 520 c 0
 1550 657 1467 750 1330 750 c 0
 1193 750 1114 657 1114 520 c 0
 1114 390 1192 290 1330 290 c 0
 1444 290 1501 329 1519 368 c 1
564 -30 m 0
 258 -30 84 135 84 335 c 0
 84 535 306 680 612 680 c 0
 882 680 1052 545 1052 345 c 1
 1052 145 934 -30 564 -30 c 0
780 345 m 0
 780 385 712 400 612 400 c 0
 512 400 444 385 444 345 c 0
 444 305 512 290 612 290 c 0
 712 290 780 305 780 345 c 0
1140 257 m 29
 780 450 l 25
 780 658 l 17
 780 718 744 761 612 761 c 0
 386 761 296 695 296 695 c 1
 132 966 l 1
 132 966 326 1080 612 1080 c 0
 907 1080 1140 978 1140 628 c 1
 1140 257 l 29
EndSplineSet
Substitution2: "sous-table 'smcp' Bas-de-casse vers petites capitales dans Latin lookup 0" ae.sc
Substitution2: "'ss04' Simplified a and g lookups0-1" ae.ss04
Colour: ff00
EndChar

StartChar: oslash
Encoding: 248 248 216
Width: 1288
VWidth: 1000
Flags: HMW
AnchorPoint: "bottom_center" 644 0 basechar 0
AnchorPoint: "top_center" 644 1040 basechar 0
LayerCount: 4
Fore
SplineSet
977 1209 m 1
 1232 1016 l 1
 309 -170 l 9
 56 26 l 1
 977 1209 l 1
454 520 m 0
 454 390 507 290 644 290 c 0
 781 290 834 383 834 520 c 0
 834 657 781 750 644 750 c 0
 507 750 454 657 454 520 c 0
94 520 m 0
 94 840 324 1070 644 1070 c 0
 964 1070 1194 840 1194 520 c 0
 1194 200 964 -30 644 -30 c 0
 324 -30 94 200 94 520 c 0
EndSplineSet
Substitution2: "sous-table 'smcp' Bas-de-casse vers petites capitales dans Latin lookup 0" oslash.sc
Colour: ff00
EndChar

StartChar: divide
Encoding: 247 247 217
Width: 1370
Flags: HMW
LayerCount: 4
Fore
SplineSet
485 230 m 4
 485 341 574 430 685 430 c 4
 796 430 885 341 885 230 c 4
 885 119 796 30 685 30 c 4
 574 30 485 119 485 230 c 4
485 1090 m 4
 485 1201 574 1290 685 1290 c 4
 796 1290 885 1201 885 1090 c 4
 885 979 796 890 685 890 c 4
 574 890 485 979 485 1090 c 4
116 500 m 1
 116 820 l 1
 1254 820 l 17
 1254 500 l 1
 116 500 l 1
EndSplineSet
Substitution2: "'ss07' Bigger basic math operators lookups0-1" divide.ss07
Colour: ff00
EndChar

StartChar: germandbls
Encoding: 223 223 218
Width: 1380
VWidth: 1000
Flags: HMW
LayerCount: 4
Back
SplineSet
681 856 m 0
 981 856 1218 661 1218 418 c 0
 1218 175 981 -20 681 -20 c 4
 599 -20 523 -6 457 20 c 5
 503 187 l 5
 552 161 611 148 681 148 c 4
 881 148 1028 262 1028 418 c 0
 1028 574 881 688 681 688 c 0
 681 856 l 0
EndSplineSet
Fore
SplineSet
728 290 m 0
 686 290 660 296 601 329 c 1
 536 10 l 1
 576 -3 678 -30 728 -30 c 0
 1087 -30 1296 176 1296 456 c 0
 1296 736 1024 932 664 932 c 0
 664 612 l 0
 784 612 936 576 936 456 c 0
 936 336 848 290 728 290 c 0
476 1056 m 0
 476 1136 562 1190 652 1190 c 0
 742 1190 828 1141 828 1056 c 0
 828 981 794 932 664 932 c 0
 724 692 l 4
 950 692 1188 801 1188 1056 c 0
 1188 1311 958 1510 652 1510 c 0
 346 1510 116 1311 116 1056 c 0
 116 801 116 0 116 0 c 9
 476 0 l 17
 476 0 476 976 476 1056 c 0
EndSplineSet
Substitution2: "sous-table 'smcp' Bas-de-casse vers petites capitales dans Latin lookup 0" germandbls.sc
Colour: ff00
EndChar

StartChar: eth
Encoding: 240 240 219
Width: 1315
VWidth: 1000
Flags: HMW
LayerCount: 4
Fore
SplineSet
792 1257 m 1
 943 1330 l 1
 873 1465 l 1
 703 1385 l 1
 297 1190 l 1
 366 1052 l 1
 792 1257 l 1
297 1260 m 1
 415 1193 836 1080 836 520 c 0
 1196 520 l 0
 1196 1000 896 1352 442 1540 c 1
 297 1260 l 1
360 520 m 4
 360 660 448 750 598 750 c 0
 748 750 836 660 836 520 c 0
 836 380 748 290 598 290 c 0
 448 290 360 380 360 520 c 4
0 520 m 0
 0 208 241 -30 598 -30 c 0
 955 -30 1196 208 1196 520 c 0
 1196 520 1059 520 1036 520 c 1
 1036 832 918 1070 598 1070 c 0
 241 1070 0 832 0 520 c 0
EndSplineSet
Colour: ff00
EndChar

StartChar: macron
Encoding: 175 175 220
Width: 860
VWidth: 1000
Flags: HMW
LayerCount: 4
Fore
SplineSet
64 1192 m 5
 64 1472 l 5
 796 1472 l 5
 796 1192 l 5
 64 1192 l 5
EndSplineSet
Colour: ff00
EndChar

StartChar: uni0304
Encoding: 772 772 221
Width: 0
VWidth: 1000
Flags: HMW
AnchorPoint: "top_center" 643 1040 mark 0
LayerCount: 4
Fore
SplineSet
277 1212 m 5
 277 1402 l 1
 1009 1402 l 1
 1009 1212 l 5
 277 1212 l 5
EndSplineSet
Colour: ffff00
EndChar

StartChar: uni0306
Encoding: 774 774 224
Width: 0
VWidth: 1000
Flags: HMW
AnchorPoint: "top_center" 642 1040 mark 0
LayerCount: 4
Fore
SplineSet
642 1194 m 4
 432 1194 306 1340 306 1480 c 5
 564 1480 l 5
 564 1450 592 1404 642 1404 c 4
 692 1404 718 1450 718 1480 c 5
 978 1480 l 5
 978 1340 852 1194 642 1194 c 4
EndSplineSet
Colour: ffff00
EndChar

StartChar: uni0328
Encoding: 808 808 226
Width: 0
VWidth: 1000
Flags: HMW
AnchorPoint: "bottom_right" 642 0 mark 0
LayerCount: 4
Fore
SplineSet
599 -225 m 5
 677 -368 l 5
 620 -418 569 -432 505 -432 c 4
 405 -432 292 -374 292 -224 c 4
 292 -64 494 65 542 100 c 4
 642 0 l 4
 534 -78 462 -137 462 -204 c 4
 462 -230 483 -261 515 -261 c 4
 559 -261 579 -256 599 -225 c 5
EndSplineSet
Layer: 2
SplineSet
654 -225 m 1
 712 -326 l 1
 657 -364 614 -380 550 -380 c 0
 450 -380 360 -310 360 -220 c 0
 360 -130 411 -62 519 0 c 0
 687 0 l 0
 579 -78 487 -137 487 -204 c 0
 487 -240 514 -263 550 -263 c 0
 586 -263 620 -250 654 -225 c 1
EndSplineSet
Colour: ffc71c
EndChar

StartChar: uni0307
Encoding: 775 775 229
Width: 0
VWidth: 1000
Flags: HMW
AnchorPoint: "top_center" 642 1040 mark 0
LayerCount: 4
Fore
SplineSet
442 1352 m 4
 442 1463 531 1552 642 1552 c 4
 753 1552 842 1463 842 1352 c 4
 842 1241 753 1152 642 1152 c 4
 531 1152 442 1241 442 1352 c 4
EndSplineSet
Colour: ff00
EndChar

StartChar: uni030C
Encoding: 780 780 230
Width: 0
VWidth: 1000
Flags: HMW
AnchorPoint: "top_center" 642 1040 mark 0
LayerCount: 4
Fore
SplineSet
585 1480 m 5
 745 1224 l 5
 439 1224 l 5
 234 1480 l 5
 585 1480 l 5
699 1480 m 5
 1050 1480 l 5
 845 1224 l 5
 539 1224 l 5
 699 1480 l 5
EndSplineSet
Colour: ffff00
EndChar

StartChar: uni0237
Encoding: 567 567 317
Width: 710
Flags: HMW
AnchorPoint: "bottom_center" 310 -360 basechar 0
AnchorPoint: "top_center" 414 1040 basechar 0
LayerCount: 4
Fore
SplineSet
104 -134 m 5
 117 -143 147 -150 166 -150 c 4
 218 -150 234 -128 234 -78 c 6
 234 0 l 1
 234 138 l 1
 234 1040 l 1
 594 1040 l 1
 594 138 l 1
 594 0 l 1
 594 -78 l 6
 594 -378 350 -470 166 -470 c 4
 78 -470 30 -439 4 -426 c 5
 104 -134 l 5
EndSplineSet
Substitution2: "sous-table 'smcp' Bas-de-casse vers petites capitales dans Latin lookup 0" uni0237.sc
Colour: ff00
EndChar

StartChar: Dcroat
Encoding: 272 272 318
Width: 1660
Flags: HMW
LayerCount: 4
Fore
SplineSet
860 620 m 5
 860 860 l 5
 0 860 l 5
 0 814 0 666 0 620 c 5
 860 620 l 5
590 1144 m 25
 810 1144 l 17
 1004 1144 1196 1013 1196 740 c 0
 1196 467 1014 336 810 336 c 9
 590 336 l 25
 590 1144 l 25
810 0 m 1
 1266 0 1576 290 1576 740 c 0
 1576 1190 1266 1480 810 1480 c 1
 210 1480 l 1
 210 0 l 1
 438 0 l 25
 810 0 l 1
EndSplineSet
Substitution2: "sous-table 'c2sc' Capitales vers petites capitales dans Latin lookup 0" dcroat.sc
Colour: ffff
EndChar

StartChar: oe
Encoding: 339 339 319
Width: 2008
VWidth: 1000
Flags: HMW
LayerCount: 4
Fore
SplineSet
950 660 m 1
 1856 660 l 1
 1554 400 l 1
 950 400 l 1
 950 660 l 1
1563 368 m 1
 1870 242 l 1
 1778 65 1596 -30 1374 -30 c 0
 1053 -30 824 200 824 520 c 0
 824 840 1054 1070 1374 1070 c 0
 1694 1070 1924 840 1924 520 c 0
 1924 479 1919 438 1912 400 c 1
 1554 400 l 1
 1568 435 1594 476 1594 520 c 0
 1594 657 1511 750 1374 750 c 0
 1237 750 1144 657 1144 520 c 0
 1144 390 1236 290 1374 290 c 0
 1488 290 1545 329 1563 368 c 1
444 520 m 0
 444 390 497 290 634 290 c 0
 771 290 824 383 824 520 c 0
 824 657 771 750 634 750 c 0
 497 750 444 657 444 520 c 0
84 520 m 0
 84 840 314 1070 634 1070 c 0
 954 1070 1184 840 1184 520 c 0
 1184 200 954 -30 634 -30 c 0
 314 -30 84 200 84 520 c 0
EndSplineSet
Substitution2: "sous-table 'smcp' Bas-de-casse vers petites capitales dans Latin lookup 0" oe.sc
Colour: ff00
EndChar

StartChar: OE
Encoding: 338 338 320
Width: 2454
Flags: HMW
LayerCount: 4
Fore
SplineSet
464 740 m 0
 464 490 594 306 844 306 c 0
 1094 306 1224 490 1224 740 c 0
 1224 990 1094 1174 844 1174 c 0
 594 1174 464 990 464 740 c 0
84 740 m 0
 84 1190 384 1510 844 1510 c 0
 1304 1510 1604 1190 1604 740 c 0
 1604 290 1304 -30 844 -30 c 0
 384 -30 84 290 84 740 c 0
2224 908 m 21
 2224 572 l 9
 1604 572 l 17
 1604 336 l 1
 2338 336 l 1
 2338 0 l 1
 1224 0 l 25
 1224 1480 l 1
 2338 1480 l 17
 2338 1144 l 1
 1604 1144 l 1
 1604 908 l 9
 2224 908 l 21
EndSplineSet
Colour: ffff
EndChar

StartChar: dcaron
Encoding: 271 271 322
Width: 1609
VWidth: 1000
Flags: HMW
LayerCount: 4
Fore
SplineSet
1330 1390 m 4
 1330 1457 1383 1510 1450 1510 c 4
 1517 1510 1570 1457 1570 1390 c 4
 1570 1323 1517 1270 1450 1270 c 4
 1383 1270 1330 1323 1330 1390 c 4
1339 1193 m 5
 1416 1205 1475 1254 1475 1307 c 4
 1475 1333 1451 1390 1451 1390 c 5
 1450 1510 l 5
 1518 1510 1609 1467 1609 1307 c 4
 1609 1180 1470 1082 1375 1065 c 5
 1339 1193 l 5
854 510 m 0
 854 640 791 750 654 750 c 0
 517 750 444 650 444 520 c 0
 444 390 517 290 654 290 c 0
 785 290 854 380 854 510 c 0
1214 168 m 1
 1214 66 1238 0 1238 0 c 1
 890 0 l 1
 890 0 866 60 866 120 c 1
 866 80 739 -30 589 -30 c 0
 269 -30 84 200 84 520 c 0
 84 840 269 1070 589 1070 c 0
 739 1070 844 959 854 920 c 1
 854 1480 l 1
 1214 1480 l 1
 1214 168 l 1
EndSplineSet
Substitution2: "sous-table 'smcp' Bas-de-casse vers petites capitales dans Latin lookup 0" dcaron.sc
Colour: ff00
EndChar

StartChar: dcroat
Encoding: 273 273 323
Width: 1609
VWidth: 1000
Flags: HMW
LayerCount: 4
Fore
SplineSet
1424 1120 m 5
 584 1120 l 5
 584 1166 584 1314 584 1360 c 5
 1424 1360 l 5
 1424 1120 l 5
854 510 m 0
 854 640 791 750 654 750 c 0
 517 750 444 650 444 520 c 0
 444 390 517 290 654 290 c 0
 785 290 854 380 854 510 c 0
1214 168 m 1
 1214 66 1238 0 1238 0 c 1
 890 0 l 1
 890 0 866 60 866 120 c 1
 866 80 739 -30 589 -30 c 0
 269 -30 84 200 84 520 c 0
 84 840 269 1070 589 1070 c 0
 739 1070 844 959 854 920 c 1
 854 1480 l 1
 1214 1480 l 1
 1214 168 l 1
EndSplineSet
Substitution2: "sous-table 'smcp' Bas-de-casse vers petites capitales dans Latin lookup 0" dcroat.sc
Colour: ff00
EndChar

StartChar: Hbar
Encoding: 294 294 324
Width: 1678
Flags: HMW
LayerCount: 4
Fore
SplineSet
1678 1004 m 5
 0 1004 l 5
 0 1050 0 1198 0 1244 c 5
 1678 1244 l 5
 1678 1004 l 5
168 1480 m 25
 548 1480 l 25
 548 908 l 25
 1130 908 l 25
 1130 1480 l 25
 1510 1480 l 25
 1510 0 l 25
 1130 0 l 25
 1130 572 l 25
 548 572 l 25
 548 0 l 25
 168 -10 l 25
 168 1480 l 25
EndSplineSet
Substitution2: "sous-table 'c2sc' Capitales vers petites capitales dans Latin lookup 0" hbar.sc
Colour: ffff
EndChar

StartChar: hbar
Encoding: 295 295 325
Width: 1378
VWidth: 1000
Flags: HMW
LayerCount: 4
Fore
SplineSet
840 1120 m 5
 0 1120 l 5
 0 1166 0 1314 0 1360 c 5
 840 1360 l 5
 840 1120 l 5
902 0 m 1
 902 572 l 2
 902 682 866 750 736 750 c 0
 606 750 570 682 570 572 c 2
 570 0 l 1
 210 0 l 1
 210 1480 l 1
 558 1480 l 1
 558 920 l 1
 593 981 682 1070 832 1070 c 0
 1096 1070 1262 892 1262 572 c 1
 1262 0 l 1
 902 0 l 1
EndSplineSet
Substitution2: "sous-table 'smcp' Bas-de-casse vers petites capitales dans Latin lookup 0" hbar.sc
Colour: ff00
EndChar

StartChar: Lcaron
Encoding: 317 317 332
Width: 1346
Flags: HMW
LayerCount: 4
Fore
SplineSet
612 1390 m 4
 612 1457 665 1510 732 1510 c 4
 799 1510 852 1457 852 1390 c 4
 852 1323 799 1270 732 1270 c 4
 665 1270 612 1323 612 1390 c 4
621 1193 m 5
 698 1205 757 1254 757 1307 c 4
 757 1333 733 1390 733 1390 c 5
 732 1510 l 5
 800 1510 891 1467 891 1307 c 4
 891 1180 752 1082 657 1065 c 5
 621 1193 l 5
496 1480 m 1
 496 336 l 1
 1230 336 l 1
 1230 0 l 1
 116 0 l 25
 116 1480 l 1
 496 1480 l 1
EndSplineSet
Substitution2: "sous-table 'c2sc' Capitales vers petites capitales dans Latin lookup 0" lcaron.sc
Colour: ffff
EndChar

StartChar: lcaron
Encoding: 318 318 333
Width: 871
Flags: HMW
LayerCount: 4
Fore
SplineSet
592 1390 m 0
 592 1457 645 1510 712 1510 c 0
 779 1510 832 1457 832 1390 c 0
 832 1323 779 1270 712 1270 c 0
 645 1270 592 1323 592 1390 c 0
601 1193 m 1
 678 1205 737 1254 737 1307 c 0
 737 1333 713 1390 713 1390 c 1
 712 1510 l 1
 780 1510 871 1467 871 1307 c 0
 871 1180 732 1082 637 1065 c 1
 601 1193 l 1
606 306 m 5
 706 14 l 5
 680 1 632 -30 544 -30 c 4
 360 -30 116 62 116 362 c 6
 116 440 l 1
 116 578 l 1
 116 1480 l 1
 476 1480 l 1
 476 578 l 1
 476 440 l 1
 476 362 l 6
 476 312 492 290 544 290 c 4
 563 290 593 297 606 306 c 5
EndSplineSet
Substitution2: "sous-table 'smcp' Bas-de-casse vers petites capitales dans Latin lookup 0" lcaron.sc
Colour: ff00
EndChar

StartChar: Lslash
Encoding: 321 321 334
Width: 1346
Flags: HMW
LayerCount: 4
Fore
SplineSet
766 1245 m 5
 766 956 l 5
 -94 460 l 5
 -94 749 l 5
 766 1245 l 5
496 1480 m 1
 496 336 l 1
 1230 336 l 1
 1230 0 l 1
 116 0 l 25
 116 1480 l 1
 496 1480 l 1
EndSplineSet
Substitution2: "sous-table 'c2sc' Capitales vers petites capitales dans Latin lookup 0" lslash.sc
Colour: ffff
EndChar

StartChar: lslash
Encoding: 322 322 335
Width: 871
Flags: HMW
LayerCount: 4
Fore
SplineSet
686 1199 m 5
 686 910 l 5
 -94 461 l 5
 -94 750 l 5
 686 1199 l 5
606 306 m 1
 706 14 l 1
 680 1 632 -30 544 -30 c 0
 360 -30 116 62 116 362 c 2
 116 440 l 1
 116 578 l 1
 116 1480 l 1
 476 1480 l 1
 476 578 l 1
 476 440 l 1
 476 362 l 2
 476 312 492 290 544 290 c 0
 563 290 593 297 606 306 c 1
EndSplineSet
Substitution2: "sous-table 'smcp' Bas-de-casse vers petites capitales dans Latin lookup 0" lslash.sc
Colour: ff00
EndChar

StartChar: Eng
Encoding: 330 330 339
Width: 1574
Flags: HMW
LayerCount: 4
Fore
SplineSet
1458 -78 m 2
 1458 -378 1290 -470 1026 -470 c 0
 938 -470 890 -439 864 -426 c 1
 964 -134 l 1
 977 -143 1007 -150 1026 -150 c 0
 1078 -150 1094 -128 1094 -78 c 2
 1094 0 l 1
 1458 0 l 1
 1458 -78 l 2
480 1480 m 1
 1078 652 l 25
 1078 1480 l 1
 1458 1480 l 25
 1458 0 l 25
 1094 0 l 1
 496 828 l 1
 496 0 l 1
 116 0 l 25
 116 1480 l 1
 480 1480 l 1
EndSplineSet
Substitution2: "sous-table 'c2sc' Capitales vers petites capitales dans Latin lookup 0" eng.sc
Colour: ffff
EndChar

StartChar: eng
Encoding: 331 331 340
Width: 1284
VWidth: 1000
Flags: HMW
LayerCount: 4
Fore
SplineSet
1168 -78 m 2
 1168 -378 1004 -470 740 -470 c 0
 652 -470 604 -439 578 -426 c 1
 678 -134 l 1
 691 -143 721 -150 740 -150 c 0
 792 -150 808 -128 808 -78 c 2
 808 0 l 1
 1168 0 l 1
 1168 -78 l 2
808 572 m 2
 808 682 772 750 642 750 c 0
 512 750 476 682 476 572 c 2
 476 0 l 1
 116 0 l 1
 116 1040 l 1
 464 1040 l 1
 464 920 l 1
 499 981 588 1070 738 1070 c 0
 1002 1070 1168 892 1168 572 c 1
 1168 0 l 1
 808 0 l 1
 808 572 l 2
EndSplineSet
Substitution2: "sous-table 'smcp' Bas-de-casse vers petites capitales dans Latin lookup 0" eng.sc
Colour: ff00
EndChar

StartChar: afii57929
Encoding: 700 700 341
Width: 633
VWidth: 1000
Flags: HMW
LayerCount: 4
Fore
SplineSet
84 1308 m 0
 84 1419 173 1508 284 1508 c 0
 395 1508 484 1419 484 1308 c 0
 484 1197 395 1108 284 1108 c 0
 173 1108 84 1197 84 1308 c 0
99 997 m 1
 228 1017 325 1082 325 1170 c 0
 325 1214 286 1308 286 1308 c 1
 284 1508 l 1
 397 1508 549 1436 549 1170 c 0
 549 959 318 795 159 767 c 1
 99 997 l 1
EndSplineSet
Colour: ff00
EndChar

StartChar: uni030B
Encoding: 779 779 342
Width: 0
VWidth: 1000
Flags: HMW
AnchorPoint: "top_center" 642 1040 mark 0
LayerCount: 4
Fore
SplineSet
1061 1224 m 5
 705 1224 l 1
 883 1480 l 1
 1287 1480 l 1
 1061 1224 l 5
481 1224 m 1
 125 1224 l 1
 303 1480 l 1
 707 1480 l 1
 481 1224 l 1
EndSplineSet
Colour: ffff00
EndChar

StartChar: tcaron
Encoding: 357 357 349
Width: 1336
VWidth: 1000
Flags: HMW
LayerCount: 4
Fore
SplineSet
1057 1427 m 0
 1057 1494 1110 1547 1177 1547 c 0
 1244 1547 1297 1494 1297 1427 c 0
 1297 1360 1244 1307 1177 1307 c 0
 1110 1307 1057 1360 1057 1427 c 0
1066 1230 m 1
 1143 1242 1202 1291 1202 1344 c 0
 1202 1370 1178 1427 1178 1427 c 1
 1177 1547 l 1
 1245 1547 1336 1504 1336 1344 c 0
 1336 1217 1197 1119 1102 1102 c 1
 1066 1230 l 1
96 1028 m 1
 216 1028 300 1106 300 1226 c 1
 300 1320 l 1
 636 1320 l 1
 636 1040 l 1
 941 1040 l 1
 941 720 l 1
 636 720 l 1
 636 440 l 2
 636 340 684 290 774 290 c 0
 834 290 909 313 941 345 c 1
 1032 22 l 1
 976 -2 891 -30 770 -30 c 0
 410 -30 276 160 276 440 c 2
 276 720 l 1
 24 720 l 1
 24 740 24 1008 24 1028 c 1
 96 1028 l 1
EndSplineSet
Substitution2: "sous-table 'smcp' Bas-de-casse vers petites capitales dans Latin lookup 0" tcaron.sc
Colour: ff00
EndChar

StartChar: tbar
Encoding: 359 359 350
Width: 1056
VWidth: 1000
Flags: HMW
LayerCount: 4
Fore
SplineSet
24 410 m 5
 24 456 24 604 24 650 c 5
 941 650 l 5
 941 410 l 5
 24 410 l 5
96 1028 m 1
 216 1028 300 1106 300 1226 c 1
 300 1320 l 1
 636 1320 l 1
 636 1040 l 1
 941 1040 l 1
 941 720 l 5
 636 720 l 5
 636 440 l 2
 636 340 684 290 774 290 c 0
 834 290 909 313 941 345 c 1
 1032 22 l 1
 976 -2 891 -30 770 -30 c 0
 410 -30 276 160 276 440 c 2
 276 720 l 1
 24 720 l 1
 24 750 24 998 24 1028 c 1
 96 1028 l 1
EndSplineSet
Substitution2: "sous-table 'smcp' Bas-de-casse vers petites capitales dans Latin lookup 0" tbar.sc
Colour: ff00
EndChar

StartChar: Tbar
Encoding: 358 358 351
Width: 1574
Flags: HMW
LayerCount: 4
Fore
SplineSet
1217 620 m 5
 357 620 l 5
 357 666 357 814 357 860 c 5
 1217 860 l 5
 1217 620 l 5
977 0 m 25
 597 0 l 25
 597 1144 l 25
 116 1144 l 25
 116 1480 l 25
 1458 1480 l 25
 1458 1144 l 25
 977 1144 l 25
 977 0 l 25
EndSplineSet
Substitution2: "sous-table 'c2sc' Capitales vers petites capitales dans Latin lookup 0" tbar.sc
Colour: ffff
EndChar

StartChar: zero.subscript
Encoding: 8320 8320 353
Width: 956
VWidth: 1528
Flags: HMW
LayerCount: 4
Fore
SplineSet
352 241 m 4
 352 85 406 34 478 34 c 0
 550 34 604 85 604 241 c 0
 604 397 550 448 478 448 c 0
 406 448 352 397 352 241 c 4
82 240 m 0
 82 530 240 688 478 688 c 0
 716 688 874 530 874 240 c 0
 874 -50 716 -206 478 -206 c 0
 240 -206 82 -50 82 240 c 0
EndSplineSet
Substitution2: "'tnum' Tabular Numbers lookups0-1" zero.subscript.tnum
Substitution2: "'pnum' Proportional Numbers lookups0-1" zero.subscript.pnum
Colour: ff8000
EndChar

StartChar: four.subscript
Encoding: 8324 8324 354
Width: 956
VWidth: 1528
Flags: HMW
LayerCount: 4
Fore
SplineSet
649 670 m 1
 355 670 l 1
 93 166 l 1
 93 -74 l 1
 489 -74 l 5
 489 -188 l 5
 759 -188 l 5
 759 -74 l 5
 863 -74 l 1
 863 166 l 1
 759 166 l 5
 759 280 l 5
 497 280 l 5
 497 166 l 5
 381 166 l 1
 649 670 l 1
EndSplineSet
Substitution2: "'tnum' Tabular Numbers lookups0-1" four.subscript.tnum
Substitution2: "'pnum' Proportional Numbers lookups0-1" four.subscript.pnum
Colour: ff8000
EndChar

StartChar: five.subscript
Encoding: 8325 8325 355
Width: 956
VWidth: 1528
Flags: HMW
LayerCount: 4
Fore
SplineSet
310 670 m 5
 439 670 l 1
 805 670 l 1
 805 430 l 1
 399 430 l 1
 389 358 l 1
 414 380 433 388 493 388 c 0
 718 388 861 291 861 91 c 0
 861 -109 702 -206 477 -206 c 0
 241 -206 120 -103 95 49 c 1
 364 122 l 0
 364 68 389 34 477 34 c 0
 547 34 590 60 590 106 c 0
 590 152 547 178 477 178 c 0
 407 178 403 170 367 143 c 1
 123 208 l 1
 181 670 l 1
 310 670 l 5
EndSplineSet
Substitution2: "'tnum' Tabular Numbers lookups0-1" five.subscript.tnum
Substitution2: "'pnum' Proportional Numbers lookups0-1" five.subscript.pnum
Colour: ff8000
EndChar

StartChar: six.subscript
Encoding: 8326 8326 356
Width: 956
VWidth: 1528
Flags: HMW
LayerCount: 4
Fore
SplineSet
357 336 m 5
 389 377 414 394 511 394 c 0
 736 394 866 288 866 94 c 0
 866 -100 718 -206 488 -206 c 0
 346 -206 237 -166 174 -68 c 0
 121 15 90 111 90 214 c 0
 90 496 214 688 574 688 c 0
 735 688 831 608 831 608 c 1
 714 402 l 1
 714 402 636 448 524 448 c 0
 412 448 370 397 357 336 c 5
382 109 m 0
 382 59 428 34 488 34 c 0
 548 34 595 59 595 109 c 0
 595 159 548 184 488 184 c 0
 428 184 382 159 382 109 c 0
EndSplineSet
Substitution2: "'tnum' Tabular Numbers lookups0-1" six.subscript.tnum
Substitution2: "'pnum' Proportional Numbers lookups0-1" six.subscript.pnum
Colour: ff8000
EndChar

StartChar: seven.subscript
Encoding: 8327 8327 357
Width: 956
VWidth: 1528
Flags: HMW
LayerCount: 4
Fore
SplineSet
108 431 m 1
 108 670 l 1
 848 670 l 1
 848 451 l 1
 848 451 561 268 510 -188 c 1
 459 -188 290 -188 239 -188 c 1
 296 267 527 431 527 431 c 1
 108 431 l 1
EndSplineSet
Substitution2: "'tnum' Tabular Numbers lookups0-1" seven.subscript.tnum
Substitution2: "'pnum' Proportional Numbers lookups0-1" seven.subscript.pnum
Colour: ff8000
EndChar

StartChar: eight.subscript
Encoding: 8328 8328 358
Width: 956
VWidth: 1528
Flags: HMW
LayerCount: 4
Fore
SplineSet
76 77 m 0
 76 224 190 265 190 265 c 1
 190 265 112 302 112 422 c 0
 112 595 250 688 477 688 c 0
 704 688 842 595 842 422 c 0
 842 302 763 265 763 265 c 1
 763 265 880 224 880 77 c 0
 880 -113 725 -206 477 -206 c 0
 229 -206 76 -113 76 77 c 0
380 401 m 0
 380 373 407 354 477 354 c 0
 547 354 574 373 574 401 c 0
 574 429 547 448 477 448 c 0
 407 448 380 429 380 401 c 0
477 170 m 4
 389 170 346 146 346 102 c 0
 346 58 389 34 477 34 c 0
 565 34 610 58 610 102 c 0
 610 146 565 170 477 170 c 4
EndSplineSet
Substitution2: "'tnum' Tabular Numbers lookups0-1" eight.subscript.tnum
Substitution2: "'pnum' Proportional Numbers lookups0-1" eight.subscript.pnum
Colour: ff8000
EndChar

StartChar: nine.subscript
Encoding: 8329 8329 359
Width: 956
VWidth: 1528
Flags: HMW
LayerCount: 4
Fore
SplineSet
599 146 m 5
 567 105 542 88 445 88 c 0
 220 88 90 194 90 388 c 0
 90 582 238 688 468 688 c 0
 610 688 719 648 782 550 c 0
 835 467 866 371 866 268 c 0
 866 -14 742 -206 382 -206 c 0
 221 -206 125 -126 125 -126 c 1
 242 80 l 1
 242 80 320 34 432 34 c 0
 544 34 586 85 599 146 c 5
574 373 m 0
 574 423 528 448 468 448 c 0
 408 448 361 423 361 373 c 0
 361 323 408 298 468 298 c 0
 528 298 574 323 574 373 c 0
EndSplineSet
Substitution2: "'tnum' Tabular Numbers lookups0-1" nine.subscript.tnum
Substitution2: "'pnum' Proportional Numbers lookups0-1" nine.subscript.pnum
Colour: ff8000
EndChar

StartChar: two.subscript
Encoding: 8322 8322 360
Width: 956
VWidth: 1528
Flags: HMW
LayerCount: 4
Fore
SplineSet
102 -188 m 1
 102 -61 115 121 478 290 c 0
 532 315 586 335 586 378 c 0
 586 427 533 448 478 448 c 0
 411 448 382 409 382 362 c 4
 382 321 391 302 391 302 c 5
 112 362 l 1
 112 563 269 688 478 688 c 0
 687 688 854 581 854 403 c 0
 854 225 757 178 596 103 c 0
 551 82 519 67 506 52 c 1
 854 52 l 1
 854 -188 l 1
 339 -188 l 1
 170 -188 l 1
 102 -188 l 1
EndSplineSet
Substitution2: "'tnum' Tabular Numbers lookups0-1" two.subscript.tnum
Substitution2: "'pnum' Proportional Numbers lookups0-1" two.subscript.pnum
Colour: ff8000
EndChar

StartChar: three.subscript
Encoding: 8323 8323 361
Width: 956
VWidth: 1528
Flags: HMW
LayerCount: 4
Fore
SplineSet
477 354 m 6
 547 354 574 373 574 401 c 4
 574 429 547 448 477 448 c 4
 407 448 380 419 380 381 c 4
 114 454 l 5
 131 606 264 688 477 688 c 4
 704 688 842 595 842 422 c 4
 842 302 763 265 763 265 c 5
 763 265 880 224 880 77 c 4
 880 -113 725 -206 477 -206 c 4
 241 -206 102 -103 77 49 c 5
 346 122 l 4
 346 68 389 34 477 34 c 4
 565 34 610 58 610 102 c 4
 610 146 565 170 477 170 c 6
 407 170 l 13
 407 354 l 29
 477 354 l 6
EndSplineSet
Substitution2: "'tnum' Tabular Numbers lookups0-1" three.subscript.tnum
Substitution2: "'pnum' Proportional Numbers lookups0-1" three.subscript.pnum
Colour: ff8000
EndChar

StartChar: one.subscript
Encoding: 8321 8321 362
Width: 956
VWidth: 1528
Flags: HMW
LayerCount: 4
Fore
SplineSet
388 268 m 5
 168 268 l 5
 168 508 l 5
 224 508 l 6
 326 508 405 578 405 654 c 6
 405 670 l 5
 658 670 l 5
 658 415 l 5
 658 -188 l 5
 388 -188 l 5
 388 268 l 5
EndSplineSet
Substitution2: "'tnum' Tabular Numbers lookups0-1" one.subscript.tnum
Substitution2: "'pnum' Proportional Numbers lookups0-1" one.subscript.pnum
Colour: ff8000
EndChar

StartChar: longs
Encoding: 383 383 363
Width: 894
VWidth: 1000
Flags: HMW
AnchorPoint: "top_center" 502 1380 basechar 0
AnchorPoint: "bottom_center" 296 0 basechar 0
LayerCount: 4
Fore
SplineSet
476 690 m 1
 476 1050 l 1
 476 1150 524 1190 614 1190 c 0
 674 1190 749 1167 781 1135 c 1
 872 1458 l 1
 816 1482 731 1510 610 1510 c 0
 250 1510 116 1320 116 1040 c 1
 116 680 l 1
 116 0 l 1
 476 0 l 1
 476 690 l 1
EndSplineSet
Colour: ff00
EndChar

StartChar: uni0180
Encoding: 384 384 364
Width: 1424
VWidth: 1000
Flags: HMW
LayerCount: 4
Fore
SplineSet
840 1120 m 5
 0 1120 l 5
 0 1166 0 1314 0 1360 c 5
 840 1360 l 5
 840 1120 l 5
570 510 m 0
 570 380 639 290 770 290 c 0
 907 290 980 390 980 520 c 0
 980 650 907 750 770 750 c 0
 633 750 570 640 570 510 c 0
210 168 m 1
 210 1480 l 1
 570 1480 l 1
 570 920 l 1
 580 959 685 1070 835 1070 c 0
 1155 1070 1340 840 1340 520 c 0
 1340 200 1155 -30 835 -30 c 0
 685 -30 558 80 558 120 c 1
 558 0 l 1
 210 0 l 1
 210 0 210 66 210 168 c 1
EndSplineSet
Substitution2: "sous-table 'smcp' Bas-de-casse vers petites capitales dans Latin lookup 0" uni0180.sc
Colour: ff00
EndChar

StartChar: uni0181
Encoding: 385 385 365
Width: 1770
Flags: HMW
LayerCount: 4
Fore
SplineSet
356 1040 m 5
 2 1040 l 5
 1 1052 0 1064 0 1076 c 4
 0 1326 184 1480 434 1480 c 4
 446 1480 458 1480 470 1479 c 1
 470 1153 l 1
 459 1158 447 1160 434 1160 c 4
 384 1160 349 1126 349 1076 c 4
 349 1063 350 1051 356 1040 c 5
1115 1480 m 1
 1439 1480 1609 1280 1609 1060 c 0
 1609 840 1379 656 1115 656 c 1
 1115 976 l 17
 1205 976 1229 1012 1229 1062 c 0
 1229 1112 1205 1144 1115 1144 c 9
 814 1144 l 1
 814 1480 l 25
 1115 1480 l 1
814 336 m 25
 1115 336 l 17
 1235 336 1306 416 1306 496 c 0
 1306 576 1235 656 1115 656 c 9
 814 656 l 25
 814 336 l 25
434 1480 m 5
 814 1480 l 25
 814 976 l 1
 1115 976 l 1
 1481 976 1686 751 1686 496 c 0
 1686 241 1481 0 1115 0 c 1
 434 0 l 1
 434 1480 l 5
EndSplineSet
Colour: ffff
EndChar

StartChar: uni0182
Encoding: 386 386 366
Width: 1452
Flags: HMW
LayerCount: 4
Fore
SplineSet
1234 1144 m 9
 496 1144 l 1
 496 1480 l 25
 1234 1480 l 1
 1234 1144 l 9
496 336 m 25
 797 336 l 17
 917 336 988 416 988 496 c 0
 988 576 917 656 797 656 c 9
 496 656 l 25
 496 336 l 25
116 1480 m 1
 496 1480 l 25
 496 976 l 1
 797 976 l 5
 1163 976 1368 751 1368 496 c 0
 1368 241 1163 0 797 0 c 1
 116 0 l 1
 116 1480 l 1
EndSplineSet
Substitution2: "sous-table 'c2sc' Capitales vers petites capitales dans Latin lookup 0" uni0183.sc
Colour: ffff
EndChar

StartChar: uni0183
Encoding: 387 387 367
Width: 1330
VWidth: 1000
Flags: HMW
LayerCount: 4
Fore
SplineSet
1135 1160 m 9
 476 1160 l 1
 476 1480 l 25
 1135 1480 l 1
 1135 1160 l 9
476 510 m 0
 476 380 545 290 676 290 c 0
 813 290 886 390 886 520 c 0
 886 650 813 750 676 750 c 0
 539 750 476 640 476 510 c 0
116 168 m 1
 116 1480 l 1
 476 1480 l 1
 476 920 l 1
 486 959 591 1070 741 1070 c 0
 1061 1070 1246 840 1246 520 c 0
 1246 200 1061 -30 741 -30 c 0
 591 -30 464 80 464 120 c 5
 464 0 l 1
 116 0 l 1
 116 0 116 66 116 168 c 1
EndSplineSet
Substitution2: "sous-table 'smcp' Bas-de-casse vers petites capitales dans Latin lookup 0" uni0183.sc
Colour: ff00
EndChar

StartChar: uni0184
Encoding: 388 388 368
Width: 1613
Flags: HMW
LayerCount: 4
Fore
SplineSet
657 336 m 25
 958 336 l 17
 1078 336 1149 416 1149 496 c 0
 1149 576 1078 656 958 656 c 9
 657 656 l 25
 657 336 l 25
360 1480 m 5
 657 1480 l 1
 657 976 l 1
 958 976 l 1
 1324 976 1529 751 1529 496 c 0
 1529 241 1324 0 958 0 c 1
 277 0 l 5
 277 1000 l 5
 -50 1165 l 5
 360 1480 l 5
EndSplineSet
Substitution2: "sous-table 'c2sc' Capitales vers petites capitales dans Latin lookup 0" uni0185.sc
Colour: ffff
EndChar

StartChar: uni0185
Encoding: 389 389 369
Width: 1490
VWidth: 1000
Flags: HMW
LayerCount: 4
Fore
SplineSet
636 510 m 0
 636 380 705 290 836 290 c 0
 973 290 1046 390 1046 520 c 0
 1046 650 973 750 836 750 c 0
 699 750 636 640 636 510 c 0
636 1480 m 5
 636 920 l 1
 646 959 751 1070 901 1070 c 0
 1221 1070 1406 840 1406 520 c 0
 1406 200 1221 -30 901 -30 c 0
 751 -30 624 80 624 120 c 1
 624 0 l 1
 276 0 l 1
 276 0 276 66 276 168 c 1
 276 1000 l 5
 -50 1165 l 5
 360 1480 l 5
 636 1480 l 5
EndSplineSet
Substitution2: "sous-table 'smcp' Bas-de-casse vers petites capitales dans Latin lookup 0" uni0185.sc
Colour: ff00
EndChar

StartChar: uni0186
Encoding: 390 390 370
Width: 1603
Flags: HMW
LayerCount: 4
Fore
SplineSet
409 930 m 5
 460 1078 578 1174 759 1174 c 4
 1009 1174 1139 990 1139 740 c 4
 1139 490 1009 306 759 306 c 4
 578 306 460 402 409 550 c 1
 84 360 l 1
 204 120 444 -30 759 -30 c 4
 1219 -30 1519 290 1519 740 c 4
 1519 1190 1219 1510 759 1510 c 4
 444 1510 204 1360 84 1120 c 5
 409 930 l 5
EndSplineSet
Colour: ffff
EndChar

StartChar: uni0187
Encoding: 391 391 371
Width: 1633
Flags: HMW
LayerCount: 4
Fore
SplineSet
1597 1560 m 4
 1609 1560 1621 1560 1633 1559 c 5
 1633 1233 l 5
 1622 1238 1610 1240 1597 1240 c 4
 1547 1240 1512 1206 1512 1156 c 4
 1512 1143 1513 1131 1519 1120 c 5
 1165 1120 l 5
 1164 1132 1163 1144 1163 1156 c 4
 1163 1406 1347 1560 1597 1560 c 4
1194 930 m 1
 1143 1078 1025 1174 844 1174 c 0
 594 1174 464 990 464 740 c 0
 464 490 594 306 844 306 c 0
 1025 306 1143 402 1194 550 c 1
 1519 360 l 1
 1399 120 1159 -30 844 -30 c 0
 384 -30 84 290 84 740 c 0
 84 1190 384 1510 844 1510 c 0
 1159 1510 1399 1360 1519 1120 c 5
 1194 930 l 1
EndSplineSet
Substitution2: "sous-table 'c2sc' Capitales vers petites capitales dans Latin lookup 0" uni0188.sc
Colour: ffff
EndChar

StartChar: uni0188
Encoding: 392 392 372
Width: 1235
VWidth: 1000
Flags: HMW
LayerCount: 4
Fore
SplineSet
1199 1228 m 4
 1211 1228 1223 1228 1235 1227 c 5
 1235 901 l 5
 1224 906 1212 908 1199 908 c 4
 1149 908 1114 874 1114 824 c 4
 1114 811 1115 799 1121 788 c 5
 767 788 l 5
 766 800 765 812 765 824 c 4
 765 1074 949 1228 1199 1228 c 4
444 520 m 0
 444 383 497 290 634 290 c 0
 738 290 793 344 814 430 c 1
 1121 252 l 1
 1033 79 855 -30 634 -30 c 0
 314 -30 84 200 84 520 c 0
 84 840 314 1070 634 1070 c 0
 855 1070 1033 961 1121 788 c 5
 814 610 l 1
 793 696 738 750 634 750 c 0
 497 750 444 657 444 520 c 0
EndSplineSet
Substitution2: "sous-table 'smcp' Bas-de-casse vers petites capitales dans Latin lookup 0" uni0188.sc
Colour: ff00
EndChar

StartChar: uni018A
Encoding: 394 394 374
Width: 1884
Flags: HMW
LayerCount: 4
Fore
SplineSet
356 1040 m 5
 2 1040 l 5
 1 1052 0 1064 0 1076 c 4
 0 1326 184 1480 434 1480 c 4
 446 1480 458 1480 470 1479 c 1
 470 1153 l 1
 459 1158 447 1160 434 1160 c 4
 384 1160 349 1126 349 1076 c 4
 349 1063 350 1051 356 1040 c 5
814 1144 m 25
 814 336 l 25
 1034 336 l 17
 1238 336 1420 467 1420 740 c 0
 1420 1013 1228 1144 1034 1144 c 9
 814 1144 l 25
1034 0 m 1
 662 0 l 25
 434 0 l 1
 434 1480 l 5
 1034 1480 l 1
 1490 1480 1800 1190 1800 740 c 0
 1800 290 1490 0 1034 0 c 1
EndSplineSet
Colour: ffff
EndChar

StartChar: uni018B
Encoding: 395 395 375
Width: 1452
Flags: HMW
LayerCount: 4
Fore
SplineSet
218 1144 m 9
 956 1144 l 1
 956 1480 l 25
 218 1480 l 1
 218 1144 l 9
956 336 m 25
 655 336 l 17
 535 336 464 416 464 496 c 0
 464 576 535 656 655 656 c 9
 956 656 l 25
 956 336 l 25
1336 1480 m 1
 956 1480 l 25
 956 976 l 1
 655 976 l 5
 289 976 84 751 84 496 c 0
 84 241 289 0 655 0 c 1
 1336 0 l 1
 1336 1480 l 1
EndSplineSet
Substitution2: "sous-table 'c2sc' Capitales vers petites capitales dans Latin lookup 0" uni018C.sc
Colour: ffff
EndChar

StartChar: uni018C
Encoding: 396 396 376
Width: 1330
VWidth: 1000
Flags: HMW
LayerCount: 4
Fore
SplineSet
195 1160 m 1
 854 1160 l 17
 854 1480 l 1
 195 1480 l 25
 195 1160 l 1
854 510 m 0
 854 380 785 290 654 290 c 0
 517 290 444 390 444 520 c 0
 444 650 517 750 654 750 c 0
 791 750 854 640 854 510 c 0
1214 168 m 1
 1214 1480 l 1
 854 1480 l 1
 854 920 l 1
 844 959 739 1070 589 1070 c 0
 269 1070 84 840 84 520 c 0
 84 200 269 -30 589 -30 c 0
 739 -30 866 80 866 120 c 1
 866 60 890 0 890 0 c 1
 1238 0 l 1
 1238 0 1214 66 1214 168 c 1
EndSplineSet
Substitution2: "sous-table 'smcp' Bas-de-casse vers petites capitales dans Latin lookup 0" uni018C.sc
Colour: ff00
EndChar

StartChar: uni018D
Encoding: 397 397 377
Width: 1268
VWidth: 1000
Flags: HMW
LayerCount: 4
Fore
SplineSet
1184 520 m 0
 1184 200 954 70 634 70 c 0
 634 290 l 0
 771 290 824 383 824 520 c 0
 824 650 771 750 634 750 c 0
 497 750 444 657 444 520 c 0
 444 383 497 290 634 290 c 0
 634 -30 l 0
 314 -30 84 200 84 520 c 0
 84 840 314 1070 634 1070 c 0
 954 1070 1184 840 1184 520 c 0
634 -470 m 4
 418 -470 274 -444 152 -393 c 1
 230 -79 l 1
 357 -134 495 -150 634 -150 c 4
 720 -150 756 -130 756 -90 c 4
 756 -50 720 -30 634 -30 c 0
 634 290 l 0
 970 290 1116 90 1116 -90 c 4
 1116 -270 970 -470 634 -470 c 4
EndSplineSet
Colour: ff00
EndChar

StartChar: uni018E
Encoding: 398 398 378
Width: 1346
Flags: HMW
LayerCount: 4
Fore
SplineSet
230 572 m 21
 230 908 l 13
 850 908 l 21
 850 1144 l 1
 116 1144 l 1
 116 1480 l 1
 1230 1480 l 25
 1230 0 l 1
 116 0 l 17
 116 336 l 1
 850 336 l 1
 850 572 l 13
 230 572 l 21
EndSplineSet
Substitution2: "sous-table 'c2sc' Capitales vers petites capitales dans Latin lookup 0" uni01DD.sc
Colour: ffff
EndChar

StartChar: uni018F
Encoding: 399 399 379
Width: 1688
Flags: HMW
LayerCount: 4
Fore
SplineSet
99 908 m 5
 89 854 84 798 84 740 c 0
 84 290 384 -30 844 -30 c 0
 1304 -30 1604 290 1604 740 c 0
 1604 1190 1304 1510 844 1510 c 0
 529 1510 289 1360 169 1120 c 1
 494 930 l 1
 545 1078 663 1174 844 1174 c 0
 1094 1174 1224 990 1224 740 c 0
 1224 490 1094 306 844 306 c 0
 594 306 464 490 464 740 c 0
 464 800 472 857 487 908 c 5
 99 908 l 5
1430 572 m 17
 1430 908 l 1
 487 908 l 17
 250 572 l 1
 1430 572 l 17
EndSplineSet
Colour: ffff
EndChar

StartChar: uni0190
Encoding: 400 400 380
Width: 1426
VWidth: 1000
Flags: HMW
LayerCount: 4
Fore
SplineSet
714 936 m 26
 629 936 534 970 534 1050 c 0
 534 1130 589 1174 714 1174 c 0
 839 1174 902 1130 902 1050 c 0
 1273 1150 l 1
 1228 1377 1006 1510 714 1510 c 0
 384 1510 154 1341 154 1058 c 0
 154 829 320 781 320 781 c 1
 320 781 100 695 100 453 c 0
 100 120 354 -30 714 -30 c 0
 1009 -30 1283 91 1326 361 c 1
 953 461 l 0
 953 361 864 306 714 306 c 0
 564 306 480 361 480 461 c 0
 480 561 564 616 714 616 c 2
 828 616 l 17
 828 936 l 9
 714 936 l 26
EndSplineSet
Colour: ffff
EndChar

StartChar: uni0191
Encoding: 401 401 381
Width: 1351
Flags: HMW
LayerCount: 4
Fore
SplineSet
0 -77 m 5
 11 -82 23 -84 36 -84 c 4
 86 -84 121 -50 121 0 c 4
 501 0 l 4
 501 -250 286 -404 36 -404 c 4
 24 -404 12 -404 0 -403 c 5
 0 -77 l 5
501 219 m 5
 501 0 l 5
 121 0 l 29
 121 1480 l 5
 1235 1480 l 17
 1235 1144 l 1
 501 1144 l 5
 501 908 l 13
 1121 908 l 17
 1121 572 l 9
 501 572 l 21
 501 219 l 5
EndSplineSet
Colour: ffff
EndChar

StartChar: florin
Encoding: 402 402 382
Width: 1056
VWidth: 1000
Flags: HMW
LayerCount: 4
Fore
SplineSet
155 -77 m 1
 166 -82 178 -84 191 -84 c 0
 241 -84 276 -50 276 0 c 0
 636 0 l 0
 636 -250 441 -404 191 -404 c 0
 179 -404 167 -404 155 -403 c 1
 155 -77 l 1
941 1135 m 1
 909 1167 834 1190 774 1190 c 0
 684 1190 636 1150 636 1050 c 1
 636 1040 l 1
 941 1040 l 1
 941 720 l 1
 636 720 l 1
 636 0 l 25
 276 0 l 25
 276 720 l 1
 24 720 l 1
 24 1040 l 1
 276 1040 l 1
 276 1050 l 1
 276 1330 410 1510 770 1510 c 0
 891 1510 976 1482 1032 1458 c 1
 941 1135 l 1
EndSplineSet
Substitution2: "sous-table 'smcp' Bas-de-casse vers petites capitales dans Latin lookup 0" florin.sc
Colour: ff00
EndChar

StartChar: uni0193
Encoding: 403 403 383
Width: 1633
Flags: HMW
LayerCount: 4
Fore
SplineSet
1597 1560 m 0
 1609 1560 1621 1560 1633 1559 c 1
 1633 1233 l 1
 1622 1238 1610 1240 1597 1240 c 0
 1547 1240 1512 1206 1512 1156 c 0
 1512 1143 1513 1131 1519 1120 c 1
 1165 1120 l 1
 1164 1132 1163 1144 1163 1156 c 0
 1163 1406 1347 1560 1597 1560 c 0
1190 930 m 1
 1139 1078 1025 1174 844 1174 c 0
 594 1174 464 990 464 740 c 0
 464 490 594 306 844 306 c 0
 1025 306 1139 402 1190 550 c 1
 1355 360 l 1
 1235 120 1159 -30 844 -30 c 0
 384 -30 84 290 84 740 c 0
 84 1190 384 1510 844 1510 c 0
 1159 1510 1399 1360 1519 1120 c 1
 1190 930 l 1
782 824 m 25
 1527 824 l 25
 1527 0 l 25
 1167 0 l 17
 1167 227 l 1
 1147 253 l 1
 1147 488 l 9
 782 488 l 25
 782 824 l 25
EndSplineSet
Substitution2: "'ss03' Simplified G and I lookups0-1" uni0193.ss03
Colour: ffff
EndChar

StartChar: uni0194
Encoding: 404 404 384
Width: 1588
VWidth: 1000
Flags: HMW
LayerCount: 4
Back
SplineSet
802 400 m 5
 1132 1480 l 5
 1524 1480 l 5
 1032 0 l 5
 556 0 l 5
 64 1480 l 5
 456 1480 l 5
 802 400 l 5
EndSplineSet
Fore
SplineSet
1187 100 m 5
 1217 48 1233 -13 1233 -66 c 4
 1233 -296 1029 -470 799 -470 c 4
 569 -470 365 -296 365 -66 c 4
 365 -13 381 48 411 100 c 5
 556 338 l 5
 64 1480 l 1
 456 1480 l 1
 802 679 l 1
 1132 1480 l 1
 1524 1480 l 1
 1032 338 l 5
 1187 100 l 5
864 0 m 5
 799 107 l 29
 734 0 l 5
 729 -9 714 -38 714 -66 c 4
 714 -116 749 -150 799 -150 c 4
 849 -150 883 -116 883 -66 c 4
 883 -38 871 -12 864 0 c 5
EndSplineSet
Colour: ffff
EndChar

StartChar: uni0195
Encoding: 405 405 385
Width: 1944
VWidth: 1000
Flags: HMW
LayerCount: 4
Fore
SplineSet
1860 467 m 4
 1860 147 1654 -31 1334 -31 c 0
 1014 -31 808 147 808 467 c 1
 808 572 l 2
 808 682 772 750 642 750 c 0
 512 750 476 682 476 572 c 2
 476 0 l 1
 116 0 l 1
 116 1480 l 1
 464 1480 l 1
 464 920 l 1
 499 981 588 1070 738 1070 c 0
 1002 1070 1168 892 1168 572 c 1
 1168 467 l 2
 1168 357 1204 289 1334 289 c 0
 1464 289 1500 357 1500 467 c 4
 1500 697 1462 842 1343 945 c 5
 1643 1109 l 5
 1768 980 1860 817 1860 467 c 4
EndSplineSet
Substitution2: "sous-table 'smcp' Bas-de-casse vers petites capitales dans Latin lookup 0" uni0195.sc
Colour: ff00
EndChar

StartChar: uni0196
Encoding: 406 406 386
Width: 896
VWidth: 1000
Flags: HMW
LayerCount: 4
Fore
SplineSet
476 842 m 5
 476 430 l 1
 476 330 524 290 614 290 c 0
 674 290 749 313 781 345 c 1
 872 22 l 1
 816 -2 731 -30 610 -30 c 0
 250 -30 116 160 116 440 c 1
 116 842 l 1
 116 1480 l 9
 476 1480 l 17
 476 842 l 5
EndSplineSet
Colour: ffff
EndChar

StartChar: uni0197
Encoding: 407 407 387
Width: 1016
Flags: HMW
LayerCount: 4
Fore
SplineSet
938 620 m 5
 78 620 l 5
 78 666 78 814 78 860 c 5
 938 860 l 5
 938 620 l 5
116 1480 m 25
 900 1480 l 25
 900 1144 l 25
 698 1144 l 25
 698 336 l 25
 900 336 l 25
 900 0 l 25
 116 0 l 25
 116 336 l 25
 318 336 l 25
 318 1144 l 25
 116 1144 l 25
 116 1480 l 25
EndSplineSet
Substitution2: "'ss03' Simplified G and I lookups0-1" uni0197.ss03
Colour: ffff
EndChar

StartChar: uni0198
Encoding: 408 408 388
Width: 1508
Flags: HMW
LayerCount: 4
Fore
SplineSet
499 801 m 1
 838 925 l 1
 1504 0 l 1
 1064 0 l 1
 499 801 l 1
116 1106 m 4
 116 1356 331 1510 581 1510 c 4
 593 1510 605 1510 617 1509 c 5
 617 1183 l 5
 606 1188 594 1190 581 1190 c 4
 531 1190 496 1156 496 1106 c 4
 496 940 l 1
 1024 1480 l 1
 1096 1480 1432 1480 1504 1480 c 1
 496 450 l 1
 496 0 l 1
 116 0 l 1
 116 1106 l 4
EndSplineSet
Substitution2: "sous-table 'c2sc' Capitales vers petites capitales dans Latin lookup 0" uni0199.sc
Colour: ffff
EndChar

StartChar: uni0199
Encoding: 409 409 389
Width: 1208
Flags: HMW
LayerCount: 4
Fore
SplineSet
331 643 m 1
 728 660 l 1
 1204 0 l 1
 784 0 l 1
 331 643 l 1
116 1106 m 4
 116 1356 311 1510 561 1510 c 4
 573 1510 585 1510 597 1509 c 5
 597 1183 l 5
 586 1188 574 1190 561 1190 c 4
 511 1190 476 1156 476 1106 c 4
 476 808 l 1
 708 1040 l 1
 780 1040 1100 1040 1172 1040 c 1
 476 344 l 1
 476 0 l 1
 116 0 l 1
 116 1106 l 4
EndSplineSet
Substitution2: "sous-table 'smcp' Bas-de-casse vers petites capitales dans Latin lookup 0" uni0199.sc
Colour: ff00
EndChar

StartChar: uni019A
Encoding: 410 410 390
Width: 840
Flags: HMW
LayerCount: 4
Fore
SplineSet
840 620 m 5
 0 620 l 5
 0 666 0 814 0 860 c 5
 840 860 l 5
 840 620 l 5
726 306 m 1
 826 14 l 1
 800 1 752 -30 664 -30 c 0
 480 -30 236 62 236 362 c 2
 236 440 l 1
 236 578 l 1
 236 1480 l 1
 596 1480 l 1
 596 578 l 1
 596 440 l 1
 596 362 l 2
 596 312 612 290 664 290 c 0
 683 290 713 297 726 306 c 1
EndSplineSet
Substitution2: "sous-table 'smcp' Bas-de-casse vers petites capitales dans Latin lookup 0" uni019A.sc
Colour: ff00
EndChar

StartChar: uni019B
Encoding: 411 411 391
Width: 1421
VWidth: 1000
Flags: HMW
LayerCount: 4
Fore
SplineSet
732 1174 m 1
 883 1247 l 1
 813 1382 l 1
 643 1302 l 1
 237 1107 l 1
 306 969 l 1
 732 1174 l 1
807 1040 m 1
 753 1198 l 1
 671 1424 562 1510 283 1510 c 0
 162 1510 132 1489 76 1465 c 1
 172 1145 l 1
 204 1177 223 1190 283 1190 c 0
 343 1190 397 1147 412 1084 c 1
 424 1040 l 1
 58 0 l 1
 442 0 l 1
 618 526 l 1
 696 282 l 1
 769 56 877 -30 1156 -30 c 0
 1277 -30 1307 -9 1363 15 c 1
 1267 335 l 1
 1235 303 1216 290 1156 290 c 0
 1096 290 1042 333 1027 396 c 1
 807 1040 l 1
EndSplineSet
Substitution2: "sous-table 'smcp' Bas-de-casse vers petites capitales dans Latin lookup 0" uni019B.sc
Colour: ff00
EndChar

StartChar: uni019C
Encoding: 412 412 392
Width: 1736
VWidth: 1000
Flags: HMW
LayerCount: 4
Fore
SplineSet
1620 178 m 1
 1620 76 1644 0 1644 0 c 1
 1296 0 l 1
 1296 0 1272 60 1272 120 c 1
 1272 120 1208 -30 1058 -30 c 0
 794 -30 688 148 688 468 c 1
 688 1460 l 5
 1048 1460 l 5
 1048 468 l 2
 1048 358 1054 290 1154 290 c 0
 1254 290 1260 358 1260 468 c 2
 1260 1460 l 5
 1620 1460 l 5
 1620 178 l 1
856 468 m 1
 856 148 750 -30 486 -30 c 0
 222 -30 116 148 116 468 c 1
 116 1460 l 5
 476 1460 l 5
 476 468 l 2
 476 358 482 290 582 290 c 0
 682 290 688 358 688 468 c 9
 856 468 l 1
EndSplineSet
Colour: ffff
EndChar

StartChar: uni019D
Encoding: 413 413 393
Width: 1579
Flags: HMW
LayerCount: 4
Fore
SplineSet
0 -77 m 1
 11 -82 23 -84 36 -84 c 0
 86 -84 121 -50 121 0 c 0
 501 0 l 4
 501 -250 286 -404 36 -404 c 0
 24 -404 12 -404 0 -403 c 1
 0 -77 l 1
485 1480 m 1
 1083 652 l 25
 1083 1480 l 1
 1463 1480 l 25
 1463 0 l 25
 1099 0 l 1
 501 828 l 1
 501 0 l 1
 121 0 l 25
 121 1480 l 1
 485 1480 l 1
EndSplineSet
Colour: ffff
EndChar

StartChar: uni019E
Encoding: 414 414 394
Width: 1284
VWidth: 1000
Flags: HMW
LayerCount: 4
Fore
SplineSet
808 -440 m 5
 808 572 l 2
 808 682 772 750 642 750 c 0
 512 750 476 682 476 572 c 2
 476 0 l 1
 116 0 l 1
 116 1040 l 1
 464 1040 l 1
 464 920 l 1
 499 981 588 1070 738 1070 c 0
 1002 1070 1168 892 1168 572 c 1
 1168 -440 l 5
 808 -440 l 5
EndSplineSet
Substitution2: "sous-table 'smcp' Bas-de-casse vers petites capitales dans Latin lookup 0" uni019E.sc
Colour: ff00
EndChar

StartChar: uni019F
Encoding: 415 415 395
Width: 1688
Flags: HMW
LayerCount: 4
Fore
SplineSet
1430 572 m 13
 250 572 l 17
 250 908 l 9
 1430 908 l 17
 1430 572 l 13
464 740 m 0
 464 490 594 306 844 306 c 0
 1094 306 1224 490 1224 740 c 0
 1224 990 1094 1174 844 1174 c 0
 594 1174 464 990 464 740 c 0
84 740 m 0
 84 1190 384 1510 844 1510 c 0
 1304 1510 1604 1190 1604 740 c 0
 1604 290 1304 -30 844 -30 c 0
 384 -30 84 290 84 740 c 0
EndSplineSet
Colour: ffff
EndChar

StartChar: uni031B
Encoding: 795 795 398
Width: 0
Flags: HMW
AnchorPoint: "top_right" 0 1480 mark 0
LayerCount: 4
Fore
SplineSet
159 1272 m 1
 156 1271 152 1270 149 1270 c 0
 82 1270 29 1323 29 1390 c 0
 29 1457 82 1510 149 1510 c 0
 217 1510 288 1467 288 1307 c 0
 288 1150 148 1059 0 1033 c 5
 0 1193 l 1
 118 1214 159 1256 159 1272 c 1
EndSplineSet
Colour: ffff00
EndChar

StartChar: uni01A2
Encoding: 418 418 399
Width: 2196
Flags: HMW
LayerCount: 4
Fore
SplineSet
1293 1368 m 4
 1293 1052 l 4
 1599 1052 1778 1158 1858 1250 c 1
 1700 1510 l 1
 1634 1458 1485 1368 1293 1368 c 4
1700 -440 m 1
 2080 -440 l 1
 2080 1510 l 1
 1700 1510 l 1
 1700 -440 l 1
1139 360 m 1
 1519 360 l 1
 1519 1120 l 1
 1139 1120 l 1
 1139 360 l 1
1254 550 m 1
 1203 402 1025 306 844 306 c 0
 594 306 464 490 464 740 c 0
 464 990 594 1174 844 1174 c 0
 1025 1174 1203 1078 1254 930 c 1
 1519 1120 l 1
 1399 1360 1159 1510 844 1510 c 0
 384 1510 84 1190 84 740 c 0
 84 290 384 -30 844 -30 c 0
 1159 -30 1399 120 1519 360 c 1
 1254 550 l 1
EndSplineSet
Substitution2: "sous-table 'c2sc' Capitales vers petites capitales dans Latin lookup 0" uni01A3.sc
Colour: ffff
EndChar

StartChar: uni01A3
Encoding: 419 419 400
Width: 1757
VWidth: 1000
Flags: HMW
LayerCount: 4
Fore
SplineSet
1439 780 m 5
 1281 1040 l 5
 1215 988 1076 898 884 898 c 4
 884 582 l 4
 1190 582 1359 688 1439 780 c 5
1281 -440 m 5
 1641 -440 l 5
 1641 1040 l 5
 1281 1040 l 5
 1281 -440 l 5
761 252 m 1
 1101 252 l 1
 1101 788 l 1
 761 788 l 1
 761 252 l 1
794 430 m 1
 773 344 738 290 634 290 c 0
 497 290 444 383 444 520 c 0
 444 657 497 750 634 750 c 0
 738 750 773 696 794 610 c 1
 1101 788 l 1
 1013 961 855 1070 634 1070 c 0
 314 1070 84 840 84 520 c 0
 84 200 314 -30 634 -30 c 0
 855 -30 1013 79 1101 252 c 1
 794 430 l 1
EndSplineSet
Substitution2: "sous-table 'smcp' Bas-de-casse vers petites capitales dans Latin lookup 0" uni01A3.sc
Colour: ff00
EndChar

StartChar: uni01A4
Encoding: 420 420 401
Width: 1656
Flags: HMW
LayerCount: 4
Fore
SplineSet
356 1040 m 1
 2 1040 l 1
 1 1052 0 1064 0 1076 c 4
 0 1326 184 1480 434 1480 c 4
 446 1480 458 1480 470 1479 c 1
 470 1153 l 1
 459 1158 447 1160 434 1160 c 0
 384 1160 349 1126 349 1076 c 0
 349 1063 350 1051 356 1040 c 1
814 1144 m 25
 814 824 l 25
 1001 824 l 17
 1121 824 1192 874 1192 984 c 0
 1192 1094 1121 1144 1001 1144 c 9
 814 1144 l 25
434 0 m 1
 434 1480 l 1
 1001 1480 l 1
 1387 1480 1572 1239 1572 984 c 0
 1572 729 1387 488 1001 488 c 1
 814 488 l 1
 814 0 l 25
 434 0 l 1
EndSplineSet
Substitution2: "sous-table 'c2sc' Capitales vers petites capitales dans Latin lookup 0" uni01A5.sc
Colour: ffff
EndChar

StartChar: uni01A5
Encoding: 421 421 402
Width: 1330
VWidth: 1000
Flags: HMW
LayerCount: 4
Fore
SplineSet
466 518 m 0
 466 388 539 290 676 290 c 0
 813 290 886 390 886 520 c 0
 886 650 813 750 676 750 c 0
 539 750 466 648 466 518 c 0
116 1106 m 0
 116 1356 311 1510 561 1510 c 4
 573 1510 585 1510 597 1509 c 1
 597 1183 l 1
 586 1188 574 1190 561 1190 c 0
 511 1190 476 1156 476 1106 c 0
 476 1106 476 960 476 920 c 1
 486 959 591 1070 741 1070 c 0
 1061 1070 1246 840 1246 520 c 0
 1246 200 1061 -30 741 -30 c 0
 591 -30 486 81 476 120 c 1
 476 -440 l 1
 116 -440 l 1
 116 520 l 1
 116 1106 l 0
EndSplineSet
Substitution2: "sous-table 'smcp' Bas-de-casse vers petites capitales dans Latin lookup 0" uni01A5.sc
Colour: ff00
EndChar

StartChar: uni01A6
Encoding: 422 422 403
Width: 1338
Flags: HMW
LayerCount: 4
Fore
SplineSet
441 475 m 1
 858 492 l 1
 1334 -168 l 1
 894 -168 l 1
 441 475 l 1
496 976 m 25
 496 656 l 25
 683 656 l 17
 803 656 874 706 874 816 c 0
 874 926 803 976 683 976 c 9
 496 976 l 25
116 0 m 1
 116 1480 l 1
 496 1480 l 1
 496 1312 l 5
 683 1312 l 1
 1069 1312 1254 1071 1254 816 c 0
 1254 561 1069 320 683 320 c 1
 496 320 l 1
 496 0 l 25
 116 0 l 1
EndSplineSet
Colour: ffff
EndChar

StartChar: uni01A7
Encoding: 423 423 404
Width: 1395
VWidth: 1000
Flags: HMW
AnchorPoint: "bottom_center" 699 0 basechar 0
AnchorPoint: "top_center" 699 1380 basechar 0
LayerCount: 4
Fore
SplineSet
699 1174 m 0
 839 1174 903 1132 903 1052 c 0
 903 992 805 973 699 945 c 0
 332 847 84 725 84 445 c 0
 84 165 289 -30 699 -30 c 0
 1004 -30 1268 91 1311 361 c 1
 938 461 l 0
 938 361 849 306 699 306 c 0
 549 306 464 355 464 445 c 0
 464 535 593 549 699 577 c 0
 1047 670 1283 792 1283 1052 c 0
 1283 1312 1069 1510 699 1510 c 0
 394 1510 155 1394 112 1124 c 1
 485 1024 l 0
 485 1124 559 1174 699 1174 c 0
EndSplineSet
Substitution2: "sous-table 'c2sc' Capitales vers petites capitales dans Latin lookup 0" uni01A8.sc
Colour: ffff
EndChar

StartChar: uni01A8
Encoding: 424 424 405
Width: 1134
VWidth: 1000
Flags: HMW
AnchorPoint: "top_center" 571 1040 basechar 0
AnchorPoint: "bottom_center" 571 0 basechar 0
AnchorPoint: "bottom_right" 350 0 basechar 0
LayerCount: 4
Fore
SplineSet
571 1070 m 0
 291 1070 151 931 105 775 c 1
 452 685 l 0
 452 705 471 750 571 750 c 0
 641 750 660 735 660 715 c 0
 660 695 630 675 571 663 c 0
 278 601 84 566 84 326 c 0
 84 86 295 -30 571 -30 c 0
 810 -30 1002 85 1050 265 c 1
 698 356 l 0
 698 326 661 290 571 290 c 0
 481 290 444 296 444 326 c 0
 444 356 512 371 571 383 c 0
 851 442 1020 515 1020 715 c 0
 1020 915 851 1070 571 1070 c 0
EndSplineSet
Substitution2: "sous-table 'smcp' Bas-de-casse vers petites capitales dans Latin lookup 0" uni01A8.sc
Colour: ff00
EndChar

StartChar: uni01A9
Encoding: 425 425 406
Width: 1346
Flags: HMW
LayerCount: 4
Fore
SplineSet
860 740 m 1
 544 336 l 1
 1230 336 l 1
 1230 0 l 1
 116 0 l 17
 116 336 l 1
 432 740 l 1
 116 1144 l 1
 116 1480 l 1
 1230 1480 l 17
 1230 1144 l 1
 544 1144 l 1
 860 740 l 1
EndSplineSet
Colour: ffff
EndChar

StartChar: uni01AA
Encoding: 426 426 407
Width: 1342
VWidth: 1000
Flags: HMW
LayerCount: 4
Fore
SplineSet
84 1129 m 4
 84 1349 283 1510 503 1510 c 4
 723 1510 922 1349 922 1129 c 4
 922 909 723 748 503 748 c 4
 283 748 84 909 84 1129 c 4
464 1129 m 4
 464 1103 477 1084 503 1084 c 4
 529 1084 542 1103 542 1129 c 4
 542 1155 529 1174 503 1174 c 4
 477 1174 464 1155 464 1129 c 4
922 430 m 1
 922 330 970 290 1060 290 c 0
 1120 290 1195 313 1227 345 c 1
 1318 22 l 1
 1262 -2 1177 -30 1056 -30 c 0
 696 -30 542 160 542 440 c 1
 542 1129 l 5
 922 1129 l 5
 922 430 l 1
EndSplineSet
Colour: ffff
EndChar

StartChar: uni01AB
Encoding: 427 427 408
Width: 1056
VWidth: 1000
Flags: HMW
LayerCount: 4
Fore
SplineSet
946 0 m 4
 946 -250 751 -404 501 -404 c 4
 489 -404 477 -404 465 -403 c 5
 465 -77 l 5
 476 -82 488 -84 501 -84 c 4
 551 -84 586 -50 586 0 c 4
 946 0 l 4
96 1028 m 1
 216 1028 300 1106 300 1226 c 1
 300 1320 l 1
 636 1320 l 1
 636 1040 l 1
 941 1040 l 1
 941 720 l 1
 636 720 l 1
 636 440 l 2
 636 340 684 290 774 290 c 0
 834 290 909 313 941 345 c 1
 1032 22 l 1
 976 -2 891 -30 770 -30 c 0
 410 -30 276 160 276 440 c 2
 276 720 l 1
 24 720 l 1
 24 1028 l 1
 96 1028 l 1
EndSplineSet
Substitution2: "sous-table 'smcp' Bas-de-casse vers petites capitales dans Latin lookup 0" uni01AB.sc
Colour: ff00
EndChar

StartChar: uni01AC
Encoding: 428 428 409
Width: 1574
Flags: HMW
LayerCount: 4
Fore
SplineSet
356 1024 m 1
 2 1024 l 1
 1 1036 0 1048 0 1060 c 4
 0 1310 184 1480 434 1480 c 0
 434 1144 l 0
 384 1144 349 1110 349 1060 c 0
 349 1047 350 1035 356 1024 c 1
597 1144 m 25
 434 1144 l 25
 434 1480 l 25
 1458 1480 l 25
 1458 1144 l 25
 977 1144 l 25
 977 0 l 25
 597 0 l 25
 597 1144 l 25
EndSplineSet
Substitution2: "sous-table 'c2sc' Capitales vers petites capitales dans Latin lookup 0" uni01AD.sc
Colour: ffff
EndChar

StartChar: uni01AE
Encoding: 430 430 410
Width: 1574
Flags: HMW
LayerCount: 4
Fore
SplineSet
1098 -77 m 1
 1087 -82 1075 -84 1062 -84 c 0
 1012 -84 977 -50 977 0 c 0
 597 0 l 4
 597 -250 812 -404 1062 -404 c 4
 1074 -404 1086 -404 1098 -403 c 1
 1098 -77 l 1
597 1144 m 25
 116 1144 l 25
 116 1480 l 25
 1458 1480 l 25
 1458 1144 l 25
 977 1144 l 25
 977 0 l 25
 597 0 l 25
 597 1144 l 25
EndSplineSet
Colour: ffff
EndChar

StartChar: uni01AD
Encoding: 429 429 411
Width: 1208
Flags: HMW
LayerCount: 4
Fore
SplineSet
300 1320 m 4
 300 1570 471 1724 721 1724 c 0
 733 1724 745 1724 757 1723 c 1
 757 1397 l 1
 746 1402 734 1404 721 1404 c 0
 671 1404 636 1370 636 1320 c 0
 636 1040 l 1
 941 1040 l 1
 941 720 l 1
 636 720 l 1
 636 440 l 2
 636 340 684 290 774 290 c 0
 834 290 909 313 941 345 c 1
 1032 22 l 1
 976 -2 891 -30 770 -30 c 0
 410 -30 276 160 276 440 c 2
 276 720 l 1
 24 720 l 1
 24 1028 l 1
 96 1028 l 1
 216 1028 300 1106 300 1226 c 1
 300 1320 l 4
EndSplineSet
Substitution2: "sous-table 'smcp' Bas-de-casse vers petites capitales dans Latin lookup 0" uni01AD.sc
Colour: ff00
EndChar

StartChar: uni01B1
Encoding: 433 433 414
Width: 1688
Flags: HMW
LayerCount: 4
Fore
SplineSet
1604 1480 m 1
 1604 1144 l 1
 1003 1144 l 1
 1003 1480 l 1
 1604 1480 l 1
84 1480 m 1
 685 1480 l 1
 685 1144 l 1
 84 1144 l 1
 84 1480 l 1
1604 740 m 0
 1604 290 1304 -30 844 -30 c 0
 844 306 l 0
 1094 306 1224 490 1224 740 c 0
 1224 930 1149 1082 1003 1144 c 1
 1467 1144 l 1
 1550 1029 1604 892 1604 740 c 0
84 740 m 0
 84 892 138 1029 221 1144 c 1
 685 1144 l 1
 539 1082 464 930 464 740 c 0
 464 490 594 306 844 306 c 0
 844 -30 l 0
 384 -30 84 290 84 740 c 0
EndSplineSet
Colour: ffff
EndChar

StartChar: uni01B2
Encoding: 434 434 415
Width: 1574
VWidth: 1000
Flags: HMW
LayerCount: 4
Fore
SplineSet
1078 1050 m 9
 1078 600 l 1
 1078 390 937 306 787 306 c 0
 637 306 496 390 496 600 c 9
 496 1480 l 25
 116 1480 l 25
 116 600 l 17
 116 240 355 -30 787 -30 c 0
 1219 -30 1458 240 1458 600 c 1
 1458 1050 l 17
 1458 1330 1304 1510 944 1510 c 0
 921 1510 909 1509 888 1507 c 1
 888 1183 l 1
 909 1188 920 1190 940 1190 c 0
 1030 1190 1078 1150 1078 1050 c 9
EndSplineSet
Colour: ffff
EndChar

StartChar: uni01B3
Encoding: 435 435 416
Width: 1611
VWidth: 1000
Flags: HMW
LayerCount: 4
Fore
SplineSet
1448 1133 m 5
 1441 1143 1431 1152 1420 1158 c 4
 1405 1167 1390 1170 1375 1170 c 4
 1347 1170 1323 1152 1305 1127 c 4
 1026 1317 l 4
 1106 1434 1188 1510 1314 1510 c 4
 1402 1510 1495 1484 1580 1435 c 4
 1590 1429 1601 1423 1611 1416 c 5
 1448 1133 l 5
619 0 m 25
 619 834 l 25
 999 834 l 25
 999 0 l 25
 619 0 l 25
812 454 m 1
 703 578 l 1
 58 1480 l 1
 486 1480 l 1
 809 988 l 1
 1026 1317 l 5
 1305 1127 l 5
 812 454 l 1
EndSplineSet
Substitution2: "sous-table 'c2sc' Capitales vers petites capitales dans Latin lookup 0" uni01B4.sc
Colour: ffff
EndChar

StartChar: uni01B4
Encoding: 436 436 417
Width: 1326
VWidth: 1000
Flags: HMW
LayerCount: 4
Fore
SplineSet
1237 754 m 5
 1228 762 1216 767 1204 771 c 4
 1195 774 1186 775 1177 775 c 4
 1141 775 1113 751 1099 713 c 4
 776 806 l 4
 823 997 972 1100 1148 1100 c 4
 1194 1100 1242 1092 1292 1078 c 4
 1304 1075 1315 1071 1326 1067 c 5
 1237 754 l 5
801 -158 m 1
 719 -384 610 -470 331 -470 c 0
 210 -470 120 -439 64 -415 c 1
 160 -95 l 1
 192 -127 271 -150 331 -150 c 0
 391 -150 445 -107 460 -44 c 1
 472 0 l 1
 106 1040 l 1
 490 1040 l 1
 666 404 l 1
 776 806 l 5
 1099 713 l 5
 855 0 l 1
 801 -158 l 1
EndSplineSet
Substitution2: "sous-table 'smcp' Bas-de-casse vers petites capitales dans Latin lookup 0" uni01B4.sc
Colour: ff00
EndChar

StartChar: uni01B5
Encoding: 437 437 418
Width: 1466
VWidth: 1000
Flags: HMW
LayerCount: 4
Fore
SplineSet
1163 620 m 1
 303 620 l 1
 303 666 303 814 303 860 c 1
 1163 860 l 1
 1163 620 l 1
299 0 m 1
 116 302 l 1
 1167 1480 l 1
 1350 1176 l 1
 299 0 l 1
539 336 m 1
 1350 336 l 1
 1350 0 l 1
 906 0 560 0 116 0 c 1
 116 302 l 1
 539 336 l 1
937 1144 m 5
 140 1144 l 1
 140 1480 l 1
 584 1480 906 1480 1350 1480 c 1
 1350 1176 l 1
 937 1144 l 5
EndSplineSet
Substitution2: "sous-table 'c2sc' Capitales vers petites capitales dans Latin lookup 0" uni01B6.sc
Colour: ffff
EndChar

StartChar: uni01B6
Encoding: 438 438 419
Width: 1124
Flags: HMW
LayerCount: 4
Fore
SplineSet
116 1040 m 1
 116 720 l 1
 594 720 l 1
 1008 752 l 1
 1008 1040 l 1
 116 1040 l 1
1004 320 m 1
 530 320 l 1
 116 288 l 1
 116 0 l 1
 1004 0 l 1
 1004 320 l 1
590 320 m 5
 1008 752 l 1
 534 720 l 1
 116 288 l 1
 590 320 l 5
146 400 m 1
 988 400 l 1
 988 640 l 1
 146 640 l 1
 146 594 146 446 146 400 c 1
EndSplineSet
Substitution2: "sous-table 'smcp' Bas-de-casse vers petites capitales dans Latin lookup 0" uni01B6.sc
Colour: ff00
EndChar

StartChar: uni01B7
Encoding: 439 439 420
Width: 1394
VWidth: 1000
Flags: HMW
LayerCount: 4
Fore
SplineSet
765 634 m 1
 582 912 l 1
 1107 1480 l 1
 1250 1176 l 1
 765 634 l 1
1310 453 m 4
 1310 120 1056 -30 696 -30 c 4
 401 -30 127 91 84 361 c 5
 457 461 l 4
 457 361 546 306 696 306 c 4
 846 306 930 361 930 461 c 4
 930 561 846 616 696 616 c 0
 676 616 582 616 582 616 c 17
 582 912 l 9
 582 912 676 936 696 936 c 8
 1035 936 1310 720 1310 453 c 4
164 1480 m 1
 1250 1480 l 1
 1250 1176 l 1
 837 1144 l 1
 164 1144 l 1
 164 1480 l 1
EndSplineSet
Colour: ffff
EndChar

StartChar: uni01B8
Encoding: 440 440 421
Width: 1394
VWidth: 1000
Flags: HMW
LayerCount: 4
Fore
SplineSet
629 634 m 1
 812 912 l 1
 287 1480 l 1
 144 1176 l 1
 629 634 l 1
84 453 m 0
 84 120 338 -30 698 -30 c 0
 993 -30 1267 91 1310 361 c 1
 937 461 l 0
 937 361 848 306 698 306 c 0
 548 306 464 361 464 461 c 0
 464 561 548 616 698 616 c 0
 718 616 812 616 812 616 c 17
 812 912 l 9
 812 912 718 936 698 936 c 8
 359 936 84 720 84 453 c 0
1230 1480 m 5
 144 1480 l 1
 144 1176 l 1
 557 1144 l 1
 1230 1144 l 1
 1230 1480 l 5
EndSplineSet
Colour: ffff
EndChar

StartChar: uni01B9
Encoding: 441 441 422
Width: 1394
VWidth: 1000
Flags: HMW
LayerCount: 4
Fore
SplineSet
629 194 m 1
 812 472 l 1
 287 1040 l 1
 144 736 l 1
 629 194 l 1
84 13 m 0
 84 -320 338 -470 698 -470 c 0
 993 -470 1267 -349 1310 -79 c 1
 937 21 l 0
 937 -79 848 -134 698 -134 c 0
 548 -134 464 -79 464 21 c 0
 464 121 548 176 698 176 c 0
 718 176 812 176 812 176 c 17
 812 472 l 9
 812 472 718 496 698 496 c 8
 359 496 84 280 84 13 c 0
1230 1040 m 5
 144 1040 l 1
 144 736 l 1
 557 704 l 1
 1230 704 l 1
 1230 1040 l 5
EndSplineSet
Colour: ffff
EndChar

StartChar: uni01BA
Encoding: 442 442 423
Width: 1386
VWidth: 1000
Flags: HMW
LayerCount: 4
Fore
SplineSet
688 -120 m 0
 502 -120 444 -122 444 -140 c 0
 444 -158 502 -160 688 -160 c 0
 827 -160 1097 -144 1224 -89 c 1
 1302 -403 l 1
 1180 -454 904 -470 688 -470 c 0
 242 -470 84 -330 84 -150 c 0
 84 30 172 226 688 226 c 0
 874 226 942 228 942 246 c 0
 942 264 874 266 688 266 c 0
 574 266 l 1
 574 562 l 1
 688 586 l 0
 1144 586 1302 436 1302 256 c 0
 1302 76 1204 -120 688 -120 c 0
757 284 m 5
 574 562 l 1
 1099 1040 l 1
 1242 752 l 1
 757 284 l 5
156 1040 m 1
 1242 1040 l 1
 1242 752 l 1
 829 720 l 1
 156 720 l 1
 156 1040 l 1
EndSplineSet
Colour: ff00
EndChar

StartChar: uni01BB
Encoding: 443 443 424
Width: 1370
VWidth: 1000
Flags: HMW
LayerCount: 4
Fore
SplineSet
1280 530 m 1
 90 530 l 1
 90 786 l 1
 1280 786 l 1
 1280 530 l 1
494 906 m 1
 107 990 l 0
 107 1310 353 1510 689 1510 c 0
 1025 1510 1271 1310 1271 1030 c 0
 891 1030 l 0
 891 1120 784 1174 689 1174 c 0
 574 1174 487 1090 487 990 c 0
 487 932 494 906 494 906 c 1
90 0 m 1
 90 160 130 465 689 788 c 0
 869 892 891 950 891 1030 c 1
 1271 1030 l 1
 1271 739 1066 628 789 468 c 0
 529 318 470 90 470 0 c 1
 403 0 157 0 90 0 c 1
370 336 m 1
 1280 336 l 1
 1280 0 l 1
 470 0 l 5
 370 336 l 1
EndSplineSet
Colour: ffff
EndChar

StartChar: uni01BC
Encoding: 444 444 425
Width: 1487
VWidth: 1000
Flags: HMW
LayerCount: 4
Fore
SplineSet
576 615 m 1
 382 678 l 1
 464 829 583 1012 806 1012 c 0
 1155 1012 1403 802 1403 491 c 0
 1403 180 1155 -30 805 -30 c 0
 510 -30 236 91 193 361 c 1
 566 461 l 0
 566 361 655 306 805 306 c 0
 926 306 1023 371 1023 491 c 0
 1023 611 906 676 786 676 c 0
 732 676 619 668 576 615 c 1
349.052734375 1410 m 5
 702.701171875 1410 l 1
 595 678 l 1
 382 678 l 1
 251 720 l 1
 349.052734375 1410 l 5
58 1144 m 1
 58 1480 l 1
 1331 1480 l 1
 1331 1144 l 1
 58 1144 l 1
EndSplineSet
Substitution2: "sous-table 'c2sc' Capitales vers petites capitales dans Latin lookup 0" uni01BD.sc
Colour: ffff
EndChar

StartChar: uni01BD
Encoding: 445 445 426
Width: 1166
Flags: HMW
LayerCount: 4
Fore
SplineSet
603 290 m 0
 688 290 736 302 736 343 c 0
 736 384 687 404 603 404 c 0
 565 404 505 391 475 374 c 1
 287 428 l 1
 315 557 465 684 642 684 c 0
 919 684 1096 571 1096 343 c 0
 1096 115 926 -30 603 -30 c 0
 373 -30 167 65 133 299 c 1
 475 353 l 0
 475 311 498 290 603 290 c 0
240.470703125 918 m 5
 555.047851562 918 l 5
 475 374 l 1
 287 428 l 1
 157 466 l 1
 240.470703125 918 l 5
58 720 m 1
 58 1040 l 1
 1036 1040 l 1
 1036 720 l 1
 58 720 l 1
EndSplineSet
Substitution2: "sous-table 'smcp' Bas-de-casse vers petites capitales dans Latin lookup 0" uni01BD.sc
Colour: ff00
EndChar

StartChar: uni01BE
Encoding: 446 446 427
Width: 1296
VWidth: 1000
Flags: HMW
LayerCount: 4
Fore
SplineSet
636 720 m 5
 636 715 l 2
 636 695 666 675 725 663 c 0
 1018 601 1212 566 1212 326 c 0
 1212 86 1001 -30 725 -30 c 0
 486 -30 294 85 246 265 c 1
 598 356 l 0
 598 326 635 290 725 290 c 0
 815 290 852 296 852 326 c 0
 852 356 784 371 725 383 c 0
 445 440 276 515 276 715 c 2
 276 720 l 1
 24 720 l 1
 24 1028 l 1
 96 1028 l 1
 216 1028 300 1106 300 1226 c 1
 300 1320 l 1
 636 1320 l 1
 636 1040 l 1
 941 1040 l 1
 941 720 l 1
 636 720 l 5
EndSplineSet
Colour: ff00
EndChar

StartChar: uni01BF
Encoding: 447 447 428
Width: 1332
VWidth: 1000
Flags: HMW
LayerCount: 4
Fore
SplineSet
888 532 m 4
 888 642 812 750 682 750 c 0
 552 750 476 642 476 532 c 6
 476 -440 l 1
 116 -440 l 1
 116 1040 l 1
 464 1040 l 1
 464 920 l 1
 499 981 628 1070 778 1070 c 0
 1042 1070 1248 852 1248 532 c 4
 1248 139 856 -240 116 -240 c 1
 116 80 l 1
 526 80 888 212 888 532 c 4
EndSplineSet
Substitution2: "sous-table 'smcp' Bas-de-casse vers petites capitales dans Latin lookup 0" uni01BF.sc
Colour: ff00
EndChar

StartChar: uni01C0
Encoding: 448 448 429
Width: 592
Flags: HMW
LayerCount: 4
Fore
SplineSet
476 1480 m 29
 476 0 l 29
 116 0 l 1
 116 1480 l 1
 476 1480 l 29
EndSplineSet
Colour: ff00
EndChar

StartChar: uni01C1
Encoding: 449 449 430
Width: 1132
Flags: HMW
LayerCount: 4
Fore
SplineSet
1016 1480 m 29
 1016 0 l 29
 656 0 l 1
 656 1480 l 1
 1016 1480 l 29
476 1480 m 25
 476 0 l 25
 116 0 l 1
 116 1480 l 1
 476 1480 l 25
EndSplineSet
Colour: ff00
EndChar

StartChar: uni01C2
Encoding: 450 450 431
Width: 1160
Flags: HMW
LayerCount: 4
Fore
SplineSet
116 800 m 1
 116 1120 l 1
 1044 1120 l 17
 1044 800 l 1
 116 800 l 1
116 360 m 1
 116 680 l 1
 1044 680 l 17
 1044 360 l 1
 116 360 l 1
760 1480 m 25
 760 0 l 25
 400 0 l 1
 400 1480 l 1
 760 1480 l 25
EndSplineSet
Colour: ff00
EndChar

StartChar: uni01C3
Encoding: 451 451 432
Width: 644
Flags: HMW
LayerCount: 4
Fore
SplineSet
122 160 m 4
 122 271 211 360 322 360 c 4
 433 360 522 271 522 160 c 4
 522 49 433 -40 322 -40 c 4
 211 -40 122 49 122 160 c 4
116 1480 m 1
 528 1480 l 1
 482 452 l 1
 162 452 l 1
 116 1480 l 1
EndSplineSet
Colour: ff00
EndChar

StartChar: uni01DD
Encoding: 477 477 450
Width: 1268
VWidth: 1000
Flags: HMW
LayerCount: 4
Fore
SplineSet
1058 380 m 1
 152 380 l 1
 454 640 l 5
 1058 640 l 1
 1058 380 l 1
445 672 m 1
 138 798 l 1
 230 975 412 1070 634 1070 c 0
 955 1070 1184 840 1184 520 c 0
 1184 200 954 -30 634 -30 c 0
 314 -30 84 200 84 520 c 0
 84 561 89 602 96 640 c 1
 454 640 l 1
 440 605 414 564 414 520 c 0
 414 383 497 290 634 290 c 0
 771 290 864 383 864 520 c 0
 864 650 772 750 634 750 c 0
 520 750 463 711 445 672 c 1
EndSplineSet
Substitution2: "sous-table 'smcp' Bas-de-casse vers petites capitales dans Latin lookup 0" uni01DD.sc
Colour: ff00
EndChar

StartChar: uni01E4
Encoding: 484 484 456
Width: 1740
Flags: HMW
LayerCount: 4
Fore
SplineSet
1740 220 m 5
 880 220 l 5
 880 266 880 414 880 460 c 5
 1740 460 l 5
 1740 220 l 5
1190 930 m 1
 1139 1078 1025 1174 844 1174 c 0
 594 1174 464 990 464 740 c 0
 464 490 594 306 844 306 c 0
 1025 306 1139 402 1190 550 c 1
 1355 360 l 1
 1235 120 1159 -30 844 -30 c 0
 384 -30 84 290 84 740 c 0
 84 1190 384 1510 844 1510 c 0
 1159 1510 1399 1360 1519 1120 c 1
 1190 930 l 1
782 824 m 25
 1527 824 l 25
 1527 0 l 25
 1167 0 l 17
 1167 227 l 1
 1147 253 l 1
 1147 488 l 9
 782 488 l 25
 782 824 l 25
EndSplineSet
Substitution2: "'ss03' Simplified G and I lookups0-1" uni01E4.ss03
Substitution2: "sous-table 'c2sc' Capitales vers petites capitales dans Latin lookup 0" uni01E5.sc
Colour: ffff
EndChar

StartChar: uni01E5
Encoding: 485 485 457
Width: 1505
VWidth: 997
Flags: HMW
LayerCount: 4
Fore
SplineSet
742 980 m 1
 777 1041 866 1120 1016 1120 c 0
 1087 1120 1150 1108 1206 1084 c 1
 1099 741 l 1
 1061 780 1003 800 920 800 c 0
 790 800 754 742 754 632 c 9
 742 980 l 1
588 520 m 0
 588 280 l 0
 493 280 438 275 438 260 c 0
 438 245 458 240 588 240 c 0
 588 -80 l 0
 340 -80 133 30 133 240 c 0
 133 440 420 520 588 520 c 0
1206 -100 m 0
 1206 -320 1021 -470 588 -470 c 0
 155 -470 24 -315 24 -114 c 0
 24 107 306 160 588 160 c 0
 588 -20 l 0
 438 -20 384 -58 384 -95 c 0
 384 -132 443 -150 588 -150 c 0
 733 -150 846 -150 846 -110 c 0
 846 -80 734 -80 588 -80 c 0
 588 240 l 0
 1013 240 1206 100 1206 -100 c 0
492 675 m 0
 492 627 528 600 588 600 c 0
 648 600 684 627 684 675 c 0
 684 723 648 750 588 750 c 0
 528 750 492 723 492 675 c 0
132 675 m 0
 132 894 325 1070 588 1070 c 0
 851 1070 1044 894 1044 675 c 0
 1044 456 851 280 588 280 c 0
 325 280 132 456 132 675 c 0
1505 -240 m 1
 645 -240 l 1
 645 -194 645 -46 645 0 c 1
 1505 0 l 1
 1505 -240 l 1
EndSplineSet
Substitution2: "sous-table 'smcp' Bas-de-casse vers petites capitales dans Latin lookup 0" uni01E5.sc
Substitution2: "'ss04' Simplified a and g lookups0-1" uni01E5.ss04
Colour: ff00
EndChar

StartChar: uni0292
Encoding: 658 658 471
Width: 1394
VWidth: 1000
Flags: HMW
LayerCount: 4
Fore
SplineSet
765 194 m 5
 582 472 l 5
 1107 1040 l 5
 1250 736 l 5
 765 194 l 5
1310 13 m 4
 1310 -320 1056 -470 696 -470 c 4
 401 -470 127 -349 84 -79 c 5
 457 21 l 4
 457 -79 546 -134 696 -134 c 4
 846 -134 930 -79 930 21 c 4
 930 121 846 176 696 176 c 4
 676 176 582 176 582 176 c 21
 582 472 l 13
 582 472 676 496 696 496 c 12
 1035 496 1310 280 1310 13 c 4
164 1040 m 5
 1250 1040 l 5
 1250 736 l 5
 837 704 l 5
 164 704 l 5
 164 1040 l 5
EndSplineSet
Colour: ffff
EndChar

StartChar: uni01F7
Encoding: 503 503 496
Width: 1464
VWidth: 1000
Flags: HMW
LayerCount: 4
Fore
SplineSet
1000 880 m 4
 1000 1090 887 1174 737 1174 c 0
 587 1174 476 1084 476 874 c 2
 476 -440 l 1
 116 -440 l 1
 116 1480 l 1
 463 1480 l 1
 463 1360 l 1
 529 1468 642 1510 782 1510 c 0
 1152 1510 1380 1290 1380 880 c 4
 1380 460 966 2 116 2 c 5
 116 338 l 5
 676 338 1000 590 1000 880 c 4
EndSplineSet
Substitution2: "sous-table 'c2sc' Capitales vers petites capitales dans Latin lookup 0" uni01BF.sc
Colour: ffff
EndChar

StartChar: uni01F6
Encoding: 502 502 497
Width: 2286
Flags: HMW
LayerCount: 4
Fore
SplineSet
2170 1040 m 29
 2170 467 l 5
 2170 147 1944 -31 1624 -31 c 4
 1304 -31 1078 147 1078 467 c 5
 1078 522 l 25
 1458 522 l 1
 1458 467 l 6
 1458 357 1494 305 1624 305 c 4
 1754 305 1790 357 1790 467 c 6
 1790 1040 l 5
 2170 1040 l 29
116 1480 m 25
 496 1480 l 25
 496 908 l 25
 1078 908 l 25
 1078 1480 l 25
 1458 1480 l 1
 1458 522 l 25
 1078 522 l 25
 1078 572 l 1
 496 572 l 25
 496 0 l 25
 116 0 l 25
 116 1480 l 25
EndSplineSet
Substitution2: "sous-table 'c2sc' Capitales vers petites capitales dans Latin lookup 0" uni0195.sc
Colour: ffff
EndChar

StartChar: uni030F
Encoding: 783 783 498
Width: 0
VWidth: 1000
Flags: HMW
AnchorPoint: "top_center" 642 1040 mark 0
LayerCount: 4
Fore
SplineSet
223 1224 m 1
 579 1224 l 1
 401 1480 l 1
 -3 1480 l 1
 223 1224 l 1
805 1224 m 5
 1161 1224 l 1
 983 1480 l 1
 579 1480 l 1
 805 1224 l 5
EndSplineSet
Colour: ffff00
EndChar

StartChar: uni0311
Encoding: 785 785 511
Width: 0
VWidth: 1000
Flags: HMW
AnchorPoint: "top_center" 642 1040 mark 0
LayerCount: 4
Fore
SplineSet
642 1510 m 4
 432 1510 306 1364 306 1224 c 5
 564 1224 l 5
 564 1254 592 1300 642 1300 c 4
 692 1300 718 1254 718 1224 c 5
 978 1224 l 5
 978 1364 852 1510 642 1510 c 4
EndSplineSet
Colour: ffff00
EndChar

StartChar: uni0326
Encoding: 806 806 528
Width: 0
VWidth: 1000
Flags: HMW
AnchorPoint: "bottom_center" 642 0 mark 0
LayerCount: 4
Fore
SplineSet
522 -232 m 0
 522 -165 575 -112 642 -112 c 0
 709 -112 762 -165 762 -232 c 0
 762 -299 709 -352 642 -352 c 0
 575 -352 522 -299 522 -232 c 0
531 -429 m 1
 608 -417 667 -368 667 -315 c 0
 667 -289 643 -232 643 -232 c 1
 642 -112 l 1
 710 -112 801 -155 801 -315 c 0
 801 -442 662 -540 567 -557 c 1
 531 -429 l 1
EndSplineSet
Colour: ffbf00
EndChar

StartChar: uni021C
Encoding: 540 540 529
Width: 1386
VWidth: 1000
Flags: HMW
LayerCount: 4
Fore
SplineSet
808 434 m 1
 876 404 922 340 922 268 c 0
 922 18 688 -134 258 -134 c 1
 258 -470 l 1
 918 -470 1302 -172 1302 268 c 0
 1302 430 1219 579 1084 676 c 1
 808 434 l 1
666 1174 m 4
 781 1174 868 1090 868 990 c 0
 868 740 688 588 258 588 c 1
 258 252 l 1
 918 252 1248 550 1248 990 c 0
 1248 1270 1002 1510 666 1510 c 0
 330 1510 84 1310 84 990 c 0
 471 906 l 1
 471 906 464 932 464 990 c 0
 464 1090 551 1174 666 1174 c 4
EndSplineSet
Substitution2: "sous-table 'c2sc' Capitales vers petites capitales dans Latin lookup 0" uni021D.sc
Colour: ffff
EndChar

StartChar: uni021D
Encoding: 541 541 530
Width: 1182
Flags: HMW
LayerCount: 4
Fore
SplineSet
645 308 m 1
 701 289 738 249 738 203 c 0
 738 45 569 -52 257 -52 c 1
 257 -372 l 1
 789 -372 1098 -145 1098 192 c 0
 1098 316 1020 430 892 504 c 1
 645 308 l 1
565 782 m 0
 646 782 687 735 687 679 c 0
 687 539 560 455 257 455 c 1
 257 135 l 1
 784 135 1047 363 1047 702 c 0
 1047 918 829 1103 565 1103 c 0
 301 1103 84 947 84 698 c 0
 447 632 l 1
 447 632 442 647 442 679 c 0
 442 735 484 782 565 782 c 0
EndSplineSet
Substitution2: "sous-table 'smcp' Bas-de-casse vers petites capitales dans Latin lookup 0" uni021D.sc
Colour: ff00
EndChar

StartChar: uni0220
Encoding: 544 544 531
Width: 1496
VWidth: 1000
Flags: HMW
LayerCount: 4
Fore
SplineSet
1380 880 m 21
 1380 1290 1152 1510 782 1510 c 0
 642 1510 529 1468 463 1360 c 1
 463 1480 l 1
 116 1480 l 1
 116 0 l 1
 476 0 l 1
 476 874 l 2
 476 1084 587 1174 737 1174 c 0
 887 1174 993 1090 1000 880 c 2
 1000 -440 l 1
 1380 -440 l 1
 1380 880 l 21
EndSplineSet
Substitution2: "sous-table 'c2sc' Capitales vers petites capitales dans Latin lookup 0" uni019E.sc
Colour: ffff
EndChar

StartChar: uni0221
Encoding: 545 545 532
Width: 1688
VWidth: 1000
Flags: HMW
LayerCount: 4
Fore
SplineSet
1328 -339 m 4
 1133 -339 968 -213 968 0 c 4
 968 213 1133 339 1328 339 c 4
 1523 339 1688 213 1688 0 c 4
 1688 -213 1523 -339 1328 -339 c 4
1328 -99 m 4
 1382 -99 1418 -54 1418 0 c 4
 1418 54 1382 99 1328 99 c 4
 1274 99 1238 54 1238 0 c 4
 1238 -54 1274 -99 1328 -99 c 4
632 -338 m 5
 632 -338 803 339 1328 339 c 5
 1328 99 l 5
 998 99 862 -470 862 -470 c 5
 632 -338 l 5
854 510 m 0
 854 640 791 750 654 750 c 0
 517 750 444 650 444 520 c 0
 444 390 517 290 654 290 c 0
 785 290 854 380 854 510 c 0
1214 168 m 1
 1214 66 1238 0 1238 0 c 5
 890 0 l 1
 890 0 866 60 866 120 c 1
 866 80 739 -30 589 -30 c 0
 269 -30 84 200 84 520 c 0
 84 840 269 1070 589 1070 c 0
 739 1070 844 959 854 920 c 1
 854 1480 l 1
 1214 1480 l 1
 1214 168 l 1
EndSplineSet
Layer: 2
SplineSet
822 -116 m 4
 822 26 932 110 1062 110 c 4
 1192 110 1302 26 1302 -116 c 4
 1302 -258 1192 -342 1062 -342 c 4
 932 -342 822 -258 822 -116 c 4
1002 -116 m 4
 1002 -152 1026 -182 1062 -182 c 4
 1098 -182 1122 -152 1122 -116 c 4
 1122 -80 1098 -50 1062 -50 c 4
 1026 -50 1002 -80 1002 -116 c 4
598 -341.005859375 m 5
 598 -341.005859375 713 109.994140625 1063 109.994140625 c 5
 1063 -50.005859375 l 5
 843 -50.005859375 751 -429.005859375 751 -429.005859375 c 5
 598 -341.005859375 l 5
EndSplineSet
Substitution2: "sous-table 'smcp' Bas-de-casse vers petites capitales dans Latin lookup 0" uni0221.sc
Colour: ff00
EndChar

StartChar: uni0223
Encoding: 547 547 533
Width: 1392
VWidth: 1000
Flags: HMW
LayerCount: 4
Fore
SplineSet
787 1181 m 1
 868 1510 l 1
 1103 1462 1257 1294 1257 1073 c 0
 1257 844 1091 781 1091 781 c 1
 1091 781 1308 694 1308 453 c 0
 1308 120 1056 -30 696 -30 c 0
 336 -30 84 120 84 453 c 0
 84 694 301 781 301 781 c 1
 301 781 135 844 135 1073 c 0
 135 1294 289 1462 524 1510 c 1
 605 1181 l 1
 543 1164 515 1112 515 1055 c 0
 515 975 571 936 696 936 c 0
 821 936 877 975 877 1055 c 0
 877 1112 849 1164 787 1181 c 1
696 616 m 4
 546 616 464 561 464 461 c 0
 464 361 546 306 696 306 c 0
 846 306 928 361 928 461 c 0
 928 561 846 616 696 616 c 4
EndSplineSet
Substitution2: "sous-table 'smcp' Bas-de-casse vers petites capitales dans Latin lookup 0" uni0223.sc
Colour: ffff
EndChar

StartChar: uni0222
Encoding: 546 546 534
Width: 1502
VWidth: 1000
Flags: HMW
LayerCount: 4
Fore
SplineSet
135 1003 m 4
 135 854 301 781 301 781 c 1
 301 781 84 694 84 453 c 0
 84 120 370 -30 750 -30 c 0
 1130 -30 1418 120 1418 453 c 0
 1418 695 1144 781 1144 781 c 1
 1144 781 1364 834 1364 1063 c 0
 1364 1330 1111 1509 804 1509 c 1
 804 1173 l 1
 915 1164 984 1124 984 1055 c 0
 984 975 892 936 750 936 c 0
 608 936 515 945 515 975 c 0
 515 1005 616 1012 696 1012 c 1
 696 1349 l 1
 389 1349 135 1271 135 1003 c 4
750 616 m 0
 920 616 1038 561 1038 461 c 0
 1038 361 920 306 750 306 c 0
 580 306 464 361 464 461 c 0
 464 561 580 616 750 616 c 0
EndSplineSet
Substitution2: "sous-table 'c2sc' Capitales vers petites capitales dans Latin lookup 0" uni0223.sc
Colour: ffff
EndChar

StartChar: uni0224
Encoding: 548 548 535
Width: 1466
VWidth: 1000
Flags: HMW
LayerCount: 4
Fore
SplineSet
849 -77 m 5
 860 -82 872 -84 885 -84 c 4
 935 -84 970 -50 970 0 c 12
 1350 0 l 4
 1350 -250 1135 -404 885 -404 c 4
 873 -404 861 -404 849 -403 c 5
 849 -77 l 5
299 0 m 1
 116 302 l 1
 1167 1480 l 1
 1350 1176 l 1
 299 0 l 1
539 336 m 1
 1350 336 l 1
 1350 0 l 5
 906 0 560 0 116 0 c 1
 116 302 l 1
 539 336 l 1
937 1144 m 1
 140 1144 l 1
 140 1480 l 1
 584 1480 906 1480 1350 1480 c 1
 1350 1176 l 1
 937 1144 l 1
EndSplineSet
Substitution2: "sous-table 'c2sc' Capitales vers petites capitales dans Latin lookup 0" uni0225.sc
Colour: ffff
EndChar

StartChar: uni0225
Encoding: 549 549 536
Width: 1124
Flags: HMW
LayerCount: 4
Fore
SplineSet
523 -77 m 5
 534 -82 546 -84 559 -84 c 4
 609 -84 644 -50 644 0 c 12
 1004 0 l 4
 1004 -250 809 -404 559 -404 c 4
 547 -404 535 -404 523 -403 c 5
 523 -77 l 5
116 1040 m 1
 116 720 l 1
 594 720 l 1
 1008 752 l 1
 1008 1040 l 1
 116 1040 l 1
1004 320 m 1
 530 320 l 1
 116 288 l 1
 116 0 l 1
 1004 0 l 5
 1004 320 l 1
590 320 m 1
 1008 752 l 1
 534 720 l 1
 116 288 l 1
 590 320 l 1
EndSplineSet
Substitution2: "sous-table 'smcp' Bas-de-casse vers petites capitales dans Latin lookup 0" uni0225.sc
Colour: ff00
EndChar

StartChar: uni0234
Encoding: 564 564 537
Width: 1056
Flags: HMW
LayerCount: 4
Fore
SplineSet
696 -339 m 0
 501 -339 336 -213 336 0 c 0
 336 213 501 339 696 339 c 0
 891 339 1056 213 1056 0 c 0
 1056 -213 891 -339 696 -339 c 0
696 -99 m 0
 750 -99 786 -54 786 0 c 0
 786 54 750 99 696 99 c 0
 642 99 606 54 606 0 c 0
 606 -54 642 -99 696 -99 c 0
0 -338 m 1
 0 -338 171 339 696 339 c 1
 696 99 l 1
 366 99 230 -470 230 -470 c 1
 0 -338 l 1
246 1480 m 1
 606 1480 l 1
 606 578 l 1
 606 0 l 1
 246 0 l 1
 246 578 l 1
 246 1480 l 1
EndSplineSet
Substitution2: "sous-table 'smcp' Bas-de-casse vers petites capitales dans Latin lookup 0" uni0234.sc
Colour: ff00
EndChar

StartChar: uni0235
Encoding: 565 565 538
Width: 1618
VWidth: 1000
Flags: HMW
LayerCount: 4
Fore
SplineSet
1258 -339 m 4
 1063 -339 898 -213 898 0 c 4
 898 213 1063 339 1258 339 c 4
 1453 339 1618 213 1618 0 c 4
 1618 -213 1453 -339 1258 -339 c 4
1258 -99 m 4
 1312 -99 1348 -54 1348 0 c 4
 1348 54 1312 99 1258 99 c 4
 1204 99 1168 54 1168 0 c 4
 1168 -54 1204 -99 1258 -99 c 4
562 -338 m 5
 562 -338 733 339 1258 339 c 5
 1258 99 l 5
 928 99 792 -470 792 -470 c 5
 562 -338 l 5
808 0 m 1
 808 572 l 2
 808 682 772 750 642 750 c 0
 512 750 476 682 476 572 c 2
 476 0 l 1
 116 0 l 1
 116 1040 l 1
 464 1040 l 1
 464 920 l 1
 499 981 588 1070 738 1070 c 0
 1002 1070 1168 892 1168 572 c 1
 1168 0 l 1
 808 0 l 1
EndSplineSet
Substitution2: "sous-table 'smcp' Bas-de-casse vers petites capitales dans Latin lookup 0" uni0235.sc
Colour: ff00
EndChar

StartChar: uni0236
Encoding: 566 566 539
Width: 1086
VWidth: 1000
Flags: HMW
LayerCount: 4
Fore
SplineSet
726 -339 m 4
 531 -339 366 -213 366 0 c 4
 366 213 531 339 726 339 c 4
 921 339 1086 213 1086 0 c 4
 1086 -213 921 -339 726 -339 c 4
726 -99 m 4
 780 -99 816 -54 816 0 c 4
 816 54 780 99 726 99 c 4
 672 99 636 54 636 0 c 4
 636 -54 672 -99 726 -99 c 4
30 -338 m 5
 30 -338 201 339 726 339 c 5
 726 99 l 5
 396 99 260 -470 260 -470 c 5
 30 -338 l 5
276 0 m 9
 276 720 l 1
 24 720 l 1
 24 1028 l 1
 96 1028 l 1
 216 1028 300 1106 300 1226 c 1
 300 1320 l 1
 636 1320 l 1
 636 1040 l 1
 941 1040 l 1
 941 720 l 1
 636 720 l 1
 636 0 l 21
 276 0 l 9
EndSplineSet
Substitution2: "sous-table 'smcp' Bas-de-casse vers petites capitales dans Latin lookup 0" uni0236.sc
Colour: ff00
EndChar

StartChar: uni0238
Encoding: 568 568 540
Width: 2068
VWidth: 1000
Flags: HMW
LayerCount: 4
Fore
SplineSet
854 510 m 0
 854 640 791 750 654 750 c 0
 517 750 444 650 444 520 c 0
 444 390 517 290 654 290 c 0
 785 290 854 380 854 510 c 0
854 1480 m 1
 1214 1480 l 1
 1214 920 l 1
 1224 959 1329 1070 1479 1070 c 0
 1799 1070 1984 840 1984 520 c 0
 1984 200 1799 -30 1479 -30 c 0
 1329 -30 1202 80 1202 120 c 1
 1202 0 l 1
 866 0 l 1
 866 120 l 1
 866 80 739 -30 589 -30 c 0
 269 -30 84 200 84 520 c 0
 84 840 269 1070 589 1070 c 0
 739 1070 844 959 854 920 c 1
 854 1480 l 1
1214 510 m 0
 1214 380 1283 290 1414 290 c 0
 1551 290 1624 390 1624 520 c 0
 1624 650 1551 750 1414 750 c 0
 1277 750 1214 640 1214 510 c 0
EndSplineSet
Colour: ff00
EndChar

StartChar: uni0239
Encoding: 569 569 541
Width: 2068
VWidth: 1000
Flags: HMW
LayerCount: 4
Fore
SplineSet
854 530 m 4
 854 400 791 290 654 290 c 4
 517 290 444 390 444 520 c 4
 444 650 517 750 654 750 c 4
 785 750 854 660 854 530 c 4
854 -440 m 5
 1214 -440 l 5
 1214 120 l 5
 1224 81 1329 -30 1479 -30 c 4
 1799 -30 1984 200 1984 520 c 4
 1984 840 1799 1070 1479 1070 c 4
 1329 1070 1202 960 1202 920 c 5
 1202 1040 l 5
 866 1040 l 5
 866 920 l 5
 866 960 739 1070 589 1070 c 4
 269 1070 84 840 84 520 c 4
 84 200 269 -30 589 -30 c 4
 739 -30 844 81 854 120 c 5
 854 -440 l 5
1214 530 m 4
 1214 660 1283 750 1414 750 c 4
 1551 750 1624 650 1624 520 c 4
 1624 390 1551 290 1414 290 c 4
 1277 290 1214 400 1214 530 c 4
EndSplineSet
Colour: ff00
EndChar

StartChar: uni0338
Encoding: 824 824 542
Width: 0
Flags: HMW
LayerCount: 4
Fore
SplineSet
1046 1620 m 1
 1238 1476 l 1
 -61 -140 l 1
 -253 4 l 1
 1046 1620 l 1
EndSplineSet
Colour: ffff
EndChar

StartChar: uni0337
Encoding: 823 823 543
Width: 0
VWidth: 1000
Flags: HMW
LayerCount: 4
Fore
SplineSet
1016 1180 m 1
 1208 1036 l 1
 292 -140 l 1
 100 4 l 1
 1016 1180 l 1
EndSplineSet
Colour: ff00
EndChar

StartChar: uni023A
Encoding: 570 570 544
Width: 1588
VWidth: 1000
Flags: HMW
LayerCount: 4
Fore
SplineSet
1347 1620 m 5
 1539 1476 l 5
 240 -140 l 5
 48 4 l 5
 1347 1620 l 5
345 688 m 1
 1216 688 l 1
 1216 352 l 1
 345 352 l 1
 345 688 l 1
798 1080 m 1
 456 0 l 1
 64 0 l 1
 556 1480 l 1
 1032 1480 l 1
 1524 0 l 1
 1132 0 l 1
 798 1080 l 1
EndSplineSet
Colour: ffff
EndChar

StartChar: uni023B
Encoding: 571 571 545
Width: 1603
Flags: HMW
LayerCount: 4
Fore
SplineSet
1411 1620 m 5
 1603 1476 l 5
 304 -140 l 5
 112 4 l 5
 1411 1620 l 5
1194 930 m 1
 1143 1078 1025 1174 844 1174 c 0
 594 1174 464 990 464 740 c 0
 464 490 594 306 844 306 c 0
 1025 306 1143 402 1194 550 c 1
 1519 360 l 1
 1399 120 1159 -30 844 -30 c 0
 384 -30 84 290 84 740 c 0
 84 1190 384 1510 844 1510 c 0
 1159 1510 1399 1360 1519 1120 c 1
 1194 930 l 1
EndSplineSet
Substitution2: "sous-table 'c2sc' Capitales vers petites capitales dans Latin lookup 0" uni023C.sc
Colour: ffff
EndChar

StartChar: uni023C
Encoding: 572 572 546
Width: 1205
VWidth: 1000
Flags: HMW
LayerCount: 4
Fore
SplineSet
996 1180 m 5
 1188 1036 l 5
 272 -140 l 5
 80 4 l 5
 996 1180 l 5
444 520 m 0
 444 383 497 290 634 290 c 0
 738 290 793 344 814 430 c 1
 1121 252 l 1
 1033 79 855 -30 634 -30 c 0
 314 -30 84 200 84 520 c 0
 84 840 314 1070 634 1070 c 0
 855 1070 1033 961 1121 788 c 1
 814 610 l 1
 793 696 738 750 634 750 c 0
 497 750 444 657 444 520 c 0
EndSplineSet
Substitution2: "sous-table 'smcp' Bas-de-casse vers petites capitales dans Latin lookup 0" uni023C.sc
Colour: ff00
EndChar

StartChar: uni023D
Encoding: 573 573 547
Width: 1440
Flags: HMW
LayerCount: 4
Fore
SplineSet
860 620 m 5
 0 620 l 1
 0 666 0 814 0 860 c 1
 860 860 l 1
 860 620 l 5
590 1480 m 1
 590 336 l 1
 1324 336 l 1
 1324 0 l 1
 210 0 l 25
 210 1480 l 1
 590 1480 l 1
EndSplineSet
Substitution2: "sous-table 'c2sc' Capitales vers petites capitales dans Latin lookup 0" uni019A.sc
Colour: ffff
EndChar

StartChar: uni023E
Encoding: 574 574 548
Width: 1574
Flags: HMW
LayerCount: 4
Fore
SplineSet
1341 1620 m 5
 1533 1476 l 5
 234 -140 l 5
 42 4 l 5
 1341 1620 l 5
977 0 m 25
 597 0 l 25
 597 1144 l 25
 116 1144 l 25
 116 1480 l 25
 1458 1480 l 25
 1458 1144 l 25
 977 1144 l 25
 977 0 l 25
EndSplineSet
Colour: ffff
EndChar

StartChar: uni023F
Encoding: 575 575 549
Width: 1134
VWidth: 1000
Flags: HMW
LayerCount: 4
Fore
SplineSet
743 0 m 20
 743 -50 778 -84 828 -84 c 4
 841 -84 853 -82 864 -77 c 5
 864 -403 l 5
 852 -404 840 -404 828 -404 c 4
 578 -404 383 -250 383 0 c 4
 743 0 l 20
563 1070 m 0
 843 1070 983 931 1029 775 c 1
 682 685 l 0
 682 705 663 750 563 750 c 0
 493 750 474 735 474 715 c 0
 474 695 504 675 563 663 c 0
 856 601 1050 566 1050 326 c 0
 1050 86 839 -30 563 -30 c 0
 324 -30 132 85 84 265 c 1
 436 356 l 0
 436 326 473 290 563 290 c 0
 653 290 690 296 690 326 c 0
 690 356 622 371 563 383 c 0
 283 442 114 515 114 715 c 0
 114 915 283 1070 563 1070 c 0
EndSplineSet
Colour: ff00
EndChar

StartChar: uni0240
Encoding: 576 576 550
Width: 1258
Flags: HMW
LayerCount: 4
Fore
SplineSet
1033 130 m 1
 1258 -108 l 1
 1179 -208 1066 -276 934 -276 c 0
 863 -276 786 -257 707 -211 c 0
 577 -136 568 29 507 64 c 0
 492 73 476 76 461 76 c 0
 405 76 355 24 341 0 c 1
 116 238 l 1
 195 338 308 406 440 406 c 0
 511 406 588 387 667 341 c 0
 797 266 806 101 867 66 c 0
 880 58 893 56 907 56 c 0
 962 56 1019 106 1033 130 c 1
116 1040 m 1
 1008 1040 l 1
 1008 752 l 1
 594 720 l 1
 116 720 l 1
 116 1040 l 1
590 270 m 1
 116 238 l 1
 534 720 l 1
 1008 752 l 1
 590 270 l 1
EndSplineSet
Colour: ff00
EndChar

StartChar: uni0241
Encoding: 577 577 551
Width: 1355
VWidth: 1000
Flags: HMW
LayerCount: 4
Fore
SplineSet
484 0 m 1
 864 0 l 1
 864 746 l 1
 484 746 l 1
 484 0 l 1
674 410 m 0
 1011 410 1271 648 1271 960 c 4
 1271 1272 1034 1510 674 1510 c 0
 352 1510 129 1320 84 1056 c 5
 437 960 l 4
 437 1110 553 1174 674 1174 c 0
 795 1174 911 1110 911 960 c 4
 911 810 790 746 674 746 c 0
 674 410 l 0
EndSplineSet
Substitution2: "sous-table 'c2sc' Capitales vers petites capitales dans Latin lookup 0" uni0242.sc
Colour: ffff
EndChar

StartChar: uni0242
Encoding: 578 578 552
Width: 1102
Flags: HMW
LayerCount: 4
Fore
SplineSet
365 0 m 1
 725 0 l 5
 725 584 l 5
 365 584 l 1
 365 0 l 1
545 264 m 0
 813 264 1018 443 1018 674 c 0
 1018 905 829 1084 545 1084 c 0
 302 1084 129 952 84 771 c 1
 432 674 l 0
 432 734 485 764 545 764 c 0
 605 764 658 734 658 674 c 0
 658 614 605 584 545 584 c 0
 545 264 l 0
EndSplineSet
Substitution2: "sous-table 'smcp' Bas-de-casse vers petites capitales dans Latin lookup 0" uni0242.sc
Colour: ff00
EndChar

StartChar: uni0243
Encoding: 579 579 553
Width: 1546
Flags: HMW
LayerCount: 4
Fore
SplineSet
860 376 m 5
 0 376 l 1
 0 422 0 570 0 616 c 1
 860 616 l 1
 860 376 l 5
891 1480 m 1
 1215 1480 1385 1280 1385 1060 c 0
 1385 840 1155 656 891 656 c 1
 891 976 l 17
 981 976 1005 1012 1005 1062 c 0
 1005 1112 981 1144 891 1144 c 9
 590 1144 l 1
 590 1480 l 25
 891 1480 l 1
590 336 m 25
 891 336 l 17
 1011 336 1082 416 1082 496 c 0
 1082 576 1011 656 891 656 c 9
 590 656 l 25
 590 336 l 25
210 1480 m 1
 590 1480 l 25
 590 976 l 1
 891 976 l 1
 1257 976 1462 751 1462 496 c 0
 1462 241 1257 0 891 0 c 1
 210 0 l 1
 210 1480 l 1
EndSplineSet
Substitution2: "sous-table 'c2sc' Capitales vers petites capitales dans Latin lookup 0" uni0180.sc
Colour: ffff
EndChar

StartChar: uni0244
Encoding: 580 580 554
Width: 1762
Flags: HMW
LayerCount: 4
Fore
SplineSet
1762 845 m 29
 1762 605 l 29
 0 605 l 25
 0 845 l 25
 1762 845 l 29
590 1480 m 25
 590 600 l 17
 590 390 731 306 881 306 c 0
 1031 306 1172 390 1172 600 c 9
 1172 1480 l 25
 1552 1480 l 25
 1552 610 l 17
 1552 250 1313 -30 881 -30 c 0
 449 -30 210 240 210 600 c 9
 210 1480 l 25
 590 1480 l 25
EndSplineSet
Colour: ffff
EndChar

StartChar: uni0245
Encoding: 581 581 555
Width: 1588
VWidth: 1000
Flags: HMW
LayerCount: 4
Fore
SplineSet
802 1080 m 1
 1132 0 l 1
 1524 0 l 1
 1032 1480 l 1
 556 1480 l 1
 64 0 l 1
 456 0 l 1
 802 1080 l 1
EndSplineSet
Colour: ffff
EndChar

StartChar: uni0246
Encoding: 582 582 556
Width: 1346
Flags: HMW
LayerCount: 4
Fore
SplineSet
922 1660 m 5
 1181 1660 l 5
 424 -180 l 5
 165 -180 l 5
 922 1660 l 5
1116 908 m 17
 1116 572 l 9
 496 572 l 17
 496 336 l 1
 1230 336 l 1
 1230 0 l 1
 116 0 l 25
 116 1480 l 1
 1230 1480 l 17
 1230 1144 l 1
 496 1144 l 1
 496 908 l 9
 1116 908 l 17
EndSplineSet
Substitution2: "sous-table 'c2sc' Capitales vers petites capitales dans Latin lookup 0" uni0247.sc
Colour: ffff
EndChar

StartChar: uni0247
Encoding: 583 583 557
Width: 1268
VWidth: 1000
Flags: HMW
LayerCount: 4
Fore
SplineSet
947 1220 m 25
 567 -180 l 25
 321 -180 l 1
 701 1220 l 1
 947 1220 l 25
210 660 m 1
 1116 660 l 1
 1116 400 l 1
 210 400 l 1
 210 660 l 1
823 368 m 1
 1130 242 l 1
 1038 65 856 -30 634 -30 c 0
 313 -30 84 200 84 520 c 0
 84 840 314 1070 634 1070 c 0
 954 1070 1184 840 1184 520 c 0
 1184 479 1179 438 1172 400 c 1
 814 400 l 1
 828 435 854 476 854 520 c 0
 854 657 771 750 634 750 c 0
 497 750 404 657 404 520 c 0
 404 390 496 290 634 290 c 0
 748 290 805 329 823 368 c 1
EndSplineSet
Substitution2: "sous-table 'smcp' Bas-de-casse vers petites capitales dans Latin lookup 0" uni0247.sc
Colour: ff00
EndChar

StartChar: uni0248
Encoding: 584 584 558
Width: 1459
VWidth: 1000
Flags: HMW
LayerCount: 4
Fore
SplineSet
471 569 m 5
 471 569 464 543 464 485 c 0
 464 385 548 306 663 306 c 0
 778 306 869 385 869 485 c 0
 869 1480 l 1
 1249 1480 l 1
 1249 485 l 2
 1249 165 999 -30 663 -30 c 0
 327 -30 84 165 84 485 c 0
 471 569 l 5
1459 620 m 1
 599 620 l 1
 599 666 599 814 599 860 c 1
 1459 860 l 1
 1459 620 l 1
EndSplineSet
Substitution2: "sous-table 'c2sc' Capitales vers petites capitales dans Latin lookup 0" uni0249.sc
Colour: ffff
EndChar

StartChar: uni0249
Encoding: 585 585 559
Width: 812
Flags: HMW
LayerCount: 4
Fore
SplineSet
8 400 m 5
 8 446 8 594 8 640 c 1
 812 640 l 1
 812 400 l 1
 8 400 l 5
210 1352 m 0
 210 1463 299 1552 410 1552 c 0
 521 1552 610 1463 610 1352 c 0
 610 1241 521 1152 410 1152 c 0
 299 1152 210 1241 210 1352 c 0
100 -134 m 1
 113 -143 143 -150 162 -150 c 0
 214 -150 230 -128 230 -78 c 2
 230 0 l 1
 230 138 l 1
 230 1040 l 1
 590 1040 l 1
 590 138 l 1
 590 0 l 1
 590 -78 l 2
 590 -378 346 -470 162 -470 c 0
 74 -470 26 -439 0 -426 c 1
 100 -134 l 1
EndSplineSet
LCarets2: 1 0
Substitution2: "sous-table 'smcp' Bas-de-casse vers petites capitales dans Latin lookup 0" uni0249.sc
Ligature2: "'liga' Soft Dotted i j" j uni0307
Colour: ff00
EndChar

StartChar: uni024A
Encoding: 586 586 560
Width: 1725
Flags: HMW
LayerCount: 4
Fore
SplineSet
1725 -143 m 1
 1725 -469 l 1
 1713 -470 1701 -470 1689 -470 c 0
 1439 -470 1224 -316 1224 -66 c 0
 1604 -66 l 0
 1604 -116 1639 -150 1689 -150 c 0
 1702 -150 1714 -148 1725 -143 c 1
1604 1480 m 1
 1604 -66 l 25
 1224 -66 l 1
 1224 285 l 1
 1264 420 l 1
 1264 1092 l 1
 1224 1173 l 1
 1224 1480 l 1
 1604 1480 l 1
464 740 m 0
 464 490 594 306 844 306 c 0
 1094 306 1224 490 1224 740 c 0
 1224 990 1094 1174 844 1174 c 0
 594 1174 464 990 464 740 c 0
84 740 m 0
 84 1190 384 1510 844 1510 c 0
 1304 1510 1564 1190 1564 740 c 4
 1564 290 1304 -30 844 -30 c 0
 384 -30 84 290 84 740 c 0
EndSplineSet
Substitution2: "sous-table 'c2sc' Capitales vers petites capitales dans Latin lookup 0" uni024B.sc
Colour: ffff
EndChar

StartChar: uni024B
Encoding: 587 587 561
Width: 1335
VWidth: 1000
Flags: HMW
LayerCount: 4
Fore
SplineSet
1335 -143 m 5
 1335 -469 l 5
 1323 -470 1311 -470 1299 -470 c 4
 1049 -470 854 -316 854 -66 c 4
 1214 -66 l 20
 1214 -116 1249 -150 1299 -150 c 4
 1312 -150 1324 -148 1335 -143 c 5
854 530 m 0
 854 660 785 750 654 750 c 0
 517 750 444 650 444 520 c 0
 444 390 517 290 654 290 c 0
 791 290 854 400 854 530 c 0
1214 872 m 1
 1214 -66 l 5
 854 -66 l 5
 854 120 l 1
 844 81 739 -30 589 -30 c 0
 269 -30 84 200 84 520 c 0
 84 840 269 1070 589 1070 c 0
 739 1070 866 960 866 920 c 1
 866 1040 l 1
 1214 1040 l 1
 1214 1040 1214 974 1214 872 c 1
EndSplineSet
Substitution2: "sous-table 'smcp' Bas-de-casse vers petites capitales dans Latin lookup 0" uni024B.sc
Colour: ff00
EndChar

StartChar: uni024C
Encoding: 588 588 562
Width: 1432
Flags: HMW
LayerCount: 4
Fore
SplineSet
414 488 m 1
 414 824 l 1
 0 824 l 1
 0 778 0 534 0 488 c 1
 414 488 l 1
535 643 m 1
 988 0 l 1
 1428 0 l 1
 952 660 l 1
 535 643 l 1
590 1144 m 25
 777 1144 l 17
 897 1144 968 1094 968 984 c 0
 968 874 897 824 777 824 c 9
 590 824 l 25
 590 1144 l 25
210 0 m 1
 590 0 l 25
 590 488 l 1
 777 488 l 1
 1163 488 1348 729 1348 984 c 0
 1348 1239 1163 1480 777 1480 c 1
 210 1480 l 1
 210 0 l 1
EndSplineSet
Substitution2: "sous-table 'c2sc' Capitales vers petites capitales dans Latin lookup 0" uni024D.sc
Colour: ffff
EndChar

StartChar: uni024D
Encoding: 589 589 563
Width: 1046
VWidth: 1000
Flags: HMW
LayerCount: 4
Fore
SplineSet
0 400 m 5
 0 446 0 594 0 640 c 5
 804 640 l 5
 804 400 l 5
 0 400 l 5
915 681 m 1
 877 720 819 740 736 740 c 0
 606 740 570 682 570 572 c 2
 570 0 l 1
 210 0 l 1
 210 1040 l 1
 558 1040 l 1
 558 920 l 1
 593 981 682 1060 832 1060 c 0
 903 1060 966 1048 1022 1024 c 1
 915 681 l 1
EndSplineSet
Substitution2: "sous-table 'smcp' Bas-de-casse vers petites capitales dans Latin lookup 0" uni024D.sc
Colour: ff00
EndChar

StartChar: uni024E
Encoding: 590 590 564
Width: 1618
VWidth: 1000
Flags: HMW
LayerCount: 4
Fore
SplineSet
1618 1004 m 1
 0 1004 l 1
 0 1244 l 5
 1618 1244 l 1
 1618 1004 l 1
619 0 m 25
 619 834 l 25
 999 834 l 25
 999 0 l 25
 619 0 l 25
812 426 m 1
 703 578 l 1
 58 1480 l 1
 486 1480 l 1
 809 988 l 1
 1132 1480 l 1
 1560 1480 l 1
 812 426 l 1
EndSplineSet
Substitution2: "sous-table 'c2sc' Capitales vers petites capitales dans Latin lookup 0" uni024F.sc
Colour: ffff
EndChar

StartChar: uni024F
Encoding: 591 591 565
Width: 1274
VWidth: 1000
Flags: HMW
LayerCount: 4
Fore
SplineSet
0 400 m 1
 0 446 0 594 0 640 c 1
 1274 640 l 5
 1274 400 l 5
 0 400 l 1
801 -158 m 1
 719 -384 610 -470 331 -470 c 0
 210 -470 120 -439 64 -415 c 1
 160 -95 l 1
 192 -127 271 -150 331 -150 c 0
 391 -150 445 -107 460 -44 c 1
 472 0 l 1
 106 1040 l 1
 490 1040 l 1
 666 404 l 1
 826 1040 l 1
 1210 1040 l 1
 855 0 l 1
 801 -158 l 1
EndSplineSet
Substitution2: "sous-table 'smcp' Bas-de-casse vers petites capitales dans Latin lookup 0" uni024F.sc
Colour: ff00
EndChar

StartChar: uni0250
Encoding: 592 592 566
Width: 1306
VWidth: 1000
Flags: HMW
LayerCount: 4
Fore
SplineSet
742 1080 m 0
 1048 1080 1222 915 1222 715 c 0
 1222 515 1000 370 694 370 c 0
 424 370 274 505 274 705 c 1
 274 905 432 1080 742 1080 c 0
526 705 m 0
 526 665 594 650 694 650 c 0
 794 650 862 665 862 705 c 0
 862 745 794 760 694 760 c 0
 594 760 526 745 526 705 c 0
166 673 m 2
 166 733 130 792 58 792 c 9
 138 1080 l 1
 404 1060 526 868 526 803 c 9
 496 784 l 25
 496 622 l 25
 526 600 l 25
 526 392 l 17
 526 332 562 289 694 289 c 0
 920 289 1010 355 1010 355 c 1
 1174 84 l 1
 1174 84 980 -30 694 -30 c 0
 399 -30 166 72 166 422 c 1
 166 673 l 2
EndSplineSet
Substitution2: "'ss04' Simplified a and g lookups0-1" uni0250.ss04
Colour: ff00
EndChar

StartChar: uni0251
Encoding: 593 593 567
Width: 1330
VWidth: 1000
Flags: HMW
LayerCount: 4
Fore
SplineSet
854 510 m 0
 854 640 791 750 654 750 c 0
 517 750 444 650 444 520 c 0
 444 390 517 290 654 290 c 0
 785 290 854 380 854 510 c 0
1214 168 m 1
 1214 66 1238 0 1238 0 c 1
 890 0 l 1
 890 0 866 60 866 120 c 1
 866 80 739 -30 589 -30 c 0
 269 -30 84 200 84 520 c 0
 84 840 269 1070 589 1070 c 0
 739 1070 844 959 854 920 c 1
 854 1040 l 5
 1214 1040 l 5
 1214 168 l 1
EndSplineSet
Colour: ff00
EndChar

StartChar: uni0252
Encoding: 594 594 568
Width: 1330
VWidth: 1000
Flags: HMW
LayerCount: 4
Fore
SplineSet
476 530 m 0
 476 400 539 290 676 290 c 0
 813 290 886 390 886 520 c 0
 886 650 813 750 676 750 c 0
 545 750 476 660 476 530 c 0
116 872 m 1
 116 974 92 1040 92 1040 c 1
 440 1040 l 1
 440 1040 464 980 464 920 c 1
 464 960 591 1070 741 1070 c 0
 1061 1070 1246 840 1246 520 c 0
 1246 200 1061 -30 741 -30 c 0
 591 -30 486 81 476 120 c 1
 476 0 l 5
 116 0 l 5
 116 872 l 1
EndSplineSet
Colour: ff00
EndChar

StartChar: uni0253
Encoding: 595 595 569
Width: 1330
VWidth: 1000
Flags: HMW
LayerCount: 4
Fore
SplineSet
476 510 m 0
 476 380 545 290 676 290 c 0
 813 290 886 390 886 520 c 0
 886 650 813 750 676 750 c 0
 539 750 476 640 476 510 c 0
116 1106 m 4
 116 1356 311 1510 561 1510 c 4
 573 1510 585 1510 597 1509 c 5
 597 1183 l 5
 586 1188 574 1190 561 1190 c 4
 511 1190 476 1156 476 1106 c 4
 476 920 l 1
 486 959 591 1070 741 1070 c 0
 1061 1070 1246 840 1246 520 c 0
 1246 200 1061 -30 741 -30 c 0
 591 -30 464 80 464 120 c 1
 464 0 l 1
 116 0 l 1
 116 388 l 1
 116 588 116 1106 116 1106 c 4
EndSplineSet
Colour: ff00
EndChar

StartChar: uni0254
Encoding: 596 596 570
Width: 1205
VWidth: 1000
Flags: HMW
LayerCount: 4
Fore
SplineSet
761 520 m 4
 761 383 708 290 571 290 c 4
 467 290 412 344 391 430 c 5
 84 252 l 5
 172 79 350 -30 571 -30 c 4
 891 -30 1121 200 1121 520 c 4
 1121 840 891 1070 571 1070 c 0
 350 1070 172 961 84 788 c 1
 391 610 l 1
 412 696 467 750 571 750 c 0
 708 750 761 657 761 520 c 4
EndSplineSet
Colour: ff00
EndChar

StartChar: uni0255
Encoding: 597 597 571
Width: 1257
VWidth: 1000
Flags: HMW
LayerCount: 4
Fore
SplineSet
917 0 m 4
 897 0 654 0 634 0 c 4
 314 0 84 200 84 520 c 0
 84 840 314 1070 634 1070 c 0
 855 1070 1033 961 1121 788 c 1
 814 610 l 1
 793 696 738 750 634 750 c 0
 497 750 444 657 444 520 c 0
 444 383 497 240 634 240 c 4
 654 240 897 240 917 240 c 4
 961 240 987 260 987 304 c 4
 987 348 941 368 897 368 c 4
 647 368 609 -171 609 -171 c 1
 359 -39 l 1
 359 -39 432 608 897 608 c 4
 1082 608 1257 507 1257 304 c 4
 1257 101 1122 0 917 0 c 4
EndSplineSet
Colour: ff00
EndChar

StartChar: uni0256
Encoding: 598 598 572
Width: 1335
VWidth: 1000
Flags: HMW
LayerCount: 4
Fore
SplineSet
1214 0 m 5
 1214 0 1214 66 1214 168 c 1
 1214 1480 l 1
 854 1480 l 1
 854 920 l 1
 844 959 739 1070 589 1070 c 0
 269 1070 84 840 84 520 c 0
 84 200 269 -30 589 -30 c 0
 739 -30 866 80 866 120 c 1
 866 0 l 5
 866 -250 1049 -404 1299 -404 c 4
 1311 -404 1323 -404 1335 -403 c 5
 1335 -77 l 5
 1324 -82 1312 -84 1299 -84 c 4
 1249 -84 1214 -50 1214 0 c 5
854 510 m 0
 854 380 785 290 654 290 c 0
 517 290 444 390 444 520 c 0
 444 650 517 750 654 750 c 0
 791 750 854 640 854 510 c 0
EndSplineSet
Colour: ff00
EndChar

StartChar: uni0257
Encoding: 599 599 573
Width: 1335
VWidth: 1000
Flags: HMW
LayerCount: 4
Fore
SplineSet
1214 1106 m 13
 1214 168 l 1
 1214 66 1238 0 1238 0 c 1
 890 0 l 1
 890 0 866 60 866 120 c 1
 866 80 739 -30 589 -30 c 0
 269 -30 84 200 84 520 c 0
 84 840 269 1070 589 1070 c 0
 739 1070 844 959 854 920 c 1
 854 1106 l 21
 854 1356 1049 1510 1299 1510 c 4
 1311 1510 1323 1510 1335 1509 c 5
 1335 1183 l 5
 1324 1188 1312 1190 1299 1190 c 4
 1249 1190 1214 1156 1214 1106 c 13
854 510 m 0
 854 640 791 750 654 750 c 0
 517 750 444 650 444 520 c 0
 444 390 517 290 654 290 c 0
 785 290 854 380 854 510 c 0
EndSplineSet
Colour: ff00
EndChar

